<?xml version="1.0" encoding="UTF-8" standalone="no"?>
<!-- Created with Inkscape (http://www.inkscape.org/) -->
<svg xmlns:dc="http://purl.org/dc/elements/1.1/" xmlns:cc="http://creativecommons.org/ns#" xmlns:rdf="http://www.w3.org/1999/02/22-rdf-syntax-ns#" xmlns:svg="http://www.w3.org/2000/svg" xmlns="http://www.w3.org/2000/svg" xmlns:xlink="http://www.w3.org/1999/xlink" xmlns:sodipodi="http://sodipodi.sourceforge.net/DTD/sodipodi-0.dtd" xmlns:inkscape="http://www.inkscape.org/namespaces/inkscape" inkscape:export-ydpi="90.000000" inkscape:export-xdpi="90.000000" inkscape:export-filename="/home/jimmac/Desktop/wi-fi.png" width="32" height="32" id="svg11300" sodipodi:version="0.32" inkscape:version="0.46+devel r22180" sodipodi:docname="plugin-static.svg" inkscape:output_extension="org.inkscape.output.svg.inkscape" sodipodi:modified="true" version="1.0">
  <defs id="defs3">
    <inkscape:perspective sodipodi:type="inkscape:persp3d" inkscape:vp_x="0 : 16 : 1" inkscape:vp_y="0 : 1000 : 0" inkscape:vp_z="32 : 16 : 1" inkscape:persp3d-origin="16 : 10.666667 : 1" id="perspective95"/>
    <linearGradient inkscape:collect="always" id="linearGradient3736">
      <stop style="stop-color: rgb(255, 255, 255); stop-opacity: 1;" offset="0" id="stop3738"/>
      <stop style="stop-color: rgb(255, 255, 255); stop-opacity: 0;" offset="1" id="stop3740"/>
    </linearGradient>
    <linearGradient id="linearGradient4106">
      <stop style="stop-color: rgb(0, 142, 255); stop-opacity: 1;" offset="0" id="stop4108"/>
      <stop style="stop-color: rgb(255, 255, 255); stop-opacity: 1;" offset="1" id="stop4110"/>
    </linearGradient>
    <linearGradient id="linearGradient3153">
      <stop style="stop-color: rgb(249, 249, 248); stop-opacity: 1;" offset="0" id="stop3155"/>
      <stop style="stop-color: rgb(205, 207, 202); stop-opacity: 1;" offset="1" id="stop3157"/>
    </linearGradient>
    <linearGradient inkscape:collect="always" id="linearGradient6482">
      <stop style="stop-color: rgb(0, 0, 0); stop-opacity: 1;" offset="0" id="stop6484"/>
      <stop style="stop-color: rgb(0, 0, 0); stop-opacity: 0;" offset="1" id="stop6486"/>
    </linearGradient>
    <linearGradient inkscape:collect="always" xlink:href="#linearGradient4106" id="linearGradient4112" x1="16.450705" y1="-0.41219324" x2="16.241295" y2="35.337502" gradientUnits="userSpaceOnUse"/>
    <radialGradient inkscape:collect="always" xlink:href="#linearGradient6482" id="radialGradient4130" gradientUnits="userSpaceOnUse" gradientTransform="matrix(1, 0, 0, 0.395454, 0, -4.23604)" cx="13.030141" cy="-7.0069871" fx="13.030141" fy="-7.0069871" r="18.143234"/>
    <linearGradient inkscape:collect="always" xlink:href="#linearGradient5989" id="linearGradient4798" gradientUnits="userSpaceOnUse" gradientTransform="matrix(-0.421971, 0, 0, -0.421971, 257.699, 56.4667)" x1="113.03156" y1="-5.1532555" x2="178.13614" y2="84.281631"/>
    <linearGradient id="linearGradient5989">
      <stop style="stop-color: rgb(255, 255, 255); stop-opacity: 1;" offset="0" id="stop5991"/>
      <stop id="stop2316" offset="0.56465238" style="stop-color: rgb(188, 188, 188); stop-opacity: 1;"/>
      <stop style="stop-color: rgb(131, 131, 131); stop-opacity: 1;" offset="0.83716005" id="stop2318"/>
      <stop style="stop-color: rgb(58, 58, 58); stop-opacity: 1;" offset="1" id="stop5993"/>
    </linearGradient>
    <linearGradient inkscape:collect="always" xlink:href="#linearGradient5989" id="linearGradient4800" gradientUnits="userSpaceOnUse" gradientTransform="matrix(-0.433655, 0, 0, -0.433655, 259.443, 57.0419)" x1="189.17828" y1="97.78125" x2="130.45938" y2="5.6419296"/>
    <radialGradient inkscape:collect="always" xlink:href="#linearGradient5395" id="radialGradient4802" gradientUnits="userSpaceOnUse" cx="55.282555" cy="57.493858" fx="55.282555" fy="57.493858" r="41.277641"/>
    <linearGradient id="linearGradient5395">
      <stop style="stop-color: black; stop-opacity: 0.146018;" offset="0" id="stop5397"/>
      <stop style="stop-color: black; stop-opacity: 0;" offset="1" id="stop5399"/>
    </linearGradient>
    <radialGradient inkscape:collect="always" xlink:href="#linearGradient2918" id="radialGradient4804" gradientUnits="userSpaceOnUse" gradientTransform="matrix(1.22235, -3.29189e-07, 3.34489e-07, 1.24035, -11.1996, -12.4008)" cx="52.194855" cy="52.393955" fx="52.194855" fy="52.393955" r="41.277641"/>
    <linearGradient id="linearGradient2918">
      <stop id="stop2920" offset="0" style="stop-color: white; stop-opacity: 0;"/>
      <stop style="stop-color: white; stop-opacity: 0;" offset="0.5" id="stop2926"/>
      <stop id="stop3571" offset="1" style="stop-color: black; stop-opacity: 0.60177;"/>
    </linearGradient>
    <linearGradient id="linearGradient5471">
      <stop style="stop-color: black; stop-opacity: 0.39823;" offset="0" id="stop5473"/>
      <stop style="stop-color: black; stop-opacity: 0;" offset="1" id="stop5475"/>
    </linearGradient>
    <linearGradient y2="78.734375" x2="54.682812" y1="91.65625" x1="58.386326" gradientTransform="matrix(0.421971, 0, 0, 0.421971, 173.092, 14.13)" gradientUnits="userSpaceOnUse" id="linearGradient4978" xlink:href="#linearGradient5471" inkscape:collect="always"/>
    <filter inkscape:collect="always" id="filter3708">
      <feGaussianBlur inkscape:collect="always" stdDeviation="0.41709271" id="feGaussianBlur3710"/>
    </filter>
    <linearGradient inkscape:collect="always" xlink:href="#linearGradient3736" id="linearGradient3742" x1="15.81426" y1="45.597176" x2="15.961335" y2="27.120962" gradientUnits="userSpaceOnUse" gradientTransform="matrix(1, 0, 0, 2.79429, -0.450705, -62.5003)"/>
    <radialGradient inkscape:collect="always" xlink:href="#linearGradient3153" id="radialGradient2942" gradientUnits="userSpaceOnUse" gradientTransform="matrix(0.19553, 0.659127, -1.30026, 0.271819, 25.9808, 14.1623)" cx="8.0419788" cy="13.534249" fx="8.0419788" fy="13.534249" r="19.677486"/>
    <radialGradient inkscape:collect="always" xlink:href="#linearGradient3153" id="radialGradient2944" gradientUnits="userSpaceOnUse" gradientTransform="matrix(0.202723, 1.39614, -1.3481, 0.209226, 26.537, -2.28916)" cx="8.0419788" cy="13.534249" fx="8.0419788" fy="13.534249" r="19.677486"/>
    <filter inkscape:collect="always" id="filter3707" x="-0.020004162" width="1.0400083" y="-0.17966357" height="1.3593271">
      <feGaussianBlur inkscape:collect="always" stdDeviation="0.26388608" id="feGaussianBlur3709"/>
    </filter>
    <filter inkscape:collect="always" id="filter3711" x="-0.019900623" width="1.0398012" y="-0.1884704" height="1.3769408">
      <feGaussianBlur inkscape:collect="always" stdDeviation="0.26252024" id="feGaussianBlur3713"/>
    </filter>
    <inkscape:perspective id="perspective3943" inkscape:persp3d-origin="0.5 : 0.33333333 : 1" inkscape:vp_z="1 : 0.5 : 1" inkscape:vp_y="0 : 1000 : 0" inkscape:vp_x="0 : 0.5 : 1" sodipodi:type="inkscape:persp3d"/>
    <inkscape:perspective id="perspective3943-0" inkscape:persp3d-origin="0.5 : 0.33333333 : 1" inkscape:vp_z="1 : 0.5 : 1" inkscape:vp_y="0 : 1000 : 0" inkscape:vp_x="0 : 0.5 : 1" sodipodi:type="inkscape:persp3d"/>
  </defs>
  <sodipodi:namedview stroke="#ef2929" fill="#eeeeec" id="base" pagecolor="#ffffff" bordercolor="#666666" borderopacity="0.25490196" inkscape:pageopacity="0.0" inkscape:pageshadow="2" inkscape:zoom="15.53125" inkscape:cx="16" inkscape:cy="16" inkscape:current-layer="layer1" showgrid="false" inkscape:grid-bbox="true" inkscape:document-units="px" inkscape:showpageshadow="false" inkscape:window-width="906" inkscape:window-height="752" inkscape:window-x="290" inkscape:window-y="91" showguides="true" inkscape:guide-bbox="true" inkscape:snap-global="false" inkscape:window-maximized="0">
    <inkscape:grid type="xygrid" id="grid7878" visible="true" enabled="true"/>
  </sodipodi:namedview>
  <metadata id="metadata4">
    <rdf:RDF>
      <cc:Work rdf:about="">
        <dc:format>image/svg+xml</dc:format>
        <dc:type rdf:resource="http://purl.org/dc/dcmitype/StillImage"/>
        <dc:creator>
          <cc:Agent>
            <dc:title>Patrick Niklaus</dc:title>
          </cc:Agent>
        </dc:creator>
        <dc:source/>
        <cc:license rdf:resource="http://creativecommons.org/licenses/GPL/2.0/"/>
        <dc:title/>
        <dc:subject>
          <rdf:Bag/>
        </dc:subject>
      </cc:Work>
      <cc:License rdf:about="http://creativecommons.org/licenses/GPL/2.0/">
        <cc:permits rdf:resource="http://web.resource.org/cc/Reproduction"/>
        <cc:permits rdf:resource="http://web.resource.org/cc/Distribution"/>
        <cc:requires rdf:resource="http://web.resource.org/cc/Notice"/>
        <cc:permits rdf:resource="http://web.resource.org/cc/DerivativeWorks"/>
        <cc:requires rdf:resource="http://web.resource.org/cc/ShareAlike"/>
        <cc:requires rdf:resource="http://web.resource.org/cc/SourceCode"/>
      </cc:License>
    </rdf:RDF>
  </metadata>
  <g id="layer1" inkscape:label="Layer 1" inkscape:groupmode="layer">
    <rect style="fill: url(#linearGradient3742) rgb(0, 0, 0); fill-opacity: 1; stroke: none;" id="rect2962" width="32.193161" height="31.484909" x="-0.51509064" y="3.3480878"/>
    <g transform="matrix(0.961932, -0.141346, 0, 0.929719, -29.167, 18.4524)" id="g4289" style="opacity: 1;">
      <path style="fill: rgb(236, 236, 236); fill-rule: evenodd; stroke: none;" id="path4291" d="m 47.582365,6.0735981 7.355447,2.704146 -9.064515,3.5899479 -6.662241,-3.7411522 8.371309,-2.5529417 z"/>
      <path style="fill: rgb(179, 179, 179); fill-opacity: 1; fill-rule: evenodd; stroke: none;" id="path4293" d="M 39.226923,8.6371996 45.968246,12.387654 46.49924,22.596668 40.223879,17.609806 39.226923,8.6371996 z"/>
      <path style="fill: rgb(128, 128, 128); fill-opacity: 1; fill-rule: evenodd; stroke: none;" id="path4295" d="m 54.940852,8.779622 -9.067555,3.560558 0.617164,10.254407 7.880701,-4.415092 0.56969,-9.399873 z"/>
    </g>
    <rect y="0.075117216" x="-0.075117372" height="31.849766" width="32.075119" id="rect4091" style="opacity: 0.52962; fill: url(#linearGradient4112) rgb(0, 0, 0); fill-opacity: 1; stroke: none;"/>
    <path sodipodi:nodetypes="cccccc" id="path3701" d="m 0.14101882,0.0849094 -0.0243864,3.0846428 c 0,0.7111229 0.85161657,0.3474424 1.90945458,0.3474424 l 27.687089,0 c 1.057838,0 2.063198,0.3636805 2.063198,-0.3474424 l 0,-2.88990872" style="fill: rgb(77, 77, 77); fill-opacity: 1; stroke: none; filter: url(#filter3707);"/>
    <path style="fill: rgb(128, 128, 128); fill-opacity: 1; stroke: none; stroke-width: 0.818406; stroke-miterlimit: 4; stroke-opacity: 1;" d="m 0.14101882,0.0849094 -0.0243864,2.447208 c 0,0.5641709 0.85161657,0.2756442 1.90945458,0.2756442 l 27.687089,0 c 1.057838,0 2.063198,0.2885267 2.063198,-0.2756442 l 0,-2.29271529" id="path1917" sodipodi:nodetypes="cccccc"/>
    <g id="g2631" transform="matrix(0.155114, 0, 0, 0.147936, -2.46331, 1.54945)" style="filter: url(#filter3708);">
      <path style="fill: rgb(255, 255, 255); fill-opacity: 0.756881; fill-rule: nonzero; stroke: none;" d="m 187.52713,22.324928 0,-2.431724 0,2.431724 z" id="path2276-4" sodipodi:nodetypes="ccc"/>
      <path transform="matrix(0.484765, 0, 0, 0.484765, 170.774, 11.8112)" d="m 91.646191,50.368549 c 0,22.797012 -18.48063,41.277642 -41.277642,41.277642 -22.797011,0 -41.2776409,-18.48063 -41.2776409,-41.277642 0,-22.797011 18.4806299,-41.2776409 41.2776409,-41.2776409 22.797012,0 41.277642,18.4806299 41.277642,41.2776409 z" sodipodi:ry="41.277641" sodipodi:rx="41.277641" sodipodi:cy="50.368549" sodipodi:cx="50.368549" id="path3286" style="fill: rgb(0, 0, 0); fill-opacity: 0.235495; stroke: none;" sodipodi:type="arc"/>
      <path transform="matrix(0.449532, 0, 0, 0.449532, 171.704, 12.7418)" d="m 91.646191,50.368549 c 0,22.797012 -18.48063,41.277642 -41.277642,41.277642 -22.797011,0 -41.2776409,-18.48063 -41.2776409,-41.277642 0,-22.797011 18.4806299,-41.2776409 41.2776409,-41.2776409 22.797012,0 41.277642,18.4806299 41.277642,41.2776409 z" sodipodi:ry="41.277641" sodipodi:rx="41.277641" sodipodi:cy="50.368549" sodipodi:cx="50.368549" id="path2335" style="fill: rgb(242, 242, 242); fill-opacity: 1; stroke: none;" sodipodi:type="arc"/>
      <g transform="matrix(0.421971, 0, 0, 0.421971, 173.092, 14.0264)" id="g1896">
        <path style="fill: rgb(0, 0, 0); fill-opacity: 1; stroke: none;" d="m 49,10.1832 0,5.875 1.125,0.03125 0.875,-0.03125 0,-5.875 -2,0 z m -18.125,4.84375 -1.75,1 2.96875,5.15625 1,-0.53125 0.75,-0.46875 -2.96875,-5.15625 z m 38.25,0 -2.90625,5.0625 0.90625,0.5625 0.8125,0.4375 2.9375,-5.0625 -1.75,-1 z m -53.28125,14.28125 -1,1.71875 5.25,3.03125 0.5625,-0.9375 0.4375,-0.78125 -5.25,-3.03125 z m 68.3125,0 -5.0625,2.90625 0.5,0.90625 0.5,0.8125 5.0625,-2.90625 -1,-1.71875 z M 10,49.1832 l 0,2 6.0625,0 0.03125,-1.0625 -0.03125,-0.9375 -6.0625,0 z m 74.1875,0 -0.03125,0.9375 0.03125,1.0625 5.8125,0 0,-2 -5.8125,0 z m -64.0625,17.09375 -5.28125,3.03125 1,1.71875 5.28125,-3.03125 -0.46875,-0.84375 -0.53125,-0.875 z m 59.9375,0.09375 -0.46875,0.78125 -0.53125,0.9375 5.09375,2.9375 1,-1.71875 -5.09375,-2.9375 z m -47.90625,12.6875 -3.03125,5.25 1.75,1 3.03125,-5.21875 -0.8125,-0.5 -0.9375,-0.53125 z m 35.75,0.09375 -0.78125,0.4375 -0.96875,0.59375 2.96875,5.125 1.75,-1 -2.96875,-5.15625 z m -17.78125,5 -1.125,0.03125 0,6 2,0 0,-6 -0.875,-0.03125 z" id="rect2253"/>
        <path style="fill: rgb(0, 0, 0); fill-opacity: 1; stroke: none;" d="m 46.34375,10.40195 -0.96875,0.125 0.40625,3.875 0.78125,-0.09375 0.1875,-0.03125 -0.40625,-3.875 z m 7.375,0 -0.40625,3.84375 0.84375,0.0625 0.15625,0.03125 0.40625,-3.8125 -1,-0.125 z m -11.5,0.625 -0.96875,0.1875 0.8125,3.875 0.75,-0.1875 0.21875,-0.03125 -0.8125,-3.84375 z m 15.65625,0 -0.78125,3.71875 0.8125,0.15625 0.15625,0.03125 0.78125,-3.71875 -0.96875,-0.1875 z m -19.71875,1.03125 -0.9375,0.3125 1.21875,3.75 0.71875,-0.25 0.21875,-0.0625 -1.21875,-3.75 z m 23.78125,0 -1.15625,3.59375 0.78125,0.21875 0.15625,0.0625 1.15625,-3.5625 -0.9375,-0.3125 z m -27.71875,1.4375 -0.90625,0.40625 1.625,3.65625 0.6875,-0.3125 0.21875,-0.09375 -1.625,-3.65625 z m 31.625,0 -1.5,3.40625 0.78125,0.34375 0.125,0.0625 1.53125,-3.40625 -0.9375,-0.40625 z m -38.90625,4.09375 -0.8125,0.59375 2.375,3.28125 0.5625,-0.4375 0.25,-0.15625 -2.375,-3.28125 z m 46.21875,0 L 71,20.5582 l 0.6875,0.46875 0.125,0.09375 2.15625,-2.9375 -0.8125,-0.59375 z m -49.5,2.59375 -0.75,0.65625 2.71875,3 0.46875,-0.4375 0.25,-0.21875 -2.6875,-3 z m 52.78125,0 -2.4375,2.6875 0.625,0.53125 0.125,0.125 2.4375,-2.6875 -0.75,-0.65625 z m -55.78125,2.9375 -0.6875,0.71875 3.03125,2.75 0.40625,-0.5 0.25,-0.25 -3,-2.71875 z m 58.78125,0 -2.65625,2.40625 0.53125,0.5625 0.125,0.15625 2.65625,-2.40625 -0.65625,-0.71875 z m -61.46875,3.21875 -0.59375,0.8125 3.3125,2.40625 0.34375,-0.5 0.25,-0.3125 -3.3125,-2.40625 z m 64.125,0 -2.875,2.09375 0.5,0.625 0.125,0.15625 2.84375,-2.0625 -0.59375,-0.8125 z m -68.40625,7.1875 -0.40625,0.90625 3.75,1.6875 0.21875,-0.5 0.1875,-0.40625 -3.75,-1.6875 z m 72.6875,0 -3.1875,1.40625 0.3125,0.6875 0.09375,0.21875 3.1875,-1.40625 -0.40625,-0.90625 z m -74.21875,3.875 -0.3125,0.96875 3.90625,1.25 0.125,-0.46875 0.15625,-0.5 -3.875,-1.25 z m 75.78125,0 -3.3125,1.0625 0.25,0.6875 0.09375,0.28125 3.28125,-1.0625 -0.3125,-0.96875 z m -76.90625,4.03125 -0.21875,1 4,0.84375 0.09375,-0.4375 0.125,-0.5625 -4,-0.84375 z m 78.03125,0 -3.375,0.71875 0.15625,0.6875 0.0625,0.3125 3.375,-0.71875 -0.21875,-1 z m -78.75,4.125 -0.09375,1 4.0625,0.4375 0.03125,-0.40625 0.09375,-0.59375 -4.09375,-0.4375 z m 79.46875,0 -3.4375,0.375 0.09375,0.65625 0.03125,0.3125 3.40625,-0.34375 -0.09375,-1 z M 14.25,53.4957 l -4.03125,0.4375 0.09375,1 L 14.375,54.4957 14.3125,54.15195 14.25,53.4957 z m 72.25,0.0625 -0.0625,0.59375 -0.0625,0.40625 3.40625,0.375 0.09375,-1 -3.375,-0.375 z m -71.71875,3.65625 -3.96875,0.84375 0.21875,1 3.9375,-0.84375 -0.0625,-0.3125 -0.125,-0.6875 z m 71.15625,0.125 -0.09375,0.5625 -0.09375,0.4375 3.3125,0.71875 0.21875,-1 -3.34375,-0.71875 z m -70.28125,3.53125 -3.8125,1.25 0.3125,0.96875 3.8125,-1.25 -0.09375,-0.25 -0.21875,-0.71875 z m 69.375,0.1875 -0.15625,0.53125 -0.15625,0.4375 3.21875,1.0625 0.3125,-0.96875 -3.21875,-1.0625 z m -68.09375,3.375 -3.65625,1.625 0.40625,0.90625 3.65625,-1.625 L 17.25,65.1207 16.9375,64.4332 z m 66.75,0.25 -0.1875,0.4375 -0.21875,0.46875 3.09375,1.375 0.40625,-0.90625 -3.09375,-1.375 z m -63.125,6.34375 -3.1875,2.3125 0.59375,0.8125 3.1875,-2.3125 -0.125,-0.15625 -0.46875,-0.65625 z m 59.375,0.3125 -0.21875,0.34375 -0.375,0.46875 2.75,2 0.59375,-0.8125 -2.75,-2 z m -57.0625,2.6875 -2.90625,2.625 0.6875,0.71875 2.875,-2.59375 -0.125,-0.125 -0.53125,-0.625 z m 54.6875,0.34375 -0.25,0.28125 -0.40625,0.4375 2.53125,2.28125 0.65625,-0.71875 L 77.5625,74.3707 z M 25.5,76.77695 l -2.59375,2.875 0.75,0.65625 L 26.25,77.4332 26.09375,77.3082 25.5,76.77695 z m 49.375,0.3125 -0.25,0.21875 -0.5,0.4375 2.3125,2.5625 0.75,-0.65625 -2.3125,-2.5625 z m -46.5,2.125 -2.25,3.09375 0.8125,0.59375 2.25,-3.09375 -0.125,-0.09375 -0.6875,-0.5 z m 43.5625,0.3125 -0.25,0.1875 -0.5625,0.375 2.03125,2.8125 0.8125,-0.59375 -2.03125,-2.78125 z M 34.84375,83.1207 33.3125,86.58945 34.21875,86.9957 35.75,83.5582 35.625,83.4957 34.84375,83.1207 z m 30.5,0.28125 -0.21875,0.09375 -0.71875,0.28125 1.4375,3.21875 0.9375,-0.40625 -1.4375,-3.1875 z M 38.375,84.58945 37.21875,88.1207 38.15625,88.4332 39.3125,84.90195 39.15625,84.8707 38.375,84.58945 z m 23.40625,0.1875 -0.21875,0.09375 -0.71875,0.21875 1.09375,3.34375 0.9375,-0.3125 -1.09375,-3.34375 z m -19.75,0.875 -0.78125,3.625 0.96875,0.1875 0.75,-3.59375 -0.15625,-0.03125 -0.78125,-0.1875 z m 16.0625,0.125 -0.1875,0.0625 -0.78125,0.15625 0.75,3.46875 0.96875,-0.1875 -0.75,-3.5 z m -12.34375,0.5625 -0.375,3.625 0.96875,0.125 0.375,-3.65625 -0.15625,0 -0.8125,-0.09375 z m 8.59375,0.0625 -0.1875,0.03125 -0.8125,0.0625 0.375,3.59375 1,-0.125 -0.375,-3.5625 z" id="rect3176"/>
      </g>
      <path id="path3036" d="m 194.24584,14.502949 c -11.42616,0 -20.70714,9.280972 -20.70714,20.707132 0,11.42616 9.28098,20.693488 20.70714,20.693489 11.42615,0 20.69349,-9.267329 20.69349,-20.693489 0,-11.426161 -9.26734,-20.707132 -20.69349,-20.707132 z m 0,1.2959 c 10.71572,0 19.41123,8.69551 19.41123,19.411232 0,10.71572 -8.69551,19.411228 -19.41123,19.411228 -10.71573,-10e-7 -19.41123,-8.695506 -19.41123,-19.411228 0,-10.715722 8.69551,-19.411232 19.41123,-19.411232 z" style="fill: rgb(51, 51, 51); fill-opacity: 1; stroke: none;"/>
      <path id="path3038" d="m 194.24511,16.695484 c -10.21592,0 -18.51387,8.29795 -18.51387,18.513873 0,10.215925 8.29795,18.501678 18.51387,18.501679 10.21593,0 18.50168,-8.285753 18.50168,-18.501679 0,-10.215924 -8.28575,-18.513873 -18.50168,-18.513873 z m 0,1.158642 c 9.58074,0 17.35524,7.774498 17.35524,17.355231 0,9.580734 -7.7745,17.355233 -17.35524,17.355233 -9.58073,-2e-6 -17.35523,-7.774498 -17.35523,-17.355233 0,-9.580733 7.7745,-17.355231 17.35523,-17.355231 z" style="fill: rgb(153, 153, 153); fill-opacity: 1; stroke: none;"/>
      <path id="path5592" d="m 194.24561,53.974386 c 10.35872,0 18.76453,-8.405812 18.76453,-18.764533 0,-10.358719 -8.40581,-18.764531 -18.76453,-18.764533 -10.35872,0 -18.76453,8.405814 -18.76453,18.764533 0,10.358719 8.40581,18.764533 18.76453,18.764533 z m 0,-1.345035 c -9.61473,0 -17.4195,-7.804776 -17.4195,-17.419498 0,-9.614722 7.80477,-17.419499 17.4195,-17.419499 9.61472,2e-6 17.4195,7.804777 17.4195,17.419499 0,9.614722 -7.80478,17.419498 -17.4195,17.419498 z" style="fill: url(#linearGradient4798) rgb(0, 0, 0); fill-opacity: 1; stroke: none;"/>
      <path id="path5600" d="m 194.23224,55.76803 c 11.35134,0 20.57154,-9.220202 20.57154,-20.571546 0,-11.351344 -9.2202,-20.557994 -20.57154,-20.557994 -11.35134,0 -20.55799,9.206649 -20.55799,20.557994 0,11.351344 9.20665,20.571546 20.55799,20.571546 z m 0,-1.287416 c -10.64556,0 -19.28413,-8.638573 -19.28413,-19.28413 0,-10.645557 8.63857,-19.28413 19.28413,-19.28413 10.64556,2e-6 19.28413,8.638573 19.28413,19.28413 0,10.645558 -8.63858,19.28413 -19.28413,19.28413 z" style="fill: url(#linearGradient4800) rgb(0, 0, 0); fill-opacity: 1; stroke: none;"/>
      <path id="path2044" d="m 194.24545,15.684468 c -10.77399,0 -19.52523,8.751238 -19.52523,19.525223 0,10.773985 8.75124,19.512359 19.52523,19.512359 10.77398,0 19.51236,-8.738374 19.51236,-19.512359 0,-10.773985 -8.73838,-19.525223 -19.51236,-19.525223 z m 0,1.221935 c 10.10409,0 18.30329,8.199192 18.30329,18.303288 0,10.104096 -8.1992,18.303287 -18.30329,18.303287 -10.1041,0 -18.30329,-8.199191 -18.30329,-18.303287 0,-10.104096 8.19919,-18.303288 18.30329,-18.303288 z" style="fill: rgb(0, 0, 0); fill-opacity: 1; stroke: none;"/>
      <rect y="34.606533" x="190.87334" height="1.5551765" width="14.510835" id="rect6413" style="fill: rgb(0, 0, 0); fill-opacity: 0.235495; stroke: none;"/>
      <rect y="34.502853" x="190.76965" height="1.5551765" width="14.510835" id="rect3613" style="fill: rgb(0, 0, 0); fill-opacity: 1; stroke: none;"/>
      <rect transform="matrix(0, -1, 1, 0, 0, 0)" y="193.53787" x="-38.693539" height="1.5551765" width="20.078365" id="rect3742" style="fill: rgb(0, 0, 0); fill-opacity: 0.235495; stroke: none;"/>
      <rect transform="matrix(0, -1, 1, 0, 0, 0)" y="193.4342" x="-38.589855" height="1.5551765" width="20.078365" id="rect4629" style="fill: rgb(0, 0, 0); fill-opacity: 1; stroke: none;"/>
      <path id="path4758" d="m 203.61241,42.265905 c -0.55913,-0.559132 -1.4101,-0.630316 -2.05135,-0.223785 l -6.19136,-6.191358 c 0.0787,-0.266109 0.0234,-0.573342 -0.18648,-0.783244 -0.21067,-0.210666 -0.51642,-0.26654 -0.78325,-0.186487 l -1.55716,-1.557163 -0.51284,0.512838 1.55716,1.557164 c -0.0855,0.269656 -0.0272,0.569525 0.18649,0.783244 0.21439,0.214392 0.5223,0.282513 0.79257,0.19581 l 6.18203,6.182035 c -0.40726,0.641361 -0.34497,1.501247 0.21446,2.060677 0.55943,0.559431 1.41932,0.621725 2.06068,0.21446 l 0.68068,0.680676 2.64811,2.125949 -2.13527,-2.638788 -0.68068,-0.680676 c 0.40653,-0.641253 0.33535,-1.492222 -0.22379,-2.051352 z m -0.45689,0.456891 c 0.39613,0.396124 0.39613,1.039823 0,1.435948 -0.39612,0.396124 -1.03982,0.396124 -1.43594,0 -0.39613,-0.396125 -0.39613,-1.039824 0,-1.435948 0.39612,-0.396123 1.03982,-0.396123 1.43594,0 z m -8.26136,-7.366224 c 0.14889,0.148888 0.14889,0.391924 0,0.540811 -0.14889,0.14889 -0.39192,0.14889 -0.54081,0 -0.14889,-0.148887 -0.14889,-0.391923 0,-0.540811 0.14889,-0.148888 0.39192,-0.148888 0.54081,0 z" style="fill: rgb(0, 0, 0); fill-opacity: 0.235495; stroke: none;"/>
      <path id="path4760" d="m 203.30138,41.954869 c -0.55913,-0.559132 -1.4101,-0.630315 -2.05135,-0.223784 l -6.19136,-6.191359 c 0.0787,-0.266108 0.0234,-0.573341 -0.18649,-0.783243 -0.21066,-0.210665 -0.51641,-0.26654 -0.78324,-0.186487 l -1.55717,-1.557164 -0.51283,0.512839 1.55716,1.557163 c -0.0855,0.269658 -0.0272,0.569527 0.18649,0.783244 0.21439,0.214392 0.52229,0.282515 0.79256,0.195812 l 6.18204,6.182033 c -0.40727,0.641362 -0.34497,1.501248 0.21446,2.060678 0.55943,0.559431 1.41931,0.621726 2.06068,0.21446 l 0.68067,0.680677 2.64811,2.125947 -2.13527,-2.638786 -0.68068,-0.680676 c 0.40653,-0.641254 0.33535,-1.492223 -0.22378,-2.051354 z m -0.45689,0.456892 c 0.39612,0.396124 0.39612,1.039824 0,1.435947 -0.39613,0.396125 -1.03983,0.396124 -1.43595,0 -0.39612,-0.396123 -0.39612,-1.039822 0,-1.435947 0.39612,-0.396124 1.03982,-0.396124 1.43595,0 z m -8.26136,-7.366224 c 0.14889,0.148888 0.14889,0.391923 0,0.540812 -0.14889,0.148888 -0.39193,0.148888 -0.54081,0 -0.14889,-0.148889 -0.14889,-0.391924 0,-0.540812 0.14888,-0.148888 0.39192,-0.148888 0.54081,0 z" style="fill: rgb(255, 0, 0); fill-opacity: 1; stroke: none;"/>
      <path transform="matrix(0.421971, 0, 0, 0.421971, 173.092, 14.13)" d="m 91.646191,50.368549 c 0,22.797012 -18.48063,41.277642 -41.277642,41.277642 -22.797011,0 -41.2776409,-18.48063 -41.2776409,-41.277642 0,-22.797011 18.4806299,-41.2776409 41.2776409,-41.2776409 22.797012,0 41.277642,18.4806299 41.277642,41.2776409 z" sodipodi:ry="41.277641" sodipodi:rx="41.277641" sodipodi:cy="50.368549" sodipodi:cx="50.368549" id="path4902" style="fill: url(#radialGradient4802) rgb(0, 0, 0); fill-opacity: 1; stroke: none;" sodipodi:type="arc"/>
      <path transform="matrix(0.426982, 0, 0, 0.426982, 172.84, 13.8776)" d="m 91.646191,50.368549 c 0,22.797012 -18.48063,41.277642 -41.277642,41.277642 -22.797011,0 -41.2776409,-18.48063 -41.2776409,-41.277642 0,-22.797011 18.4806299,-41.2776409 41.2776409,-41.2776409 22.797012,0 41.277642,18.4806299 41.277642,41.2776409 z" sodipodi:ry="41.277641" sodipodi:rx="41.277641" sodipodi:cy="50.368549" sodipodi:cx="50.368549" id="path2916" style="fill: url(#radialGradient4804) rgb(0, 0, 0); fill-opacity: 1; stroke: none;" sodipodi:type="arc"/>
      <path sodipodi:nodetypes="cscsc" id="path5461" d="m 210.47468,41.901023 c -2.58171,6.389627 -8.84238,10.905317 -16.15358,10.905319 -3.43608,0 -6.63623,-1.009875 -9.33611,-2.729627 2.07878,0.487403 4.31573,0.751637 6.64604,0.751637 8.7488,-1e-6 16.1759,-3.734569 18.84365,-8.927329 z" style="opacity: 0.55137; fill: url(#linearGradient4978) rgb(0, 0, 0); fill-opacity: 1; stroke: none;"/>
    </g>
    <path style="fill: rgb(77, 77, 77); fill-opacity: 1; stroke: none; filter: url(#filter3711);" d="m 0.14101882,28.676495 -0.0243864,2.925285 c 0,0.674384 0.85161657,0.329492 1.90945458,0.329492 l 27.687089,0 c 1.057838,0 2.063198,0.344892 2.063198,-0.329492 l 0,-2.740611" id="path3703" sodipodi:nodetypes="cccccc"/>
    <path sodipodi:nodetypes="cccccc" id="path2941" d="m 0.13576424,32.118041 -0.024254,-2.456172 c 0,-0.566237 0.84699345,-0.276654 1.89908886,-0.276654 l 27.5367869,0 c 1.052097,0 2.051998,-0.289583 2.051998,0.276654 l 0,2.301114" style="fill: rgb(128, 128, 128); fill-opacity: 1; stroke: none;"/>
    <rect style="fill: rgb(0, 0, 0); fill-opacity: 1; stroke: rgb(52, 47, 23); stroke-opacity: 1; stroke-width: 0.4; stroke-miterlimit: 4; stroke-dasharray: none;" id="rect3705" width="2.2764001" height="1.7300642" x="0.72844803" y="29.7236"/>
    <rect y="29.820169" x="4.3762016" height="1.5369251" width="5.6344452" id="rect3707" style="fill: rgb(77, 77, 77); fill-opacity: 1; stroke: rgb(52, 47, 23); stroke-width: 0.593139; stroke-miterlimit: 4; stroke-opacity: 1; stroke-dasharray: none;" ry="0.45528004"/>
    <rect style="fill: rgb(77, 77, 77); fill-opacity: 1; stroke: rgb(52, 47, 23); stroke-width: 0.593139; stroke-miterlimit: 4; stroke-opacity: 1; stroke-dasharray: none;" id="rect3709" width="5.6344452" height="1.5369251" x="11.02329" y="29.820169" ry="0.54633605"/>
    <rect ry="0" y="0.80353594" x="0.76419336" height="1.4764606" width="7.121933" id="rect3711" style="fill: rgb(77, 77, 77); fill-opacity: 1; stroke: rgb(52, 47, 23); stroke-width: 0.653604; stroke-miterlimit: 4; stroke-opacity: 1; stroke-dasharray: none;"/>
    <rect style="fill: rgb(77, 77, 77); fill-opacity: 1; stroke: rgb(52, 47, 23); stroke-width: 0.4; stroke-miterlimit: 4; stroke-opacity: 1; stroke-dasharray: none;" id="rect2901" width="5.9148374" height="2.45471" x="25.770748" y="0.31441125" ry="0"/>
    <rect ry="0.54633605" y="29.820169" x="18.034601" height="1.5369251" width="5.6344452" id="rect2903" style="fill: rgb(77, 77, 77); fill-opacity: 1; stroke: rgb(52, 47, 23); stroke-width: 0.593139; stroke-miterlimit: 4; stroke-opacity: 1; stroke-dasharray: none;"/>
    <rect style="fill: rgb(77, 77, 77); fill-opacity: 1; stroke: rgb(52, 47, 23); stroke-width: 0.593139; stroke-miterlimit: 4; stroke-opacity: 1; stroke-dasharray: none;" id="rect2905" width="5.6344452" height="1.5369251" x="25.045914" y="29.820169" ry="0.54633605"/>
    <g id="g4219" transform="matrix(1.06613, 0, 0, 1.06613, -34.2543, -1.03904)">
      <path d="m 47.582365,6.0735981 7.355447,2.704146 -9.064515,3.5899479 -6.662241,-3.7411522 8.371309,-2.5529417 z" id="path2434" style="fill: rgb(236, 236, 236); fill-rule: evenodd; stroke: none;"/>
      <path d="M 39.226923,8.6371996 45.968246,12.387654 46.49924,22.596668 40.223879,17.609806 39.226923,8.6371996 z" id="path2420" style="fill: rgb(179, 179, 179); fill-opacity: 1; fill-rule: evenodd; stroke: none;"/>
      <path d="m 54.940852,8.779622 -9.067555,3.560558 0.617164,10.254407 7.880701,-4.415092 0.56969,-9.399873 z" id="path2404" style="fill: rgb(128, 128, 128); fill-opacity: 1; fill-rule: evenodd; stroke: none;"/>
    </g>
  </g>
</svg>