<?xml version="1.0" encoding="UTF-8" standalone="no"?>
<!-- Created with Inkscape (http://www.inkscape.org/) -->

<svg
   xmlns:dc="http://purl.org/dc/elements/1.1/"
   xmlns:cc="http://creativecommons.org/ns#"
   xmlns:rdf="http://www.w3.org/1999/02/22-rdf-syntax-ns#"
   xmlns:svg="http://www.w3.org/2000/svg"
   xmlns="http://www.w3.org/2000/svg"
   xmlns:xlink="http://www.w3.org/1999/xlink"
   xmlns:sodipodi="http://sodipodi.sourceforge.net/DTD/sodipodi-0.dtd"
   xmlns:inkscape="http://www.inkscape.org/namespaces/inkscape"
   inkscape:export-ydpi="90.000000"
   inkscape:export-xdpi="90.000000"
   inkscape:export-filename="/home/jimmac/Desktop/wi-fi.png"
   width="32"
   height="32"
   id="svg11300"
   sodipodi:version="0.32"
   inkscape:version="0.46+devel r21776"
   sodipodi:docname="plugin-fireflies.svg"
   inkscape:output_extension="org.inkscape.output.svg.inkscape"
   version="1.0">
  <defs
     id="defs3">
    <linearGradient
       id="linearGradient2257">
      <stop
         id="stop2259"
         offset="0"
         style="stop-color:#ef2929" />
      <stop
         id="stop2261"
         offset="1"
         style="stop-color:#cc0000" />
    </linearGradient>
    <radialGradient
       inkscape:collect="always"
       xlink:href="#linearGradient2257"
       id="radialGradient2985"
       gradientUnits="userSpaceOnUse"
       gradientTransform="matrix(2.365562,0,0,2.202845,-30.72517,-34.23996)"
       cx="22.5"
       cy="28.116049"
       fx="22.5"
       fy="28.116049"
       r="14.537862" />
  </defs>
  <sodipodi:namedview
     stroke="#ef2929"
     fill="#eeeeec"
     id="base"
     pagecolor="#ffffff"
     bordercolor="#666666"
     borderopacity="0.25490196"
     inkscape:pageopacity="0.0"
     inkscape:pageshadow="2"
     inkscape:zoom="14.21875"
     inkscape:cx="16"
     inkscape:cy="15.859341"
     inkscape:current-layer="layer1"
     showgrid="false"
     inkscape:grid-bbox="true"
     inkscape:document-units="px"
     inkscape:showpageshadow="false"
     inkscape:window-width="1280"
     inkscape:window-height="710"
     inkscape:window-x="0"
     inkscape:window-y="49"
     showguides="true"
     inkscape:guide-bbox="true"
     inkscape:window-maximized="0" />
  <metadata
     id="metadata4">
    <rdf:RDF>
      <cc:Work
         rdf:about="">
        <dc:format>image/svg+xml</dc:format>
        <dc:type
           rdf:resource="http://purl.org/dc/dcmitype/StillImage" />
        <dc:creator>
          <cc:Agent>
            <dc:title>Jakub Steiner</dc:title>
          </cc:Agent>
        </dc:creator>
        <dc:source>http://jimmac.musichall.cz</dc:source>
        <cc:license
           rdf:resource="http://creativecommons.org/licenses/by-sa/2.0/" />
        <dc:title />
        <dc:subject>
          <rdf:Bag>
            <rdf:li>window</rdf:li>
            <rdf:li>manager</rdf:li>
            <rdf:li>decoration</rdf:li>
            <rdf:li>behavior</rdf:li>
          </rdf:Bag>
        </dc:subject>
      </cc:Work>
      <cc:License
         rdf:about="http://creativecommons.org/licenses/by-sa/2.0/">
        <cc:permits
           rdf:resource="http://web.resource.org/cc/Reproduction" />
        <cc:permits
           rdf:resource="http://web.resource.org/cc/Distribution" />
        <cc:requires
           rdf:resource="http://web.resource.org/cc/Notice" />
        <cc:requires
           rdf:resource="http://web.resource.org/cc/Attribution" />
        <cc:permits
           rdf:resource="http://web.resource.org/cc/DerivativeWorks" />
        <cc:requires
           rdf:resource="http://web.resource.org/cc/ShareAlike" />
      </cc:License>
    </rdf:RDF>
  </metadata>
  <g
     id="layer1"
     inkscape:label="Layer 1"
     inkscape:groupmode="layer">
    <path
       sodipodi:type="arc"
       style="fill:url(#radialGradient2985);fill-opacity:1;fill-rule:evenodd;stroke:#cc0000;stroke-width:1.24981844;stroke-linecap:square;stroke-linejoin:round;stroke-miterlimit:4;stroke-opacity:1;stroke-dasharray:none;stroke-dashoffset:0;marker:none;visibility:visible;display:inline;overflow:visible"
       id="path2525"
       sodipodi:cx="22.5"
       sodipodi:cy="22"
       sodipodi:rx="14"
       sodipodi:ry="13"
       d="m 36.5,22 a 14,13 0 1 1 -28,0 14,13 0 1 1 28,0 z"
       transform="matrix(0.13688917,0,0,0.14741929,6.9100475,13.382778)" />
    <g
       style="opacity:0.18999999"
       transform="matrix(1.5650552,0,0,1.5650552,-56.954827,-17.312443)"
       id="g2210" />
    <path
       transform="matrix(0.13688917,0,0,0.14741929,15.490267,13.804756)"
       d="m 36.5,22 a 14,13 0 1 1 -28,0 14,13 0 1 1 28,0 z"
       sodipodi:ry="13"
       sodipodi:rx="14"
       sodipodi:cy="22"
       sodipodi:cx="22.5"
       id="path3019"
       style="fill:#0000ff;fill-opacity:1;fill-rule:evenodd;stroke:#cc0000;stroke-width:1.24981844;stroke-linecap:square;stroke-linejoin:round;stroke-miterlimit:4;stroke-opacity:1;stroke-dasharray:none;stroke-dashoffset:0;marker:none;visibility:visible;display:inline;overflow:visible"
       sodipodi:type="arc" />
    <path
       transform="matrix(0.13688917,0,0,0.14741929,13.872684,2.6223381)"
       d="m 36.5,22 a 14,13 0 1 1 -28,0 14,13 0 1 1 28,0 z"
       sodipodi:ry="13"
       sodipodi:rx="14"
       sodipodi:cy="22"
       sodipodi:cx="22.5"
       id="path3021"
       style="fill:#ffff00;fill-opacity:1;fill-rule:evenodd;stroke:#cc0000;stroke-width:1.24981844;stroke-linecap:square;stroke-linejoin:round;stroke-miterlimit:4;stroke-opacity:1;stroke-dasharray:none;stroke-dashoffset:0;marker:none;visibility:visible;display:inline;overflow:visible"
       sodipodi:type="arc" />
    <path
       transform="matrix(0.13688917,0,0,0.14741929,26.110047,22.525636)"
       d="m 36.5,22 a 14,13 0 1 1 -28,0 14,13 0 1 1 28,0 z"
       sodipodi:ry="13"
       sodipodi:rx="14"
       sodipodi:cy="22"
       sodipodi:cx="22.5"
       id="path3023"
       style="fill:#aa0000;fill-opacity:1;fill-rule:evenodd;stroke:#cc0000;stroke-width:1.24981844;stroke-linecap:square;stroke-linejoin:round;stroke-miterlimit:4;stroke-opacity:1;stroke-dasharray:none;stroke-dashoffset:0;marker:none;visibility:visible;display:inline;overflow:visible"
       sodipodi:type="arc" />
    <path
       sodipodi:type="arc"
       style="fill:#ff0000;fill-opacity:1;fill-rule:evenodd;stroke:#cc0000;stroke-width:1.24981844;stroke-linecap:square;stroke-linejoin:round;stroke-miterlimit:4;stroke-opacity:1;stroke-dasharray:none;stroke-dashoffset:0;marker:none;visibility:visible;display:inline;overflow:visible"
       id="path3025"
       sodipodi:cx="22.5"
       sodipodi:cy="22"
       sodipodi:rx="14"
       sodipodi:ry="13"
       d="m 36.5,22 a 14,13 0 1 1 -28,0 14,13 0 1 1 28,0 z"
       transform="matrix(0.13688917,0,0,0.14741929,21.538619,9.5849756)" />
    <path
       transform="matrix(0.13688917,0,0,0.14741929,17.459499,19.712448)"
       d="m 36.5,22 a 14,13 0 1 1 -28,0 14,13 0 1 1 28,0 z"
       sodipodi:ry="13"
       sodipodi:rx="14"
       sodipodi:cy="22"
       sodipodi:cx="22.5"
       id="path3027"
       style="fill:#ff00ff;fill-opacity:1;fill-rule:evenodd;stroke:#cc0000;stroke-width:1.24981844;stroke-linecap:square;stroke-linejoin:round;stroke-miterlimit:4;stroke-opacity:1;stroke-dasharray:none;stroke-dashoffset:0;marker:none;visibility:visible;display:inline;overflow:visible"
       sodipodi:type="arc" />
    <path
       sodipodi:type="arc"
       style="fill:#aaccff;fill-opacity:1;fill-rule:evenodd;stroke:#cc0000;stroke-width:1.24981844;stroke-linecap:square;stroke-linejoin:round;stroke-miterlimit:4;stroke-opacity:1;stroke-dasharray:none;stroke-dashoffset:0;marker:none;visibility:visible;display:inline;overflow:visible"
       id="path3029"
       sodipodi:cx="22.5"
       sodipodi:cy="22"
       sodipodi:rx="14"
       sodipodi:ry="13"
       d="m 36.5,22 a 14,13 0 1 1 -28,0 14,13 0 1 1 28,0 z"
       transform="matrix(0.13688917,0,0,0.14741929,20.343015,3.044316)" />
    <path
       transform="matrix(0.13688917,0,0,0.14741929,0.43971762,9.5146455)"
       d="m 36.5,22 a 14,13 0 1 1 -28,0 14,13 0 1 1 28,0 z"
       sodipodi:ry="13"
       sodipodi:rx="14"
       sodipodi:cy="22"
       sodipodi:cx="22.5"
       id="path3031"
       style="fill:#3771c8;fill-opacity:1;fill-rule:evenodd;stroke:#cc0000;stroke-width:1.24981844;stroke-linecap:square;stroke-linejoin:round;stroke-miterlimit:4;stroke-opacity:1;stroke-dasharray:none;stroke-dashoffset:0;marker:none;visibility:visible;display:inline;overflow:visible"
       sodipodi:type="arc" />
    <path
       sodipodi:type="arc"
       style="fill:#66ff00;fill-opacity:1;fill-rule:evenodd;stroke:#cc0000;stroke-width:1.24981844;stroke-linecap:square;stroke-linejoin:round;stroke-miterlimit:4;stroke-opacity:1;stroke-dasharray:none;stroke-dashoffset:0;marker:none;visibility:visible;display:inline;overflow:visible"
       id="path3033"
       sodipodi:cx="22.5"
       sodipodi:cy="22"
       sodipodi:rx="14"
       sodipodi:ry="13"
       d="m 36.5,22 a 14,13 0 1 1 -28,0 14,13 0 1 1 28,0 z"
       transform="matrix(0.13688917,0,0,0.14741929,8.2463113,7.0531063)" />
    <path
       transform="matrix(0.13688917,0,0,0.14741929,6.2770804,19.853107)"
       d="m 36.5,22 a 14,13 0 1 1 -28,0 14,13 0 1 1 28,0 z"
       sodipodi:ry="13"
       sodipodi:rx="14"
       sodipodi:cy="22"
       sodipodi:cx="22.5"
       id="path3035"
       style="fill:#ccff00;fill-opacity:1;fill-rule:evenodd;stroke:#cc0000;stroke-width:1.24981844;stroke-linecap:square;stroke-linejoin:round;stroke-miterlimit:4;stroke-opacity:1;stroke-dasharray:none;stroke-dashoffset:0;marker:none;visibility:visible;display:inline;overflow:visible"
       sodipodi:type="arc" />
    <path
       sodipodi:type="arc"
       style="fill:#de8787;fill-opacity:1;fill-rule:evenodd;stroke:#cc0000;stroke-width:1.24981844;stroke-linecap:square;stroke-linejoin:round;stroke-miterlimit:4;stroke-opacity:1;stroke-dasharray:none;stroke-dashoffset:0;marker:none;visibility:visible;display:inline;overflow:visible"
       id="path3037"
       sodipodi:cx="22.5"
       sodipodi:cy="22"
       sodipodi:rx="14"
       sodipodi:ry="13"
       d="m 36.5,22 a 14,13 0 1 1 -28,0 14,13 0 1 1 28,0 z"
       transform="matrix(0.13688917,0,0,0.14741929,1.3540037,1.0750855)" />
    <path
       sodipodi:type="arc"
       style="fill:#ffff00;fill-opacity:1;fill-rule:evenodd;stroke:#cc0000;stroke-width:1.24981844;stroke-linecap:square;stroke-linejoin:round;stroke-miterlimit:4;stroke-opacity:1;stroke-dasharray:none;stroke-dashoffset:0;marker:none;visibility:visible;display:inline;overflow:visible"
       id="path3039"
       sodipodi:cx="22.5"
       sodipodi:cy="22"
       sodipodi:rx="14"
       sodipodi:ry="13"
       d="m 36.5,22 a 14,13 0 1 1 -28,0 14,13 0 1 1 28,0 z"
       transform="matrix(0.13688917,0,0,0.14741929,23.1562,16.547612)" />
    <path
       transform="matrix(0.13688917,0,0,0.14741929,11.762794,24.002557)"
       d="m 36.5,22 a 14,13 0 1 1 -28,0 14,13 0 1 1 28,0 z"
       sodipodi:ry="13"
       sodipodi:rx="14"
       sodipodi:cy="22"
       sodipodi:cx="22.5"
       id="path3041"
       style="fill:#66ff00;fill-opacity:1;fill-rule:evenodd;stroke:#cc0000;stroke-width:1.24981844;stroke-linecap:square;stroke-linejoin:round;stroke-miterlimit:4;stroke-opacity:1;stroke-dasharray:none;stroke-dashoffset:0;marker:none;visibility:visible;display:inline;overflow:visible"
       sodipodi:type="arc" />
  </g>
</svg>
