<?xml version="1.0" encoding="UTF-8" standalone="no"?>
<!-- Created with Inkscape (http://www.inkscape.org/) -->

<svg
   xmlns:dc="http://purl.org/dc/elements/1.1/"
   xmlns:cc="http://creativecommons.org/ns#"
   xmlns:rdf="http://www.w3.org/1999/02/22-rdf-syntax-ns#"
   xmlns:svg="http://www.w3.org/2000/svg"
   xmlns="http://www.w3.org/2000/svg"
   xmlns:xlink="http://www.w3.org/1999/xlink"
   xmlns:sodipodi="http://sodipodi.sourceforge.net/DTD/sodipodi-0.dtd"
   xmlns:inkscape="http://www.inkscape.org/namespaces/inkscape"
   inkscape:export-ydpi="90.000000"
   inkscape:export-xdpi="90.000000"
   inkscape:export-filename="/home/jimmac/Desktop/wi-fi.png"
   width="32"
   height="32"
   id="svg11300"
   sodipodi:version="0.32"
   inkscape:version="0.46+devel r21776"
   sodipodi:docname="plugin-elements.svg"
   inkscape:output_extension="org.inkscape.output.svg.inkscape"
   version="1.0">
  <defs
     id="defs3">
    <linearGradient
       inkscape:collect="always"
       id="linearGradient4251">
      <stop
         style="stop-color:#ffffff;stop-opacity:1;"
         offset="0"
         id="stop4253" />
      <stop
         style="stop-color:#ffffff;stop-opacity:0;"
         offset="1"
         id="stop4255" />
    </linearGradient>
    <radialGradient
       cx="244.16666"
       cy="240.42361"
       fx="244.16666"
       fy="240.42361"
       id="radialGradient592"
       r="289.15918"
       xlink:href="#linearGradient588"
       gradientTransform="scale(1.1068056,0.90350104)"
       gradientUnits="userSpaceOnUse" />
    <linearGradient
       id="linearGradient588">
      <stop
         id="stop589"
         offset="0"
         style="stop-color: rgb(191, 103, 15); stop-opacity: 0.9804;" />
      <stop
         id="stop590"
         offset="1"
         style="stop-color: rgb(199, 226, 15); stop-opacity: 1;" />
    </linearGradient>
    <linearGradient
       id="linearGradient5254">
      <stop
         style="stop-color: rgb(255, 26, 26); stop-opacity: 1;"
         offset="0"
         id="stop5256" />
      <stop
         style="stop-color: rgb(141, 0, 0); stop-opacity: 1;"
         offset="1"
         id="stop5258" />
    </linearGradient>
    <linearGradient
       id="linearGradient5264">
      <stop
         id="stop5266"
         offset="0"
         style="stop-color: rgb(255, 119, 119); stop-opacity: 1;" />
      <stop
         id="stop5268"
         offset="1"
         style="stop-color: rgb(255, 8, 8); stop-opacity: 1;" />
    </linearGradient>
    <radialGradient
       inkscape:collect="always"
       xlink:href="#linearGradient5264"
       id="radialGradient7350"
       gradientUnits="userSpaceOnUse"
       gradientTransform="matrix(-0.33045,-3.31071,3.94652,-0.393912,-135.737,245.108)"
       cx="56.40527"
       cy="49.697388"
       fx="56.40527"
       fy="49.697388"
       r="13.828125" />
    <radialGradient
       inkscape:collect="always"
       xlink:href="#linearGradient5264"
       id="radialGradient3474"
       gradientUnits="userSpaceOnUse"
       gradientTransform="matrix(0.1847381,0.28765602,-0.38502531,0.24727223,33.854288,-4.1650757)"
       cx="56.39016"
       cy="50.901066"
       fx="56.39016"
       fy="50.901066"
       r="22.515625" />
    <radialGradient
       inkscape:collect="always"
       xlink:href="#linearGradient5254"
       id="radialGradient3477"
       gradientUnits="userSpaceOnUse"
       gradientTransform="matrix(0.22934469,-0.26044345,0.248661,0.21896669,-4.092504,24.13724)"
       cx="46.652752"
       cy="77.982826"
       fx="46.652752"
       fy="77.982826"
       r="40.027294" />
    <radialGradient
       inkscape:collect="always"
       xlink:href="#linearGradient4251"
       id="radialGradient4257"
       cx="21.998898"
       cy="22.627432"
       fx="21.998898"
       fy="22.627432"
       r="2.182228"
       gradientTransform="matrix(1.8647026,1.9620171e-7,-2.8950812e-7,2.7514877,-19.022499,-39.631673)"
       gradientUnits="userSpaceOnUse" />
    <linearGradient
       id="linearGradient4113">
      <stop
         style="stop-color: rgb(205, 242, 255); stop-opacity: 1;"
         offset="0"
         id="stop4115" />
      <stop
         style="stop-color: rgb(234, 255, 255); stop-opacity: 1;"
         offset="1"
         id="stop4117" />
    </linearGradient>
    <linearGradient
       id="linearGradient5090">
      <stop
         style="stop-color: rgb(60, 60, 60); stop-opacity: 1;"
         offset="0"
         id="stop5092" />
      <stop
         style="stop-color: rgb(166, 166, 166); stop-opacity: 1;"
         offset="1"
         id="stop5094" />
    </linearGradient>
    <linearGradient
       id="linearGradient1545">
      <stop
         id="stop1546"
         offset="0.0000000"
         style="stop-color: rgb(255, 255, 255); stop-opacity: 1;" />
      <stop
         id="stop1547"
         offset="1.0000000"
         style="stop-color: rgb(255, 255, 255); stop-opacity: 0;" />
    </linearGradient>
    <radialGradient
       inkscape:collect="always"
       xlink:href="#linearGradient4113"
       id="radialGradient4602"
       gradientUnits="userSpaceOnUse"
       gradientTransform="matrix(0.01051954,-0.04632686,0.04297559,0.00975858,-7.673338,37.008364)"
       cx="386.99893"
       cy="315.25943"
       fx="386.99893"
       fy="315.25943"
       r="164.9557" />
    <linearGradient
       inkscape:collect="always"
       xlink:href="#linearGradient5090"
       id="linearGradient4604"
       gradientUnits="userSpaceOnUse"
       gradientTransform="matrix(0.01051954,-0.04632686,0.04632686,0.01051954,-8.7298642,36.768457)"
       x1="222.04323"
       y1="315.25943"
       x2="551.95465"
       y2="315.25943" />
    <radialGradient
       inkscape:collect="always"
       xlink:href="#linearGradient1545"
       id="radialGradient4606"
       gradientUnits="userSpaceOnUse"
       gradientTransform="scale(1.2876969,0.77658027)"
       spreadMethod="reflect"
       cx="245.4164"
       cy="397.94611"
       fx="245.4164"
       fy="397.94611"
       r="184.67943" />
    <radialGradient
       inkscape:collect="always"
       xlink:href="#linearGradient1545"
       id="radialGradient4608"
       gradientUnits="userSpaceOnUse"
       gradientTransform="matrix(0.86464245,0,0,0.55506494,117.875,53.284)"
       spreadMethod="reflect"
       cx="245.41574"
       cy="397.96106"
       fx="245.41574"
       fy="397.96106"
       r="184.67136" />
  </defs>
  <sodipodi:namedview
     stroke="#ef2929"
     fill="#eeeeec"
     id="base"
     pagecolor="#ffffff"
     bordercolor="#666666"
     borderopacity="0.25490196"
     inkscape:pageopacity="0.0"
     inkscape:pageshadow="2"
     inkscape:zoom="12.71875"
     inkscape:cx="16"
     inkscape:cy="15.842752"
     inkscape:current-layer="layer1"
     showgrid="false"
     inkscape:grid-bbox="true"
     inkscape:document-units="px"
     inkscape:showpageshadow="false"
     inkscape:window-width="1052"
     inkscape:window-height="662"
     inkscape:window-x="171"
     inkscape:window-y="87"
     inkscape:window-maximized="0">
    <inkscape:grid
       type="xygrid"
       id="grid7916"
       empspacing="5"
       visible="true"
       enabled="true"
       snapvisiblegridlinesonly="true" />
  </sodipodi:namedview>
  <metadata
     id="metadata4">
    <rdf:RDF>
      <cc:Work
         rdf:about="">
        <dc:format>image/svg+xml</dc:format>
        <dc:type
           rdf:resource="http://purl.org/dc/dcmitype/StillImage" />
        <dc:creator>
          <cc:Agent>
            <dc:title>Jakub Steiner</dc:title>
          </cc:Agent>
        </dc:creator>
        <dc:source>http://jimmac.musichall.cz</dc:source>
        <cc:license
           rdf:resource="http://creativecommons.org/licenses/by-sa/2.0/" />
        <dc:title />
        <dc:subject>
          <rdf:Bag>
            <rdf:li>window</rdf:li>
            <rdf:li>manager</rdf:li>
            <rdf:li>decoration</rdf:li>
            <rdf:li>behavior</rdf:li>
          </rdf:Bag>
        </dc:subject>
      </cc:Work>
      <cc:License
         rdf:about="http://creativecommons.org/licenses/by-sa/2.0/">
        <cc:permits
           rdf:resource="http://web.resource.org/cc/Reproduction" />
        <cc:permits
           rdf:resource="http://web.resource.org/cc/Distribution" />
        <cc:requires
           rdf:resource="http://web.resource.org/cc/Notice" />
        <cc:requires
           rdf:resource="http://web.resource.org/cc/Attribution" />
        <cc:permits
           rdf:resource="http://web.resource.org/cc/DerivativeWorks" />
        <cc:requires
           rdf:resource="http://web.resource.org/cc/ShareAlike" />
      </cc:License>
    </rdf:RDF>
  </metadata>
  <g
     id="layer1"
     inkscape:label="Layer 1"
     inkscape:groupmode="layer">
    <g
       id="g4520"
       transform="matrix(0.0411281,-0.00971428,0.00971428,0.0411281,5.5021439,-2.6460796)">
      <path
         style="fill:#ffa100;fill-opacity:0.75;fill-rule:evenodd;stroke:#000000;stroke-width:2.23750043;stroke-linecap:butt;stroke-linejoin:miter;stroke-miterlimit:4;stroke-opacity:1"
         sodipodi:nodetypes="ccccccccccc"
         id="path914"
         d="m 548.17826,299.47421 -85.96261,83.19003 20.1399,130.13831 -111.42745,-57.6756 -110.04709,60.60438 17.09666,-130.63073 -88.15274,-84.46134 121.99376,0.1711 55.56571,-117.17236 58.29962,115.66661 122.49424,0.1696 z" />
      <path
         style="fill:#ffd800;fill-opacity:0.75;fill-rule:evenodd;stroke:none"
         sodipodi:nodetypes="ccccccccccc"
         id="path1538"
         d="m 516.59095,313.41906 -70.80824,64.35613 16.58943,103.79469 -91.78386,-46.00045 -90.64686,48.33636 14.08269,-104.18743 -72.61227,-65.37008 100.48745,0.13646 45.77,-95.44734 48.02197,94.2464 100.89969,0.13526 z" />
      <path
         style="fill:#ffe500;fill-opacity:0.75;fill-rule:evenodd;stroke:none"
         sodipodi:nodetypes="ccccccccccc"
         id="path1539"
         d="m 484.92986,321.34226 -55.61837,50.95606 13.03064,82.18284 -72.09428,-36.42236 -71.20117,38.27189 11.06165,-82.4938 -57.0354,-51.75889 78.93076,0.10805 35.95137,-75.57355 37.72023,74.62266 79.25457,0.1071 z" />
      <path
         xlink:href="#path1540"
         transform="matrix(0.671459,0,0,0.714761,102.875,103.284)"
         style="fill:url(#radialGradient4606);fill-opacity:1;fill-rule:evenodd;stroke:none"
         sodipodi:type="inkscape:offset"
         inkscape:radius="0"
         inkscape:original="M 367.96875 246.625 L 332 322.1875 L 253.0625 322.0625 L 310.375 370.0625 L 373.59375 382.3125 L 429.3125 372.3125 L 464.46875 322.84375 L 405.6875 321.25 L 367.96875 246.625 z "
         inkscape:href="#path1540"
         id="path1548"
         d="M 367.96875,246.625 332,322.1875 l -78.9375,-0.125 57.3125,48 63.21875,12.25 55.71875,-10 35.15625,-49.46875 L 405.6875,321.25 367.96875,246.625 z" />
      <path
         style="fill:url(#radialGradient4608);fill-opacity:1;fill-rule:evenodd;stroke:none"
         sodipodi:nodetypes="ccccccccc"
         id="path1540"
         d="m 464.47001,322.85781 -35.15852,49.44051 -55.70634,10.02243 -63.21824,-12.27272 -57.31398,-47.97003 78.93076,0.10805 35.95137,-75.57355 37.72023,74.62266 58.79472,1.62265 z" />
    </g>
    <g
       id="g575"
       transform="matrix(0.03266644,0,0,0.03266644,0.31573578,0.55229143)">
      <path
         d="m 22.32591,44.81529 c 47.29254,3.36083 142.11769,67.93791 167.80449,96.50551 9.3625,51.8538 -61.9364,86.4229 -103.70751,118.8315 -10.56279,10.0826 -16.08427,21.6057 -12.24324,38.8903 4.32115,10.0826 16.56438,15.124 27.36725,17.2845 19.9253,8.4024 65.7774,-8.4022 86.4229,-12.9633 19.2051,32.6487 38.4101,100.5867 81.3815,129.6343 28.8076,-6.2416 48.2528,-39.1303 66.9778,-70.5787 66.0175,26.407 131.3148,31.9285 191.5707,57.6153 4.5613,0.4801 7.682,-5.5214 2.8808,-9.3625 -20.1654,-48.9729 -23.0461,-99.3863 -49.6932,-149.0794 -9.3624,-20.8856 -27.3672,-34.5693 -49.6931,-47.5327 42.4912,-28.5675 70.5787,-48.4929 71.2988,-74.8998 C 480.3672,112.2733 397.5453,94.02832 344.9714,86.58638 344.0111,61.1396 348.0922,33.53233 320.4849,14.56734 300.0795,14.32732 286.1557,24.16985 275.8331,40.49423 257.1081,74.8233 233.3418,122.8359 203.0938,127.6372 144.7583,88.02681 89.30364,54.89792 25.92687,23.92982 20.40541,27.29065 18.4849,36.41312 22.32591,44.81529 z"
         id="path587"
         sodipodi:nodetypes="ccccccccccccccccccc"
         style="fill:url(#radialGradient592);fill-opacity:1;fill-rule:evenodd;stroke:#000000;stroke-width:1pt;stroke-linecap:butt;stroke-linejoin:miter;stroke-opacity:1" />
      <g
         id="g598"
         style="fill:url(#radialGradient7350);stroke:#009200;stroke-width:2.5;stroke-opacity:0.70980003;stroke-dasharray:none">
        <path
           d="m 201.6534,138.4401 c 49.213,-10.5628 122.9126,-80.18113 113.07,-98.66608"
           id="path593"
           sodipodi:nodetypes="cc"
           style="fill:none;stroke:#009200;stroke-width:2.5;stroke-linecap:butt;stroke-linejoin:miter;stroke-opacity:0.70980003;stroke-dasharray:none" />
        <path
           d="m 200.9332,137.7199 c 98.6661,24.7265 194.4515,20.6455 289.5167,5.0414"
           id="path594"
           sodipodi:nodetypes="cs"
           style="fill:none;stroke:#009200;stroke-width:2.5;stroke-linecap:butt;stroke-linejoin:miter;stroke-opacity:0.70980003;stroke-dasharray:none" />
        <path
           d="m 202.3736,138.4401 c 128.6741,78.2607 229.2607,160.1224 310.4022,262.8696"
           id="path595"
           sodipodi:nodetypes="cc"
           style="fill:none;stroke:#009200;stroke-width:2.5;stroke-linecap:butt;stroke-linejoin:miter;stroke-opacity:0.70980003;stroke-dasharray:none" />
        <path
           d="m 201.6534,138.4401 c 56.8951,88.8235 56.1749,179.8076 66.9778,270.7917"
           id="path596"
           sodipodi:nodetypes="cc"
           style="fill:none;stroke:#009200;stroke-width:2.5;stroke-linecap:butt;stroke-linejoin:miter;stroke-opacity:0.70980003;stroke-dasharray:none" />
        <path
           d="m 203.0938,137.7199 c -4.0811,85.4626 -56.415,134.9158 -111.62957,159.1622"
           id="path597"
           sodipodi:nodetypes="cc"
           style="fill:none;stroke:#009200;stroke-width:2.5;stroke-linecap:butt;stroke-linejoin:miter;stroke-opacity:0.70980003;stroke-dasharray:none" />
      </g>
    </g>
    <g
       id="g4259"
       transform="matrix(1.1440026,0,0,1.1440026,-3.8696274,-5.4200951)">
      <path
         id="path2160"
         d="m 30.566313,25.08108 c 0,3.013869 -2.633502,5.459906 -5.878353,5.459906 -3.24485,0 -5.878352,-2.446037 -5.878352,-5.459906 0,-3.013868 2.633502,-5.459906 5.878352,-5.459906 3.244851,0 5.878353,2.446038 5.878353,5.459906 z"
         style="fill:url(#radialGradient3477);fill-opacity:1;stroke:none"
         inkscape:export-xdpi="90"
         inkscape:export-ydpi="90" />
      <path
         id="path2162"
         d="m 27.80502,21.288504 c 0.885294,0.924409 1.425229,2.130332 1.425229,3.452112 1e-6,2.903868 -2.589967,5.262006 -5.779822,5.262006 -0.199366,0 -0.397605,-0.0067 -0.59179,-0.02466 0.359884,0.0558 0.730239,0.08384 1.109607,0.08384 3.310849,0 5.996812,-2.222304 5.996812,-4.961179 0,-1.532669 -0.838691,-2.901734 -2.160036,-3.812118 z"
         style="fill:url(#radialGradient3474);fill-opacity:1;stroke:none" />
      <path
         sodipodi:nodetypes="ccccccccccccccccccc"
         id="path2167"
         d="m 20.630382,22.117011 c 0.378566,-0.06253 0.761409,-0.0729 1.144129,-0.06904 0.304558,-0.508437 0.694908,-0.961353 1.153992,-1.336461 -1.199792,0.0844 -1.706224,0.709135 -2.298121,1.405503 z m 2.697579,-1.361118 c -0.448773,0.373581 -0.837258,0.818957 -1.144128,1.316734 0.327402,0.03418 0.649282,0.104324 0.96166,0.202195 0.19681,-0.546481 0.624741,-1.101071 1.035633,-1.469613 -0.401508,-0.09436 -0.53171,-0.108752 -0.853165,-0.04932 z m -2.96952,1.838778 c -0.268797,0.612371 -0.505486,1.170471 -0.541771,1.948682 0.40229,-0.07916 0.750345,-0.180197 1.182173,-0.240239 0.107019,-0.650496 0.261194,-1.214391 0.514294,-1.766918 -0.426387,-4.89e-4 -0.736941,-0.02215 -1.154696,0.05848 z m 1.573881,-0.05354 c -0.261922,0.53908 -0.438052,1.125093 -0.503022,1.745779 0.561608,-0.07233 0.942975,-0.101651 1.508361,-0.128926 -0.02277,-0.584985 0.01278,-0.950346 0.08454,-1.424524 -0.347323,-0.110157 -0.715099,-0.170384 -1.089881,-0.192332 z"
         style="fill:url(#radialGradient4257);fill-opacity:1;stroke:none" />
    </g>
    <path
       id="path1481"
       style="fill:url(#radialGradient4602);fill-opacity:1;stroke:url(#linearGradient4604);stroke-width:0.19477543;stroke-miterlimit:4;stroke-opacity:1;stroke-dasharray:none"
       d="m 16.346694,24.348423 c -0.61446,0.170528 -0.615584,0.170165 -0.933342,-0.301026 l -0.318145,-0.471761 0.536915,-0.190624 c 0.559718,-0.19872 0.904144,-0.0464 1.195981,0.528914 0.107624,0.212175 0.01347,0.297156 -0.481409,0.434497 z m 0.05218,-3.325813 c -0.868484,0.462016 -1.170446,0.542335 -1.552172,0.412876 -0.686868,-0.232941 -0.709865,-0.299905 -0.286963,-0.835619 0.337762,-0.427862 0.489807,-0.480704 1.305743,-0.453797 0.50791,0.01675 1.091722,0.03268 1.297368,0.0354 0.591857,0.0078 0.394976,0.224604 -0.763976,0.841137 z M 15.21398,27.665821 C 15.13864,27.648711 14.624704,27.358264 14.071897,27.020379 13.155932,26.460526 13.06063,26.350202 12.99724,25.776297 l -0.06956,-0.62975 0.665325,0.151155 c 0.597678,0.135789 0.713382,0.242564 1.137943,1.05011 0.559886,1.064945 0.668026,1.360017 0.483028,1.318009 z m 0.06963,-4.625795 -0.529317,0.48852 0.189965,0.748778 c 0.153676,0.605734 0.143568,0.765278 -0.05291,0.83514 -0.133584,0.0475 -0.297672,0.07507 -0.36464,0.06127 -0.110552,-0.02278 -0.494935,-0.994493 -0.530713,-1.341615 -0.0081,-0.07899 -0.447655,-0.266891 -0.976697,-0.417551 -0.529043,-0.150656 -1.103225,-0.396554 -1.275957,-0.546432 -0.307312,-0.266658 -0.306356,-0.275986 0.04437,-0.434151 0.269035,-0.121325 0.614887,-0.0791 1.386752,0.169313 l 1.028327,0.330954 0.562826,-0.538064 c 0.604439,-0.577841 0.730676,-0.610503 0.958952,-0.248101 0.190127,0.301841 0.183162,0.315935 -0.440953,0.891941 z m -0.817438,-0.823729 c -0.07028,0.04427 -0.489378,-0.04754 -0.931342,-0.204016 -0.523427,-0.185321 -0.855956,-0.231211 -0.953844,-0.131635 -0.186163,0.189369 -1.096053,4.26e-4 -1.046605,-0.21734 0.05576,-0.245543 0.785518,-0.655011 1.057366,-0.593283 0.137845,0.0313 0.44819,-0.226664 0.715675,-0.594887 0.428807,-0.590292 0.499135,-0.626852 0.76389,-0.397128 0.197871,0.171696 0.237156,0.330306 0.12222,0.493464 -0.349147,0.495626 -0.323893,0.705075 0.103106,0.855087 0.405162,0.142337 0.499521,0.581884 0.169534,0.789738 z m -0.946335,2.793479 c -0.154921,0.02233 -0.416728,0.0099 -0.581797,-0.02755 -0.257235,-0.05841 -0.291159,-0.0046 -0.237408,0.37677 0.07352,0.52159 -0.0726,0.719572 -0.465271,0.630407 -0.192864,-0.04379 -0.297331,-0.281594 -0.329082,-0.7491 -0.02912,-0.428776 -0.170658,-0.779472 -0.378446,-0.9377 -0.18256,-0.139018 -0.370887,-0.440845 -0.418503,-0.670729 -0.07878,-0.380349 -0.05071,-0.409828 0.311865,-0.327498 0.219141,0.04976 0.545749,0.243165 0.725794,0.429784 0.209023,0.216654 0.577498,0.375639 1.019335,0.43981 0.603225,0.08761 0.688339,0.145053 0.663585,0.447858 -0.01675,0.204882 -0.143933,0.364012 -0.310072,0.387953 z m 0.64133,-5.316064 -0.756889,-0.280731 -0.723651,0.745158 c -0.609156,0.627258 -1.246321,0.982412 -1.613086,0.89913 -0.115774,-0.02629 0.341699,-0.985532 0.502061,-1.052731 0.07094,-0.02973 0.376337,-0.287421 0.67866,-0.572651 l 0.549677,-0.518602 -0.145636,-0.792796 c -0.115543,-0.628992 -0.09743,-0.80996 0.08768,-0.875877 0.435087,-0.154938 0.582352,-0.01045 0.686423,0.673474 0.09757,0.641184 0.15112,0.699889 0.887717,0.973092 0.705934,0.261828 0.774943,0.330149 0.693912,0.687002 -0.08698,0.383041 -0.115235,0.386894 -0.846871,0.115532 z m 0.524491,-1.33786 c -0.74222,0.153735 -0.90832,0.03596 -0.775322,-0.549744 0.101468,-0.446857 0.208669,-0.550424 0.647399,-0.625471 0.609187,-0.104207 0.606685,-0.106654 0.582587,0.570083 -0.01553,0.436113 -0.08499,0.528565 -0.454664,0.605132 z m -2.718519,8.809004 c -0.752127,-0.278964 -0.756493,-0.278062 -1.334577,0.274583 -0.6339083,0.606016 -0.7485133,0.633993 -0.9521912,0.232464 -0.1078041,-0.212519 -0.021371,-0.382945 0.4151802,-0.818635 l 0.551327,-0.550243 -0.185506,-0.79598 c -0.102032,-0.437788 -0.242624,-0.808948 -0.312429,-0.824799 -0.06981,-0.01585 -0.07023,-0.278464 -9.47e-4,-0.583584 0.06928,-0.305119 0.179106,-0.541029 0.244049,-0.524245 0.291768,0.07541 0.658539,0.801374 0.830188,1.643229 0.155119,0.760791 0.256826,0.933758 0.595376,1.012522 0.791487,0.184134 1.082648,0.428353 0.991143,0.831331 -0.0834,0.367276 -0.118439,0.371581 -0.841615,0.103357 z m 0.03221,1.396107 c -0.18305,0.553469 -0.274958,0.572086 -0.810597,0.164203 -0.253397,-0.192958 -0.33327,-0.39855 -0.266321,-0.685512 0.159764,-0.684806 0.359215,-0.769835 0.827643,-0.352819 0.349558,0.311193 0.389328,0.450658 0.249275,0.874128 z m -0.183193,-9.673471 c -0.322125,0.244242 -0.627739,0.629289 -0.679141,0.855657 -0.0514,0.226366 -0.230532,0.526047 -0.398068,0.665951 -0.263654,0.220172 -0.318739,0.21755 -0.409709,-0.01951 -0.05781,-0.150635 -0.04998,-0.523882 0.0174,-0.829435 0.06738,-0.305553 0.02938,-0.80171 -0.08444,-1.102574 -0.254093,-0.671653 -0.214366,-0.897211 0.167718,-0.952273 0.195293,-0.02815 0.35881,0.100498 0.485498,0.381948 l 0.191029,0.424378 0.461136,-0.270748 c 0.438682,-0.257563 0.470226,-0.254354 0.647704,0.06589 0.171787,0.309972 0.140174,0.371808 -0.399121,0.780716 z m -1.179112,4.030476 c -0.231971,0.21114 -0.48922,0.263933 -0.8675163,0.178033 C 9.3354863,22.997441 9.1948233,22.863549 9.0402083,22.401777 8.8456184,21.82061 8.9004835,21.679649 9.5301805,21.142985 c 0.4214762,-0.359204 1.3225385,0.04815 1.4481715,0.654688 0.117911,0.569272 0.06183,0.753363 -0.341308,1.120295 z m 1.037747,-5.214773 c -0.415944,0.244217 -0.506563,0.247167 -0.593341,0.01933 -0.313391,-0.822822 -0.30102,-0.911779 0.253363,-1.822116 0.748948,-1.229817 0.946948,-1.416182 0.947919,-0.892228 0.0043,2.327472 0.0022,2.336766 -0.607941,2.695011 z m -2.0552304,8.975329 c -0.1831499,0.02639 -0.361823,-0.114341 -0.498992,-0.393035 l -0.2136753,-0.434146 -0.4390209,0.25776 c -0.3904762,0.229262 -0.4672995,0.22503 -0.6948097,-0.0383 -0.2477877,-0.286799 -0.2358802,-0.309101 0.380552,-0.712856 0.4310696,-0.282342 0.6713011,-0.570761 0.7447194,-0.894088 0.05961,-0.262517 0.2362916,-0.588615 0.392627,-0.724666 0.2752601,-0.239547 0.2875098,-0.235484 0.387509,0.128517 0.056795,0.206734 0.05115,0.612743 -0.01255,0.902242 -0.063698,0.289498 -0.016823,0.736346 0.1041656,0.993002 0.2706723,0.574175 0.223405,0.861683 -0.1505246,0.915568 z m -1.0761059,1.873141 c -0.3468438,0.553995 -0.6657961,1.029421 -0.7087826,1.056497 -0.1526544,0.09616 -0.064458,-2.470603 0.094184,-2.740973 0.088739,-0.151243 0.3217889,-0.365212 0.5178861,-0.475487 0.3381201,-0.190143 0.3682948,-0.172337 0.5841695,0.344742 0.2724767,0.65266 0.2965751,0.562922 -0.4874572,1.815221 z m 1.143174,-7.974639 C 9.3382928,20.497928 9.0430183,19.952755 8.8624592,19.055332 L 8.6518529,18.008587 7.880979,17.833542 C 7.1643856,17.670824 7.1164413,17.630598 7.200086,17.262236 c 0.084516,-0.372201 0.1405162,-0.384862 0.9224019,-0.208523 0.8048719,0.181522 0.8491996,0.169441 1.3393495,-0.365023 0.4385713,-0.478232 0.5437536,-0.520806 0.7800726,-0.315751 0.342289,0.297007 0.344499,0.289902 -0.3050813,0.982474 l -0.539595,0.575308 0.2737622,0.962397 c 0.2454508,0.862865 0.2535738,1.737937 0.015633,1.683908 z M 8.7450616,23.781133 C 8.6486566,23.943153 8.2592139,24.359268 7.87964,24.70583 l -0.6901326,0.630114 0.1787337,0.704508 c 0.2186584,0.861874 0.2229709,0.842357 -0.2125482,0.962002 -0.3142651,0.08634 -0.3762672,0.0061 -0.5408945,-0.700328 C 6.4325847,25.520287 6.4135937,25.500822 5.6679206,25.3315 4.9619276,25.171189 4.9134822,25.130102 4.9969657,24.762451 c 0.083864,-0.369328 0.1433224,-0.384146 0.8748866,-0.218028 0.7598039,0.17253 0.8065246,0.157821 1.4610511,-0.459951 0.7465149,-0.704595 1.1519576,-0.946828 1.4655701,-0.875616 0.2232146,0.05069 0.2169372,0.117926 -0.053412,0.572277 z M 8.6757336,21.014188 C 8.4983114,20.9739 8.1902659,20.772696 7.9911835,20.567062 7.7812242,20.350189 7.3274491,20.124663 6.9105945,20.030006 6.286026,19.888184 6.1959338,19.818641 6.2222957,19.498689 c 0.026524,-0.321906 0.1003426,-0.352235 0.5878748,-0.241531 0.5549397,0.126012 0.5572652,0.124122 0.497685,-0.40492 -0.047256,-0.419632 -0.00699,-0.550296 0.1912882,-0.620718 0.4519715,-0.160526 0.6233794,-0.01824 0.6196054,0.514348 -0.00204,0.288279 0.2118629,0.858912 0.4753451,1.268075 0.5360312,0.832411 0.5585687,1.108542 0.081639,1.000245 z M 8.34606,22.73461 C 8.276315,22.83529 7.9881279,22.97766 7.7056428,23.050984 7.4231576,23.124304 6.9827811,23.435259 6.7270245,23.741985 6.2359574,24.330911 6.149441,24.360394 5.8359225,24.045617 5.6761843,23.885239 5.6923268,23.780287 5.9234125,23.476824 6.2951745,22.988615 6.3010923,23.018 5.7818675,22.773882 5.4772104,22.630648 5.3518907,22.465373 5.3970699,22.266409 c 0.093897,-0.413512 0.2723662,-0.435743 0.9402507,-0.117134 0.4255164,0.202989 0.714381,0.243404 1.0734858,0.15019 0.5236514,-0.135923 1.1671052,-0.05645 1.1015639,0.136049 -0.021728,0.06382 -0.096569,0.198413 -0.1663103,0.299096 z M 8.122122,21.826487 C 7.9108786,21.848421 7.320958,21.749408 6.8111869,21.606463 5.9134036,21.354711 5.8648423,21.361319 5.263277,21.817047 4.8165555,22.15547 4.5711817,22.239853 4.3891177,22.117665 4.0466963,21.887859 4.110391,21.722655 4.7461925,21.191564 l 0.5411001,-0.451991 -0.2149061,-0.80102 c -0.1859705,-0.693166 -0.1782619,-0.814156 0.057254,-0.898559 0.4222674,-0.151328 0.463948,-0.108738 0.7369371,0.752945 l 0.2560405,0.808184 0.9828199,0.228473 c 1.2542421,0.291567 1.8819496,0.907056 1.0166844,0.996891 z M 8.8487869,16.693938 C 8.6966862,16.845197 8.595106,16.817114 8.2540079,16.529496 7.893009,16.225103 7.8664967,16.115139 8.037408,15.631212 c 0.2241194,-0.63458 0.2036915,-0.629884 0.7470456,-0.171727 0.4189847,0.353292 0.4451705,0.855722 0.064333,1.234453 z M 5.4417744,27.02421 c -0.3103893,0.05486 -0.5692532,0.08621 -0.5752499,0.06968 -0.006,-0.01653 -0.00241,-0.271027 0.00796,-0.565547 0.016623,-0.471702 0.080538,-0.551495 0.5365837,-0.669872 0.7567846,-0.196438 0.8646489,-0.121277 0.7227591,0.503589 -0.1099932,0.484399 -0.2059961,0.576255 -0.6920569,0.662151 z M 6.518663,18.960534 C 5.9377006,18.93854 5.8914331,18.893726 5.2381115,17.720197 4.8653151,17.05056 4.5928947,16.482146 4.6327298,16.457052 c 0.098263,-0.06189 2.032936,1.105887 2.2240762,1.342467 0.083898,0.10384 0.177754,0.412684 0.208571,0.68632 0.054126,0.480636 0.035583,0.496738 -0.546714,0.474695 z m -1.0880526,4.736973 c -0.3515035,0.361841 -0.545388,0.40464 -1.581853,0.349182 -0.6496849,-0.03477 -1.2589653,-0.08085 -1.3539497,-0.102422 -0.1706718,-0.03875 1.5903819,-1.090613 2.0918117,-1.249418 0.2829142,-0.0896 1.3125168,0.298327 1.2705463,0.478706 -0.014274,0.06136 -0.2062254,0.297139 -0.4265553,0.523952 z M 4.4872119,20.793966 C 3.8948749,21.014732 3.7077841,20.956949 3.3639072,20.447029 L 3.0763967,20.020698 3.6273218,19.836232 c 0.5414921,-0.181307 0.5576043,-0.176979 0.9412181,0.252772 0.2146603,0.240476 0.3851603,0.459834 0.3788872,0.487462 -0.00627,0.02763 -0.2133703,0.1255 -0.4602152,0.2175 z" />
  </g>
</svg>
