<?xml version="1.0" encoding="UTF-8" standalone="no"?>
<!-- Created with Inkscape (http://www.inkscape.org/) -->

<svg
   xmlns:dc="http://purl.org/dc/elements/1.1/"
   xmlns:cc="http://creativecommons.org/ns#"
   xmlns:rdf="http://www.w3.org/1999/02/22-rdf-syntax-ns#"
   xmlns:svg="http://www.w3.org/2000/svg"
   xmlns="http://www.w3.org/2000/svg"
   xmlns:xlink="http://www.w3.org/1999/xlink"
   xmlns:sodipodi="http://sodipodi.sourceforge.net/DTD/sodipodi-0.dtd"
   xmlns:inkscape="http://www.inkscape.org/namespaces/inkscape"
   inkscape:export-ydpi="90.000000"
   inkscape:export-xdpi="90.000000"
   inkscape:export-filename="/home/jimmac/Desktop/wi-fi.png"
   width="32"
   height="32"
   id="svg11300"
   sodipodi:version="0.32"
   inkscape:version="0.46+devel r21776"
   sodipodi:docname="plugin-snowglobe.svg"
   inkscape:output_extension="org.inkscape.output.svg.inkscape"
   sodipodi:modified="true"
   version="1.0">
  <defs
     id="defs3">
    <linearGradient
       inkscape:collect="always"
       id="linearGradient3908">
      <stop
         style="stop-color:#ffffff;stop-opacity:1;"
         offset="0"
         id="stop3910" />
      <stop
         style="stop-color:#ffffff;stop-opacity:0;"
         offset="1"
         id="stop3912" />
    </linearGradient>
    <linearGradient
       inkscape:collect="always"
       id="linearGradient3812">
      <stop
         style="stop-color:#ffffff;stop-opacity:1;"
         offset="0"
         id="stop3814" />
      <stop
         style="stop-color:#ffffff;stop-opacity:0;"
         offset="1"
         id="stop3816" />
    </linearGradient>
    <linearGradient
       inkscape:collect="always"
       id="linearGradient3802">
      <stop
         style="stop-color:#ffffff;stop-opacity:1;"
         offset="0"
         id="stop3804" />
      <stop
         style="stop-color:#ffffff;stop-opacity:0;"
         offset="1"
         id="stop3806" />
    </linearGradient>
    <linearGradient
       inkscape:collect="always"
       id="linearGradient3792">
      <stop
         style="stop-color:#ffffff;stop-opacity:1;"
         offset="0"
         id="stop3794" />
      <stop
         style="stop-color:#ffffff;stop-opacity:0;"
         offset="1"
         id="stop3796" />
    </linearGradient>
    <linearGradient
       inkscape:collect="always"
       xlink:href="#linearGradient3792"
       id="linearGradient3798"
       x1="-9.3145542"
       y1="15.023474"
       x2="-0.6009388"
       y2="15.023474"
       gradientUnits="userSpaceOnUse" />
    <linearGradient
       inkscape:collect="always"
       xlink:href="#linearGradient3802"
       id="linearGradient3828"
       gradientUnits="userSpaceOnUse"
       x1="-9.3145542"
       y1="15.023474"
       x2="-0.6009388"
       y2="15.023474" />
    <linearGradient
       inkscape:collect="always"
       xlink:href="#linearGradient3812"
       id="linearGradient3830"
       gradientUnits="userSpaceOnUse"
       x1="-9.3145542"
       y1="15.023474"
       x2="-0.6009388"
       y2="15.023474" />
    <linearGradient
       inkscape:collect="always"
       xlink:href="#linearGradient3908"
       id="linearGradient3920"
       gradientUnits="userSpaceOnUse"
       x1="-13.846479"
       y1="25.051643"
       x2="-7.5619721"
       y2="25.051643" />
    <linearGradient
       inkscape:collect="always"
       xlink:href="#linearGradient3908"
       id="linearGradient3928"
       gradientUnits="userSpaceOnUse"
       x1="-13.846479"
       y1="25.051643"
       x2="-7.5619721"
       y2="25.051643" />
  </defs>
  <sodipodi:namedview
     stroke="#ef2929"
     fill="#eeeeec"
     id="base"
     pagecolor="#ffffff"
     bordercolor="#666666"
     borderopacity="0.25490196"
     inkscape:pageopacity="0.0"
     inkscape:pageshadow="2"
     inkscape:zoom="13.3125"
     inkscape:cx="16"
     inkscape:cy="15.69953"
     inkscape:current-layer="layer1"
     showgrid="false"
     inkscape:grid-bbox="true"
     inkscape:document-units="px"
     inkscape:showpageshadow="false"
     inkscape:window-width="906"
     inkscape:window-height="680"
     inkscape:window-x="274"
     inkscape:window-y="76"
     showguides="true"
     inkscape:guide-bbox="true"
     showborder="true"
     inkscape:window-maximized="0">
    <inkscape:grid
       type="xygrid"
       id="grid7871"
       visible="true"
       enabled="true" />
  </sodipodi:namedview>
  <metadata
     id="metadata4">
    <rdf:RDF>
      <cc:Work
         rdf:about="">
        <dc:format>image/svg+xml</dc:format>
        <dc:type
           rdf:resource="http://purl.org/dc/dcmitype/StillImage" />
        <dc:creator>
          <cc:Agent>
            <dc:title>Patrick Niklaus</dc:title>
          </cc:Agent>
        </dc:creator>
        <dc:source />
        <cc:license
           rdf:resource="http://creativecommons.org/licenses/GPL/2.0/" />
        <dc:title />
        <dc:subject>
          <rdf:Bag />
        </dc:subject>
      </cc:Work>
      <cc:License
         rdf:about="http://creativecommons.org/licenses/GPL/2.0/">
        <cc:permits
           rdf:resource="http://web.resource.org/cc/Reproduction" />
        <cc:permits
           rdf:resource="http://web.resource.org/cc/Distribution" />
        <cc:requires
           rdf:resource="http://web.resource.org/cc/Notice" />
        <cc:permits
           rdf:resource="http://web.resource.org/cc/DerivativeWorks" />
        <cc:requires
           rdf:resource="http://web.resource.org/cc/ShareAlike" />
        <cc:requires
           rdf:resource="http://web.resource.org/cc/SourceCode" />
      </cc:License>
    </rdf:RDF>
  </metadata>
  <g
     id="layer1"
     inkscape:label="Layer 1"
     inkscape:groupmode="layer">
    <path
       sodipodi:type="inkscape:offset"
       inkscape:radius="-1.2953277"
       inkscape:original="M 128.53125 -62.96875 L 101.53125 -51.4375 L 101.53125 -18.4375 L 128.46875 -7.875 L 155.34375 -18.4375 L 155.3125 -51.4375 L 128.53125 -62.96875 z "
       style="fill:none;stroke:#ffffff;stroke-width:1.95400739;stroke-linecap:butt;stroke-linejoin:miter;stroke-miterlimit:4;stroke-opacity:0.75241161;stroke-dasharray:none;stroke-dashoffset:0"
       id="path8463"
       d="m 128.53125,-61.5625 -25.71875,10.96875 0,31.25 25.65625,10.0625 25.59375,-10.0625 -0.0312,-31.25 -25.5,-10.96875 z"
       transform="matrix(0.54669404,0,0,0.53164533,-54.172915,33.903814)" />
    <path
       style="fill:#feeeee;fill-opacity:1;stroke:#000000;stroke-width:0.21068782;stroke-linecap:butt;stroke-linejoin:miter;stroke-miterlimit:4;stroke-opacity:1;stroke-dasharray:none"
       d="m 1.3882826,22.547348 c 0.1031489,-0.01851 0.3018949,0.03016 0.3896398,0 0.034851,-0.01198 0.045071,-0.06342 0.077927,-0.08036 0.062342,-0.03215 0.1714416,0.03215 0.2337841,0 0.032857,-0.01695 0.045071,-0.06342 0.077927,-0.08036 0.043239,-0.02229 0.1126167,0.02229 0.155856,0 0.032856,-0.01695 0.043077,-0.06838 0.077927,-0.08036 0.049285,-0.01695 0.10657,0.01695 0.1558558,0 0.069701,-0.02396 0.094724,-0.118684 0.1558561,-0.160707 0.051952,-0.02679 0.1039041,-0.05358 0.155856,-0.08036 0.025975,0 0.054695,0.01198 0.077927,0 0.3566458,-0.183874 -0.330681,0.0333 0.2337839,-0.160709 0.024644,-0.0085 0.054695,0.01198 0.077927,0 0.093514,-0.04821 0.1402704,-0.192847 0.233784,-0.24106 0.023234,-0.01198 0.054695,0.01198 0.077927,0 0.3243177,-0.167207 -0.083307,0.0056 0.077927,-0.160708 0.1612357,-0.166254 -0.00631,0.25406 0.1558561,-0.08035 0.053746,-0.110837 -0.094374,-0.07188 0.077927,-0.160709 0.023234,-0.01198 0.05956,0.01895 0.077927,0 0.018367,-0.01894 -0.011617,-0.0564 0,-0.08036 0.016429,-0.03389 0.05755,-0.04883 0.077927,-0.08035 0.032219,-0.04984 0.045709,-0.110874 0.077927,-0.160709 0.020377,-0.03152 0.051952,-0.05358 0.077927,-0.08036 0.025975,-0.02679 0.047362,-0.05936 0.077927,-0.08036 0.048329,-0.03323 0.1075271,-0.04713 0.1558559,-0.08036 0.070939,-0.04877 0.1647136,-0.205451 0.2337841,-0.24106 0.023234,-0.01198 0.054695,0.01198 0.077927,0 0.076683,-0.03955 0.2350287,-0.281881 0.3117121,-0.321416 0.023234,-0.01198 0.05956,0.01894 0.077927,0 0.018367,-0.01894 -0.023234,-0.06838 0,-0.08036 0.061473,-0.07188 0.1640831,0.03594 0.233784,0 0.032856,-0.01695 0.043077,-0.06838 0.077927,-0.08036 0.070136,-0.02411 0.1636487,0.02412 0.2337839,0 0.055104,-0.01894 0.099506,-0.06583 0.1558561,-0.08036 0.102461,-0.02641 0.2928574,0.03327 0.3896399,0 0.03485,-0.01198 0.045071,-0.06342 0.077927,-0.08036 0.023234,-0.01198 0.051952,0 0.077927,0 0.025975,0 0.051952,0 0.077927,0 0.12988,0 0.2597599,0 0.38964,0 0.025975,0 0.051952,0 0.077927,0 0.025975,0 0.054695,0.01198 0.077927,0 0.032856,-0.01695 0.045071,-0.06342 0.077927,-0.08035 0.049162,-0.02534 0.3404777,0.02536 0.3896401,0 0.032856,-0.01695 0.045071,-0.06342 0.077927,-0.08036 0.053827,-0.02776 0.3622857,0.02822 0.3896399,0 0.018367,-0.01894 -0.018367,-0.06142 0,-0.08036 0.015932,-0.01644 0.2028862,0.01593 0.233784,0 0.032856,-0.01695 0.045071,-0.06342 0.077927,-0.08035 0.042274,-0.0218 0.2903891,0.02198 0.311712,0 0.018367,-0.01894 -0.018367,-0.06142 0,-0.08036 0.036737,-0.03788 0.1093887,0.02396 0.1558558,0 0.032857,-0.01695 0.045071,-0.06342 0.077927,-0.08035 0.046466,-0.02395 0.1093887,0.02396 0.1558559,0 0.032856,-0.01695 0.045071,-0.06342 0.077927,-0.08036 0.046467,-0.02396 0.1093886,0.02396 0.1558561,0 0.032856,-0.01695 0.045071,-0.06342 0.077927,-0.08035 0.023234,-0.01198 0.051952,0 0.077927,0 0.051952,-0.02679 0.107527,-0.04714 0.155856,-0.08036 0.030566,-0.02102 0.043077,-0.06837 0.077927,-0.08036 0.049285,-0.01695 0.10657,0.01695 0.1558562,0 0.03485,-0.01198 0.047362,-0.05935 0.077929,-0.08035 0.048328,-0.03323 0.1075281,-0.04714 0.1558571,-0.08036 0.030567,-0.02102 0.047362,-0.05936 0.07794,-0.08036 0.04833,-0.03323 0.107526,-0.04714 0.155855,-0.08036 0.03057,-0.02101 0.04736,-0.05935 0.07794,-0.08035 0.04833,-0.03323 0.109387,-0.04442 0.155854,-0.08036 0.05878,-0.04546 0.103905,-0.107139 0.155857,-0.160708 0.02598,-0.02679 0.04307,-0.06838 0.07794,-0.08035 0.04928,-0.01695 0.106571,0.01695 0.155856,0 0.03485,-0.01198 0.04736,-0.05936 0.07794,-0.08036 0.03924,-0.177033 0.160312,-0.04248 0.233783,-0.08036 0.03287,-0.01695 0.04507,-0.06342 0.07793,-0.08036 0.02484,-0.01281 0.319995,0 0.389641,0 0.155856,0 0.311711,0 0.467568,0 0.0351,0 0.210067,0.01223 0.233784,0 0.03285,-0.01695 0.04507,-0.06342 0.07794,-0.08036 0.04647,-0.02396 0.109389,0.02396 0.155856,0 0.03286,-0.01695 0.04507,-0.06342 0.07794,-0.08036 0.04647,-0.02396 0.11912,0.03788 0.155855,0 0.01838,-0.01895 -0.01837,-0.06142 0,-0.08036 0.01838,-0.01894 0.0547,0.01198 0.07794,0 0.03286,-0.01695 0.04507,-0.06342 0.07794,-0.08035 0.02324,-0.01198 0.0547,0.01198 0.07794,0 0.03287,-0.01695 0.05195,-0.05358 0.07794,-0.08036 0.06087,-0.06276 0.16654,-0.194836 0.233784,-0.241061 0.565024,-0.291306 -0.123215,0.08469 0.233783,-0.160708 0.04834,-0.03323 0.114785,-0.03801 0.155856,-0.08035 0.04107,-0.04236 0.03685,-0.118356 0.07794,-0.160705 0.005,-0.0051 0.297197,-0.15073 0.311713,-0.160709 0.06725,-0.04622 0.172916,-0.178298 0.233784,-0.24106 0.02598,-0.02679 0.05195,-0.05358 0.07794,-0.08036 0.02598,-0.02679 0.0615,-0.04648 0.07794,-0.08036 0.01162,-0.02396 -0.01838,-0.06142 0,-0.08036 0.01838,-0.01895 0.05195,0 0.07794,0 0.02862,0 0.308576,-0.0032 0.311711,0 0.03464,0.03572 -0.06061,0.151778 0.07794,0.08036 0.03287,-0.01695 0.04507,-0.06342 0.07794,-0.08036 0.02324,-0.01198 0.0547,0.01198 0.07794,0 0.03287,-0.01695 0.04507,-0.06342 0.07794,-0.08036 0.02324,-0.01198 0.05195,0 0.07794,0 0.02598,-0.02679 0.04507,-0.06342 0.07794,-0.08036 0.02324,-0.01198 0.0547,0.01198 0.07794,0 0.03286,-0.01695 0.04507,-0.06342 0.07794,-0.08036 0.02324,-0.01198 0.05956,0.01894 0.07794,0 0.01837,-0.01895 -0.01838,-0.06142 0,-0.08035 0.01837,-0.01895 0.05956,0.01895 0.07794,0 0.01837,-0.01895 -0.01838,-0.06142 0,-0.08036 0.01837,-0.01894 0.05956,0.01894 0.07794,0 0.01837,-0.01894 -0.01838,-0.06142 0,-0.08035 0.01837,-0.01894 0.0547,0.01198 0.07794,0 0.258451,-0.266501 -0.07347,0.03788 0.155855,-0.08035 0.0632,-0.03259 0.09267,-0.128127 0.155855,-0.160709 0.02324,-0.01198 0.05956,0.01895 0.07794,0 0.01838,-0.01894 -0.01838,-0.06142 0,-0.08036 0.01838,-0.01894 0.05956,-0.01894 0.07794,0 0.01837,0.01894 -0.01836,0.06142 0,0.08036 0.01837,0.01895 0.05956,-0.01894 0.07794,0 0.01838,0.01895 -0.01837,0.06142 0,0.08035 0.01838,0.01895 0.0547,-0.01198 0.07794,0 0.03287,0.01695 0.04507,0.06342 0.07794,0.08036 0.02324,0.01198 0.05956,-0.01894 0.07794,0 0.01837,0.01894 -0.01162,0.0564 0,0.08036 0.08615,0.177666 0.04836,0.02494 0.155854,0.08034 0.172305,0.08883 0.02419,0.04987 0.07794,0.160707 0.05186,0.106939 0.103998,0.05377 0.155854,0.160706 0.01162,0.02396 -0.01837,0.06142 0,0.08036 0.01838,0.01894 0.0547,-0.01198 0.07794,0 0.03608,0.0186 0.265879,0.274154 0.311712,0.321413 0.02598,0.02679 0.05196,0.05358 0.07794,0.08036 0.02598,0 0.05956,-0.01895 0.07793,0 0.01837,0.01895 -0.01838,0.06142 0,0.08036 0.01837,0.01894 0.05328,-0.0085 0.07794,0 0.564465,0.194013 -0.122862,-0.02317 0.233785,0.160709 0.02324,0.01198 0.0547,-0.01198 0.07794,0 0.03287,0.01695 0.04307,0.06838 0.07793,0.08036 0.03568,0.01226 0.346145,0 0.389641,0 0.181832,0 0.363664,0 0.545495,0 0.05196,0 0.103905,0 0.155856,0 0.02598,0 0.0547,0.01198 0.07794,0 0.03286,-0.01695 0.04506,-0.06342 0.07794,-0.08036 0.100339,-0.05174 0.07981,0.05423 0.155857,0.08036 0.04928,0.01695 0.103903,0 0.155857,0 0.06599,0 0.269816,-0.0144 0.31171,0 0.03485,0.01198 0.04307,0.06838 0.07794,0.08036 0.07015,0.02412 0.163648,-0.02412 0.233783,0 0.05511,0.01895 0.100756,0.06142 0.155856,0.08036 0.07393,0.02541 0.159856,-0.02541 0.233786,0 0.03484,0.01198 0.04307,0.06838 0.07794,0.08035 0.04928,0.01695 0.103905,0 0.155855,0 0.02598,0 0.0547,-0.01198 0.07794,0 0.03286,0.01695 0.04506,0.06342 0.07793,0.08036 0.04647,0.02396 0.11912,-0.03788 0.155857,0 0.01837,0.01895 -0.01838,0.06142 0,0.08035 0.01837,0.01894 0.0547,-0.01198 0.07794,0 0.03287,0.01695 0.04507,0.06342 0.07794,0.08035 0.02324,0.01198 0.0547,-0.01198 0.07794,0 0.06572,0.03389 0.09014,0.126827 0.155855,0.160707 0.02324,0.01198 0.0547,-0.01198 0.07794,0 0.258454,0.266501 -0.07347,-0.03788 0.155855,0.08035 0.03286,0.01695 0.04506,0.06342 0.07794,0.08036 0.04647,0.02395 0.119121,-0.03788 0.155857,0 0.01838,0.01894 -0.01837,0.06142 0,0.08036 0.03896,0.04019 0.19482,-0.04019 0.233784,0 0.01838,0.01894 -0.01837,0.06142 0,0.08036 0.01838,0.01895 0.0547,-0.01198 0.07794,0 0.03287,0.01695 0.04507,0.06342 0.07794,0.08036 0.02324,0.01198 0.0547,-0.01198 0.07794,0 0.03287,0.01695 0.04507,0.06342 0.07794,0.08035 0.02323,0.01198 0.05956,-0.01894 0.07794,0 0.01837,0.01895 -0.01837,0.06142 0,0.08036 0.01837,0.01894 0.05956,0.01894 0.07794,0 0.01836,-0.01895 -0.01838,-0.06142 0,-0.08036 0.01836,-0.01894 0.05195,0 0.07794,0 0.0351,0 0.210067,-0.01223 0.233784,0 0.02069,0.0107 0.223439,0.219727 0.233784,0.24106 0.01162,0.02396 -0.01837,0.06142 0,0.08036 0.01837,0.01894 0.0547,-0.01198 0.07794,0 0.172305,0.08882 0.02419,0.04987 0.07794,0.160707 0.01037,0.02134 0.213093,0.230394 0.233784,0.241062 0.02324,0.01198 0.05956,-0.01895 0.07794,0 0.01838,0.01894 -0.01162,0.0564 0,0.08036 0.16216,0.334414 -0.0054,-0.08591 0.155857,0.08036 0.01837,0.01895 -0.01837,0.06142 0,0.08036 0.01837,0.01894 0.05956,-0.01895 0.07794,0 0.01838,0.01894 -0.01837,0.06142 0,0.08036 0.03674,0.03788 0.119122,-0.03788 0.155856,0 0.01838,0.01894 -0.01837,0.06142 0,0.08036 0.0078,0.0081 0.225994,0.0081 0.233784,0 0.01838,-0.01894 -0.01837,-0.06142 0,-0.08036 0.01838,-0.01894 0.05195,0 0.07794,0 0.02598,0 0.05956,-0.01894 0.07794,0 0.01837,0.01894 -0.01837,0.06142 0,0.08036 0.01837,0.01895 0.05196,0 0.07794,0 0.155856,0 0.311714,0 0.467569,0 0.02598,0 0.05956,-0.01894 0.07793,0 0.01837,0.01895 -0.01837,0.06142 0,0.08036 0.01837,0.01895 0.0547,-0.01198 0.07794,0 0.03287,0.01695 0.04507,0.06342 0.07794,0.08035 0.04228,0.02179 0.290389,-0.02199 0.311711,0 0.01838,0.01895 -0.01837,0.06142 0,0.08036 0.01838,0.01894 0.05956,0.01894 0.07794,0 0.01838,-0.01895 -0.01838,-0.06142 0,-0.08036 0.01838,-0.01894 0.05195,0 0.07794,0 0.02598,0 0.0547,-0.01198 0.07794,0 0.03287,0.01695 0.04506,0.06342 0.07794,0.08036 0.02323,0.01198 0.0547,-0.01198 0.07794,0 0.356645,0.183874 -0.330681,-0.0333 0.233784,0.160707 0.02465,0.0085 0.0547,-0.01198 0.07794,0 0.356645,0.183874 -0.330682,-0.0333 0.233784,0.160707 0.02465,0.0085 0.05195,0 0.07794,0 0.02598,0.02679 0.04507,0.06342 0.07794,0.08036 0.02324,0.01198 0.0547,-0.01198 0.07794,0 0.03287,0.01695 0.04506,0.06342 0.07794,0.08036 0.02324,0.01198 0.05956,-0.01895 0.07794,0 0.01837,0.01895 -0.01838,0.06142 0,0.08035 0.01837,0.01894 0.0547,-0.01198 0.07794,0 0.03287,0.01695 0.04507,0.06342 0.07794,0.08036 0.04647,0.02395 0.10939,-0.02396 0.155857,0 0.03287,0.01695 0.04507,0.06342 0.07794,0.08036 0.04647,0.02396 0.119121,-0.03788 0.155857,0 0.01837,0.01894 -0.01837,0.06142 0,0.08035 0.01837,0.01895 0.0547,-0.01198 0.07794,0 0.258453,0.266499 -0.07347,-0.03788 0.155856,0.08036 0.03287,0.01695 0.04506,0.06342 0.07794,0.08035 0.02323,0.01198 0.05956,-0.01894 0.07794,0 0.01837,0.01894 -0.01837,0.06142 0,0.08036 0.01837,0.01895 0.0547,-0.01198 0.07794,0 0.03287,0.01695 0.04506,0.06342 0.07794,0.08035 0.02323,0.01198 0.05469,-0.01198 0.07794,0 0.06571,0.03389 0.09014,0.126827 0.155856,0.160708 0.04647,0.02396 0.11912,-0.03788 0.155855,0 0.01837,0.01895 -0.01838,0.06142 0,0.08036 0.01837,0.01894 0.05956,-0.01894 0.07794,0 0.01837,0.01894 -0.01162,0.0564 0,0.08036 0.162158,0.334413 -0.0054,-0.08591 0.155855,0.08035 0.01838,0.01895 -0.01838,0.06142 0,0.08036 0.01838,0.01894 0.05956,-0.01894 0.07794,0 0.01837,0.01894 -0.01837,0.06142 0,0.08036 0.01837,0.01895 0.05956,-0.01894 0.07794,0 0.01838,0.01895 -0.01837,0.06142 0,0.08036 0.01594,0.01644 0.202886,-0.01593 0.233785,0 0.03287,0.01695 0.04506,0.06342 0.07794,0.08036 0.04228,0.02179 0.290391,-0.02198 0.311712,0 0.01838,0.01894 -0.01837,0.06142 0,0.08036 0.01594,0.01643 0.202887,-0.01593 0.233785,0 0.03286,0.01695 0.04506,0.06342 0.07794,0.08036 0.04647,0.02395 0.11912,-0.03788 0.155857,0 0.01837,0.01894 -0.01838,0.06142 0,0.08035 0.01837,0.01895 0.05956,-0.01894 0.07794,0 0.01837,0.01895 -0.01838,0.06142 0,0.08036 0.01837,0.01894 0.05956,-0.01895 0.07793,0 0.01838,0.01894 -0.01837,0.06142 0,0.08036 0.01838,0.01894 0.05956,-0.01895 0.07794,0 0.01837,0.01894 -0.01838,0.06142 0,0.08036 0.03674,0.03788 0.119119,-0.03788 0.155856,0 0.01838,0.01895 -0.01838,0.06142 0,0.08036 0.01838,0.01894 0.0547,-0.01198 0.07794,0 0.03287,0.01695 0.04506,0.06342 0.07794,0.08035 0.02324,0.01198 0.05956,-0.01894 0.07794,0 0.01837,0.01895 -0.01838,0.06142 0,0.08036 0.03673,0.03788 0.11912,-0.03788 0.155855,0 0.01838,0.01895 -0.01162,0.0564 0,0.08036 0.01644,0.03389 0.0615,0.04647 0.07794,0.08035 0.02323,0.04792 -0.02324,0.112794 0,0.160707 0.01644,0.03389 0.0615,0.04648 0.07794,0.08036 0.002,0.0042 0.002,0.236858 0,0.241062 -0.01644,0.03389 -0.06631,0.04442 -0.07794,0.08035 -0.01644,0.05082 0.01644,0.109889 0,0.160707 -0.01163,0.03593 -0.05755,0.04883 -0.07794,0.08036 -0.03222,0.04984 -0.0457,0.110874 -0.07793,0.160707 -0.04076,0.06305 -0.132622,0.08885 -0.155857,0.160706 -0.005,0.01527 -0.01037,0.541157 0,0.562477 0.01644,0.03389 0.0615,0.04648 0.07794,0.08035 0.02115,0.04359 -0.02132,0.299428 0,0.321416 0.01837,0.01894 0.05956,-0.01895 0.07794,0 0.01837,0.01894 -0.01162,0.0564 0,0.08036 0.01644,0.03389 0.0615,0.04648 0.07794,0.08035 0.01162,0.02395 0,0.05358 0,0.08036 0,0.02679 0,0.05358 0,0.08036 0,0.160707 0,0.321414 0,0.482121 0,0.02679 0.01838,0.06142 0,0.08036 -0.01837,0.01894 -0.07794,0.02679 -0.07794,0 0,-0.02679 0.07794,-0.02679 0.07794,0 0,0.02679 -0.05956,-0.01894 -0.07794,0 -0.01838,0.01894 0.01837,0.06142 0,0.08035 -0.03674,0.03788 -0.109389,-0.02395 -0.155857,0 -0.03286,0.01695 -0.04307,0.06838 -0.07794,0.08036 -0.04928,0.01695 -0.105456,-0.013 -0.155857,0 -0.09704,0.02502 -0.214669,0.13569 -0.311711,0.160705 -0.0504,0.013 -0.105456,-0.013 -0.155857,0 -0.112701,0.02905 -0.1978,0.137217 -0.311713,0.160708 -0.07641,0.01576 -0.157369,-0.01575 -0.233784,0 -0.05695,0.01175 -0.101927,0.05811 -0.155854,0.08036 -0.07628,0.03146 -0.157518,0.04891 -0.233786,0.08036 -0.107859,0.04449 -0.199011,0.131655 -0.311711,0.160707 -0.05039,0.013 -0.105455,-0.013 -0.155856,0 -0.05635,0.01453 -0.101926,0.05811 -0.155856,0.08035 -0.07628,0.03146 -0.157515,0.04891 -0.233784,0.08036 -0.05392,0.02224 -0.09951,0.06583 -0.155856,0.08036 -0.05039,0.013 -0.105455,-0.013 -0.155856,0 -0.1127,0.02905 -0.199013,0.131655 -0.311713,0.160708 -0.0504,0.013 -0.106569,-0.01695 -0.155855,0 -0.03484,0.01198 -0.04307,0.06838 -0.07794,0.08035 -0.04928,0.01695 -0.106569,-0.01695 -0.155854,0 -0.03485,0.01198 -0.04307,0.06838 -0.07794,0.08035 -0.04928,0.01695 -0.103904,0 -0.155855,0 -0.02598,0 -0.0547,-0.01198 -0.07794,0 -0.03287,0.01695 -0.04506,0.06342 -0.07794,0.08036 -0.03468,0.01788 -0.276069,-0.01225 -0.311713,0 -0.03484,0.01198 -0.04307,0.06838 -0.07794,0.08036 -0.04928,0.01695 -0.106569,-0.01695 -0.155856,0 -0.03484,0.01198 -0.05195,0.05358 -0.07793,0.08036 -0.05196,0.02679 -0.0995,0.06583 -0.155857,0.08036 -0.0504,0.013 -0.105456,-0.013 -0.155857,0 -0.141044,-0.04845 -0.144932,0.130167 -0.233783,0.160705 -0.04928,0.01695 -0.10657,-0.01695 -0.155856,0 -0.03485,0.01198 -0.04736,0.05935 -0.07794,0.08036 -0.04834,0.03323 -0.103904,0.05358 -0.155856,0.08036 -0.05195,0.02679 -0.100756,0.06142 -0.155855,0.08036 -0.02466,0.0085 -0.05328,-0.0085 -0.07794,0 -0.05511,0.01894 -0.107527,0.04713 -0.155856,0.08034 -0.03057,0.02102 -0.04307,0.06838 -0.07794,0.08036 -0.04928,0.01695 -0.106571,-0.01695 -0.155857,0 -0.03484,0.01198 -0.04307,0.06837 -0.07794,0.08036 -0.04929,0.01695 -0.10657,-0.01695 -0.155857,0 -0.03484,0.01198 -0.04736,0.05935 -0.07794,0.08035 -0.04834,0.03323 -0.103904,0.05358 -0.155857,0.08036 -0.05195,0.02679 -0.100755,0.06142 -0.155855,0.08036 -0.02465,0.0085 -0.05328,-0.0085 -0.07794,0 -0.05511,0.01894 -0.103905,0.05358 -0.155857,0.08036 -0.155856,0.08035 -0.311711,0.160709 -0.467568,0.241063 -0.05196,0.02679 -0.100755,0.06142 -0.155857,0.08036 -0.02465,0.0085 -0.05328,-0.0085 -0.07794,0 -0.141536,0.04866 -0.144623,0.06878 -0.233785,0.160706 -0.02598,0.02679 -0.04307,0.06838 -0.07794,0.08036 -0.04929,0.01695 -0.10657,-0.01695 -0.155856,0 -0.125799,0.04325 -0.03006,0.11747 -0.155856,0.160707 -0.04928,0.01695 -0.106569,-0.01695 -0.155857,0 -0.06971,0.02396 -0.09014,0.126828 -0.155856,0.160707 -0.02323,0.01198 -0.05196,0 -0.07794,0 -0.05196,0.02679 -0.107527,0.04713 -0.155856,0.08036 -0.03057,0.02102 -0.04307,0.06838 -0.07794,0.08035 -0.354751,0 -0.0045,-0.03788 -0.233785,0.08036 -0.02324,0.01198 -0.05196,0 -0.07794,0 -0.05196,0 -0.106571,-0.01695 -0.155856,0 -0.03485,0.01198 -0.04506,0.06342 -0.07793,0.08036 -0.02323,0.01198 -0.05328,-0.0085 -0.07794,0 -0.05511,0.01895 -0.09952,0.06583 -0.155857,0.08036 -0.05039,0.013 -0.106569,-0.01695 -0.155854,0 -0.03485,0.01198 -0.05196,0.05358 -0.07794,0.08036 -0.05196,0 -0.105454,-0.013 -0.155855,0 -0.1127,0.02905 -0.199011,0.131656 -0.311712,0.160706 -0.0504,0.013 -0.105455,-0.013 -0.155855,0 -0.05635,0.01453 -0.100756,0.06142 -0.155857,0.08036 -0.02465,0.0085 -0.05328,-0.0085 -0.07793,0 -0.08558,0.02942 -0.226133,0.131292 -0.311711,0.160707 -0.02466,0.0085 -0.05328,-0.0085 -0.07794,0 -0.05511,0.01895 -0.09951,0.06583 -0.155857,0.08035 -0.0504,0.013 -0.10657,-0.01695 -0.155855,0 -0.03485,0.01198 -0.04307,0.06837 -0.07794,0.08035 -0.35475,0 -0.0045,-0.03788 -0.233783,0.08036 -0.02323,0.01198 -0.05196,0 -0.07794,0 -0.05196,0 -0.106569,-0.01695 -0.155856,0 -0.03485,0.01198 -0.04506,0.06342 -0.07794,0.08036 -0.02324,0.01198 -0.05195,0 -0.07794,0 -0.02598,0.02679 -0.04507,0.06342 -0.07794,0.08035 -0.04647,0.02396 -0.119121,-0.03788 -0.155858,0 -0.01837,0.01895 0.01838,0.06142 0,0.08035 -0.01837,0.01895 -0.05469,-0.01198 -0.07794,0 -0.03287,0.01695 -0.04507,0.06342 -0.07794,0.08036 -0.04647,0.02396 -0.119122,-0.03788 -0.155856,0 -0.01838,0.01894 0.01837,0.06142 0,0.08036 -0.03674,0.03788 -0.10939,-0.02395 -0.155857,0 -0.03286,0.01695 -0.04507,0.06342 -0.07794,0.08035 -0.02324,0.01198 -0.05328,-0.0085 -0.07794,0 -0.05511,0.01894 -0.100745,0.06142 -0.155856,0.08036 -0.02465,0.0085 -0.0547,-0.01198 -0.07794,0 -0.03287,0.01695 -0.04307,0.06838 -0.07794,0.08036 -0.04929,0.01695 -0.103904,0 -0.155856,0 -0.02598,0 -0.0547,-0.01198 -0.07794,0 -0.03287,0.01695 -0.04506,0.06342 -0.07794,0.08036 -0.02323,0.01198 -0.0547,-0.01198 -0.07794,0 -0.03287,0.01695 -0.04507,0.06342 -0.07794,0.08035 -0.0411,0.02119 -0.114756,-0.02119 -0.155857,0 -0.03287,0.01695 -0.04506,0.06342 -0.07794,0.08036 -0.04647,0.02396 -0.109388,-0.02396 -0.155855,0 -0.03287,0.01695 -0.04506,0.06342 -0.07794,0.08035 -0.02323,0.01198 -0.05956,-0.01894 -0.07794,0 -0.01837,0.01894 0.01837,0.06142 0,0.08035 -0.03673,0.03788 -0.119122,-0.03788 -0.155856,0 -0.01837,0.01895 0.01838,0.06142 0,0.08036 -0.01837,0.01894 -0.05195,0 -0.07793,0 -0.02598,0 -0.05196,0 -0.07794,0 -0.02598,0 -0.0547,0.01198 -0.07794,0 -0.03287,-0.01695 -0.04507,-0.06342 -0.07793,-0.08036 -0.02324,-0.01198 -0.05956,0.01895 -0.07794,0 -0.01837,-0.01894 0.01838,-0.06142 0,-0.08035 -0.01837,-0.01894 -0.0547,0.01198 -0.07794,0 -0.03287,-0.01695 -0.04507,-0.06342 -0.07793,-0.08035 -0.02324,-0.01198 -0.05469,0.01198 -0.07794,0 -0.03287,-0.01695 -0.04507,-0.06342 -0.07794,-0.08036 -0.04647,-0.02396 -0.109388,0.02396 -0.155856,0 -0.03287,-0.01695 -0.04507,-0.06342 -0.07794,-0.08035 -0.04898,-0.02526 -0.262734,0.02526 -0.311713,0 -0.03287,-0.01695 -0.04307,-0.06838 -0.07794,-0.08036 -0.07203,-0.02476 -0.316951,0.02499 -0.38964,0 -0.05511,-0.01894 -0.100756,-0.06142 -0.155856,-0.08036 -0.02465,-0.0085 -0.0547,0.01198 -0.07794,0 -0.03287,-0.01695 -0.04507,-0.06342 -0.07794,-0.08036 -0.02324,-0.01198 -0.0547,0.01198 -0.07794,0 -0.03287,-0.01695 -0.04507,-0.06342 -0.07794,-0.08035 -0.02324,-0.01198 -0.0547,0.01198 -0.07794,0 -0.03285,-0.01695 -0.04507,-0.06342 -0.07794,-0.08036 -0.02324,-0.01198 -0.0547,0.01198 -0.07794,0 -0.03286,-0.01695 -0.04307,-0.06837 -0.07794,-0.08036 -0.35475,0 -0.0045,0.03788 -0.233784,-0.08035 -0.02323,-0.01198 -0.05196,0 -0.07794,0 -0.05196,0 -0.10657,0.01695 -0.155857,0 -0.03485,-0.01198 -0.04507,-0.06342 -0.07793,-0.08035 -0.04647,-0.02396 -0.106571,0.01695 -0.155856,0 -0.05511,-0.01895 -0.100755,-0.06142 -0.155856,-0.08036 -0.04928,-0.01695 -0.109389,0.02396 -0.155855,0 -0.03287,-0.01695 -0.04507,-0.06342 -0.07794,-0.08036 -0.04647,-0.02396 -0.106571,0.01695 -0.155858,0 -0.05511,-0.01895 -0.100755,-0.06142 -0.155855,-0.08035 -0.02465,-0.0085 -0.05328,0.0085 -0.07794,0 -0.05511,-0.01895 -0.0995,-0.06583 -0.155854,-0.08035 -0.0504,-0.013 -0.106571,0.01695 -0.155857,0 -0.03485,-0.01198 -0.04307,-0.06837 -0.07794,-0.08036 -0.04928,-0.01695 -0.105455,0.013 -0.155856,0 -0.05635,-0.01453 -0.09951,-0.06583 -0.155857,-0.08035 -0.0504,-0.013 -0.106568,0.01695 -0.155855,0 -0.03486,-0.01198 -0.04307,-0.06838 -0.07794,-0.08036 -0.04928,-0.01695 -0.10657,0.01695 -0.155856,0 -0.03485,-0.01198 -0.04507,-0.06342 -0.07794,-0.08036 -0.02324,-0.01198 -0.0547,0.01198 -0.07794,0 -0.03287,-0.01695 -0.04507,-0.06342 -0.07794,-0.08036 -0.02324,-0.01198 -0.0547,0.01198 -0.07794,0 -0.03286,-0.01695 -0.04507,-0.06342 -0.07794,-0.08035 -0.02324,-0.01198 -0.0547,0.01198 -0.07794,0 -0.03287,-0.01695 -0.04507,-0.06342 -0.07794,-0.08036 -0.02324,-0.01198 -0.0547,0.01198 -0.07794,0 -0.06571,-0.03389 -0.09014,-0.126827 -0.155856,-0.160708 -0.02323,-0.01198 -0.054697,0.01198 -0.07794,0 -0.2584547,-0.266499 0.073474,0.03788 -0.1558571,-0.08036 -0.032856,-0.01695 -0.045073,-0.06342 -0.077929,-0.08035 -0.023233,-0.01198 -0.054696,0.01198 -0.077929,0 -0.032856,-0.01695 -0.045071,-0.06342 -0.077927,-0.08036 -0.023234,-0.01198 -0.051952,0 -0.077927,0 -0.025975,-0.02679 -0.045071,-0.06342 -0.077927,-0.08036 -0.023234,-0.01198 -0.05956,0.01895 -0.077927,0 -0.018367,-0.01894 0.018367,-0.06142 0,-0.08036 -0.018367,-0.01894 -0.05956,0.01894 -0.077927,0 -0.018367,-0.01894 0.018367,-0.06142 0,-0.08036 -0.025771,-0.02657 -0.1300858,0.02657 -0.1558561,0 -0.018367,-0.01895 0.018368,-0.06142 0,-0.08036 -0.018367,-0.01894 -0.054695,0.01198 -0.077927,0 -0.032856,-0.01695 -0.045071,-0.06342 -0.077927,-0.08036 -0.041232,-0.02126 -0.1146235,0.02126 -0.1558559,0 -0.032856,-0.01695 -0.051952,-0.05358 -0.077927,-0.08035 -0.051952,0 -0.1065699,0.01695 -0.1558559,0 -0.034851,-0.01198 -0.043077,-0.06838 -0.077927,-0.08035 -0.1168921,-0.04019 -0.2727481,0.04019 -0.3896401,0 -0.034851,-0.01198 -0.045071,-0.06342 -0.077927,-0.08036 -0.023234,-0.01198 -0.051952,0 -0.077927,0 -0.051952,0 -0.10657,0.01695 -0.1558561,0 -0.034851,-0.01198 -0.045071,-0.06342 -0.077927,-0.08036 -0.046467,-0.02395 -0.1093887,0.02396 -0.1558559,0 -0.032857,-0.01695 -0.045071,-0.06342 -0.077927,-0.08036 -0.023234,-0.01198 -0.054695,0.01198 -0.077927,0 -0.032856,-0.01695 -0.045071,-0.06342 -0.077927,-0.08036 -0.023234,-0.01198 -0.054695,0.01198 -0.077927,0 -0.065715,-0.03389 -0.086155,-0.136751 -0.1558561,-0.160707 -0.049285,-0.01695 -0.1054551,0.013 -0.155856,0 -0.4415155,-0.22763 0.1161684,0.02996 -0.311712,-0.08035 -0.05635,-0.01453 -0.099506,-0.06583 -0.1558559,-0.08036 -0.1353023,-0.03488 -0.3322659,0.03489 -0.467568,0 -0.05635,-0.01453 -0.099506,-0.06583 -0.1558561,-0.08036 -0.076455,-0.0197 -0.4225605,0.02321 -0.467568,0 -0.032856,-0.01695 -0.045071,-0.06342 -0.077927,-0.08035 -0.046467,-0.02396 -0.1093888,0.02395 -0.155856,0 -0.2584546,-0.2665 0.073472,0.03788 -0.155856,-0.08036 -0.032857,-0.01695 -0.043077,-0.06838 -0.077927,-0.08036 -0.049285,-0.01695 -0.1065701,0.01695 -0.1558559,0 -0.034851,-0.01198 -0.043077,-0.06838 -0.077927,-0.08036 -0.07393,-0.02541 -0.1598549,0.02541 -0.233784,0 -0.055104,-0.01895 -0.1007534,-0.06142 -0.155856,-0.08035 -0.049285,-0.01695 -0.1093887,0.02396 -0.1558559,0 -0.032857,-0.01695 -0.045071,-0.06342 -0.077927,-0.08036 -0.030898,-0.01593 -0.2178528,0.01644 -0.233784,0 -0.018367,-0.01895 0.011617,-0.0564 0,-0.08036 -0.016429,-0.03389 -0.061498,-0.04648 -0.077927,-0.08035 -0.011617,-0.02396 0.011617,-0.0564 0,-0.08036 -0.016429,-0.03389 -0.051952,-0.05358 -0.077927,-0.08036 -0.025975,-0.02679 -0.045071,-0.06342 -0.077927,-0.08036 -0.023234,-0.01198 -0.054695,0.01198 -0.077927,0 -0.032856,-0.01695 -0.043077,-0.06838 -0.077927,-0.08036 -0.049285,-0.01695 -0.10657,0.01695 -0.1558559,0 -0.03485,-0.01198 -0.045071,-0.06342 -0.077927,-0.08035 -0.046468,-0.02396 -0.10657,0.01695 -0.1558561,0 -0.055104,-0.01894 -0.1007534,-0.06142 -0.155856,-0.08036 -0.042964,-0.01478 -0.2950512,0.01718 -0.3117122,0 -0.018367,-0.01895 0.018367,-0.06142 0,-0.08035 -0.036737,-0.03788 -0.1191202,0.03788 -0.1558559,0 -0.018367,-0.01894 0.018367,-0.06142 0,-0.08036 -0.018367,-0.01895 -0.054695,0.01198 -0.077927,0 -0.032856,-0.01695 -0.045071,-0.06342 -0.077927,-0.08036 -0.023234,-0.01198 -0.054695,0.01198 -0.077927,0 -0.032857,-0.01695 -0.045071,-0.06342 -0.077927,-0.08036 -0.023234,-0.01198 -0.054695,0.01198 -0.077927,0 -0.032856,-0.01695 -0.045071,-0.06342 -0.077927,-0.08036 -0.046467,-0.02396 -0.1093889,0.02396 -0.1558561,0 -0.032856,-0.01695 -0.045071,-0.06342 -0.077927,-0.08034 -0.046466,-0.02395 -0.1093886,0.02396 -0.155856,0 -0.032856,-0.01695 -0.045071,-0.06342 -0.077927,-0.08036 -0.046467,-0.02396 -0.1093887,0.02396 -0.155856,0 -0.032857,-0.01695 -0.045071,-0.06342 -0.077927,-0.08036 -0.046468,-0.02396 -0.1093888,0.02395 -0.1558559,0 -0.032857,-0.01695 -0.045071,-0.06342 -0.0779271,-0.08035 -0.0623422,-0.03215 -0.17144151,0.03215 -0.23378386,0 -0.0328572,-0.01695 -0.0450709,-0.06342 -0.077927,-0.08036 -0.10749055,-0.05543 -0.0697039,0.0973 -0.15585601,-0.08036 -0.002034,-0.0042 -0.002034,-0.236859 0,-0.241062 0.0164291,-0.03389 0.061498,-0.04649 0.077927,-0.08035 0.0116166,-0.02396 -0.0116166,-0.0564 0,-0.08036 0.0164291,-0.03389 0.061499,-0.04648 0.077927,-0.08036 0.0232343,-0.04792 -0.0232343,-0.112793 0,-0.160706 0.0164291,-0.03389 0.061499,-0.04648 0.077927,-0.08036 0.0311716,-0.06428 -0.0311716,-0.176779 0,-0.241062 0.0164291,-0.03389 0.061499,-0.04649 0.077927,-0.08036 0.0116166,-0.02396 -0.0116166,-0.0564 0,-0.08036 0.0164291,-0.03389 0.061499,-0.04648 0.077927,-0.08036 0.0232343,-0.04792 -0.0232343,-0.112794 0,-0.160709 0.0164291,-0.03389 0.061498,-0.04648 0.077927,-0.08036 0.0116167,-0.02396 0,-0.05358 0,-0.08036 0,-0.02679 0.0183669,-0.06142 0,-0.08035 -0.0183669,-0.01894 -0.0595602,0.01895 -0.077927,0 -0.0389645,-0.04019 0.0389656,-0.200884 0,-0.241061 -0.0183669,-0.01894 -0.0595601,0.01894 -0.077927,0 -0.010988,-0.01133 -0.007985,-0.224578 0,-0.241061 0.0164291,-0.03389 0.061499,-0.04647 0.077927,-0.08036 0.0154495,-0.03186 -0.0159317,-0.224635 0,-0.241062 0.0183669,-0.01894 0.0595612,0.01895 0.077927,0 0.0183669,-0.01894 -0.004272,-0.05394 0,-0.08036 C 1.020725,22.81432 1.0509018,22.681193 1.3885896,22.547269 z"
       id="path3782" />
    <path
       sodipodi:type="arc"
       style="fill:#ffffff;fill-opacity:1;stroke:#000000;stroke-width:0.2;stroke-miterlimit:4;stroke-opacity:1;stroke-dasharray:none"
       id="path4011"
       sodipodi:cx="-4.920188"
       sodipodi:cy="11.530517"
       sodipodi:rx="1.0892019"
       sodipodi:ry="1.0892019"
       d="m -3.830986,11.530517 a 1.0892019,1.0892019 0 1 1 -2.1784039,0 1.0892019,1.0892019 0 1 1 2.1784039,0 z"
       transform="matrix(0.51317923,0,0,0.52915331,13.303545,8.2900339)" />
    <g
       id="g3930"
       transform="matrix(1.1373078,0,0,1.1727096,23.142095,1.6141198)">
      <g
         transform="matrix(0.03479225,-0.52091041,0.52091041,0.03479225,-22.870648,3.6571726)"
         id="g3916">
        <path
           style="fill:#000000;fill-opacity:1;stroke:#000000;stroke-width:0.2;stroke-linecap:butt;stroke-linejoin:miter;stroke-miterlimit:4;stroke-opacity:1;stroke-dasharray:none"
           d="m -12.319249,20.657277 -1.42723,8.56338 2.629108,0.225352 -1.201878,-8.788732 z"
           id="path3902" />
        <path
           id="path3906"
           d="m -12.319249,20.657277 -1.42723,8.56338 2.629108,0.225352 -1.201878,-8.788732 z"
           style="fill:url(#linearGradient3920);fill-opacity:1;stroke:#000000;stroke-width:0.2;stroke-linecap:butt;stroke-linejoin:miter;stroke-miterlimit:4;stroke-opacity:1;stroke-dasharray:none" />
      </g>
      <g
         id="g3922"
         transform="matrix(-0.03479225,-0.52091041,-0.52091041,0.03479225,10.150352,4.0327595)">
        <path
           id="path3924"
           d="m -12.319249,20.657277 -1.42723,8.56338 2.629108,0.225352 -1.201878,-8.788732 z"
           style="fill:#000000;fill-opacity:1;stroke:#000000;stroke-width:0.2;stroke-linecap:butt;stroke-linejoin:miter;stroke-miterlimit:4;stroke-opacity:1;stroke-dasharray:none" />
        <path
           style="fill:url(#linearGradient3928);fill-opacity:1;stroke:#000000;stroke-width:0.2;stroke-linecap:butt;stroke-linejoin:miter;stroke-miterlimit:4;stroke-opacity:1;stroke-dasharray:none"
           d="m -12.319249,20.657277 -1.42723,8.56338 2.629108,0.225352 -1.201878,-8.788732 z"
           id="path3926" />
      </g>
      <g
         style="stroke-width:0.2;stroke-miterlimit:4;stroke-dasharray:none"
         id="g3832">
        <g
           id="g3824"
           transform="matrix(1,0,0,0.78828829,-1.0516432,4.1781498)"
           style="stroke:#000000;stroke-width:0.22526175;stroke-miterlimit:4;stroke-opacity:1;stroke-dasharray:none">
          <path
             d="m -0.6009388,15.023474 c 0,2.406198 -1.9506093,4.356807 -4.3568077,4.356807 -2.4061985,0 -4.3568077,-1.950609 -4.3568077,-4.356807 0,-2.406199 1.9506092,-4.356808 4.3568077,-4.356808 2.4061984,0 4.3568077,1.950609 4.3568077,4.356808 z"
             sodipodi:ry="4.3568077"
             sodipodi:rx="4.3568077"
             sodipodi:cy="15.023474"
             sodipodi:cx="-4.9577465"
             id="path3784"
             style="fill:#b3b3b3;fill-opacity:1;stroke:#000000;stroke-width:0.22526175;stroke-miterlimit:4;stroke-opacity:1;stroke-dasharray:none"
             sodipodi:type="arc" />
          <path
             sodipodi:type="arc"
             style="fill:url(#linearGradient3830);fill-opacity:1;stroke:#000000;stroke-width:0.22526175;stroke-miterlimit:4;stroke-opacity:1;stroke-dasharray:none"
             id="path3810"
             sodipodi:cx="-4.9577465"
             sodipodi:cy="15.023474"
             sodipodi:rx="4.3568077"
             sodipodi:ry="4.3568077"
             d="m -0.6009388,15.023474 c 0,2.406198 -1.9506093,4.356807 -4.3568077,4.356807 -2.4061985,0 -4.3568077,-1.950609 -4.3568077,-4.356807 0,-2.406199 1.9506092,-4.356808 4.3568077,-4.356808 2.4061984,0 4.3568077,1.950609 4.3568077,4.356808 z" />
        </g>
        <g
           id="g3820"
           transform="matrix(1,0,0,0.78828829,-1.0516432,4.1781498)"
           style="stroke:#000000;stroke-width:0.22526175;stroke-miterlimit:4;stroke-opacity:1;stroke-dasharray:none">
          <path
             transform="matrix(0.72413794,0,0,0.72413794,-1.3676541,-1.7147486)"
             sodipodi:type="arc"
             style="fill:#b3b3b3;fill-opacity:1;stroke:#000000;stroke-width:0.31107575;stroke-miterlimit:4;stroke-opacity:1;stroke-dasharray:none"
             id="path3786"
             sodipodi:cx="-4.9577465"
             sodipodi:cy="15.023474"
             sodipodi:rx="4.3568077"
             sodipodi:ry="4.3568077"
             d="m -0.6009388,15.023474 c 0,2.406198 -1.9506093,4.356807 -4.3568077,4.356807 -2.4061985,0 -4.3568077,-1.950609 -4.3568077,-4.356807 0,-2.406199 1.9506092,-4.356808 4.3568077,-4.356808 2.4061984,0 4.3568077,1.950609 4.3568077,4.356808 z" />
          <path
             d="m -0.6009388,15.023474 c 0,2.406198 -1.9506093,4.356807 -4.3568077,4.356807 -2.4061985,0 -4.3568077,-1.950609 -4.3568077,-4.356807 0,-2.406199 1.9506092,-4.356808 4.3568077,-4.356808 2.4061984,0 4.3568077,1.950609 4.3568077,4.356808 z"
             sodipodi:ry="4.3568077"
             sodipodi:rx="4.3568077"
             sodipodi:cy="15.023474"
             sodipodi:cx="-4.9577465"
             id="path3800"
             style="fill:url(#linearGradient3828);fill-opacity:1;stroke:#000000;stroke-width:0.31107575;stroke-miterlimit:4;stroke-opacity:1;stroke-dasharray:none"
             sodipodi:type="arc"
             transform="matrix(0.72413794,0,0,0.72413794,-1.3676541,-1.7147486)" />
        </g>
        <path
           transform="matrix(0.44827588,0,0,0.35337063,-3.8620688,2.540572)"
           sodipodi:type="arc"
           style="fill:#b3b3b3;fill-opacity:1;stroke:#000000;stroke-width:0.50250697;stroke-miterlimit:4;stroke-opacity:1;stroke-dasharray:none"
           id="path3788"
           sodipodi:cx="-4.9577465"
           sodipodi:cy="15.023474"
           sodipodi:rx="4.3568077"
           sodipodi:ry="4.3568077"
           d="m -0.6009388,15.023474 c 0,2.406198 -1.9506093,4.356807 -4.3568077,4.356807 -2.4061985,0 -4.3568077,-1.950609 -4.3568077,-4.356807 0,-2.406199 1.9506092,-4.356808 4.3568077,-4.356808 2.4061984,0 4.3568077,1.950609 4.3568077,4.356808 z" />
        <path
           d="m -0.6009388,15.023474 c 0,2.406198 -1.9506093,4.356807 -4.3568077,4.356807 -2.4061985,0 -4.3568077,-1.950609 -4.3568077,-4.356807 0,-2.406199 1.9506092,-4.356808 4.3568077,-4.356808 2.4061984,0 4.3568077,1.950609 4.3568077,4.356808 z"
           sodipodi:ry="4.3568077"
           sodipodi:rx="4.3568077"
           sodipodi:cy="15.023474"
           sodipodi:cx="-4.9577465"
           id="path3790"
           style="fill:url(#linearGradient3798);fill-opacity:1;stroke:#000000;stroke-width:0.50250697;stroke-miterlimit:4;stroke-opacity:1;stroke-dasharray:none"
           sodipodi:type="arc"
           transform="matrix(0.44827588,0,0,0.35337063,-3.8620688,2.540572)" />
      </g>
      <rect
         transform="matrix(0.94909009,0.31500476,-0.61006722,0.79234966,0,0)"
         y="9.6248837"
         x="-1.3118589"
         height="0.53850073"
         width="0.78045672"
         id="rect3878"
         style="fill:#000000;fill-opacity:1;stroke:#000000;stroke-width:0.07765935;stroke-miterlimit:4;stroke-opacity:1;stroke-dasharray:none" />
      <rect
         style="fill:#000000;fill-opacity:1;stroke:#000000;stroke-width:0.07765935;stroke-miterlimit:4;stroke-opacity:1;stroke-dasharray:none"
         id="rect3880"
         width="0.78045672"
         height="0.53850073"
         x="0.011931792"
         y="9.0986004"
         transform="matrix(0.94909009,0.31500476,-0.61006722,0.79234966,0,0)" />
      <path
         id="path3900"
         d="m -6.2398237,7.8969142 -0.3840566,0.8071096 1.2289817,0 -0.8449251,-0.8071096 z"
         style="fill:#ffb900;fill-opacity:1;stroke:#ffbc00;stroke-width:0.15590836px;stroke-linecap:butt;stroke-linejoin:miter;stroke-opacity:1" />
    </g>
    <path
       style="fill:#c5c5c5;fill-opacity:1;stroke:none"
       d="m 1.5441385,22.708056 c 0.1159893,0 0.099467,-0.01198 0.2337839,0.08036 0.030565,0.02101 0.043077,0.06838 0.077927,0.08035 0.049285,0.01695 0.1054552,-0.013 0.1558561,0 0.141045,-0.04845 0.1449324,0.130167 0.2337841,0.160707 0.049285,0.01695 0.1065699,-0.01695 0.155856,0 0.034851,0.01198 0.045071,0.06342 0.077927,0.08036 0.023234,0.01198 0.054695,-0.01198 0.077927,0 0.032856,0.01695 0.045071,0.06342 0.077927,0.08036 0.023234,0.01198 0.054695,-0.01198 0.077927,0 0.032856,0.01695 0.045071,0.06342 0.077927,0.08036 0.023234,0.01198 0.054695,-0.01198 0.077927,0 0.032856,0.01695 0.045071,0.06342 0.077927,0.08035 0.023234,0.01198 0.051952,0 0.077927,0 0.025975,0 0.051952,0 0.077927,0 0.155856,0 0.3117119,0 0.467568,0 0.025976,0 0.051952,0 0.077927,0 0.025975,0 0.05956,0.01894 0.077927,0 0.018367,-0.01894 -0.018367,-0.06142 0,-0.08035 0.018367,-0.01895 0.051952,0 0.077927,0 0.025975,0 0.051952,0 0.077927,0 0.1298801,0 0.25976,0 0.38964,0 0.051952,0 0.10657,0.01695 0.1558559,0 0.034851,-0.01198 0.043077,-0.06838 0.077927,-0.08036 0.116892,-0.04019 0.272748,0.04019 0.3896401,0 0.034851,-0.01198 0.045071,-0.06342 0.077927,-0.08036 0.00408,-0.0021 0.2297071,-0.0021 0.2337839,0 0.032856,0.01695 0.045071,0.06342 0.077927,0.08036 0.023234,0.01198 0.051952,0 0.077927,0 0.025975,0 0.051952,0 0.077927,0 0.1818318,0 0.363664,0 0.545496,0 0.077927,0 0.159855,-0.02541 0.233784,0 0.03485,0.01198 0.045071,0.06342 0.077927,0.08036 0.046466,0.02395 0.1093888,-0.02396 0.1558561,0 0.032856,0.01695 0.045071,0.06342 0.077927,0.08035 0.046468,0.02396 0.1093886,-0.02396 0.155856,0 0.032856,0.01695 0.045071,0.06342 0.077927,0.08036 0.023234,0.01198 0.054695,-0.01198 0.077927,0 0.032857,0.01695 0.045071,0.06342 0.077927,0.08036 0.046468,0.02395 0.1191205,-0.03788 0.155856,0 0.018367,0.01894 -0.018367,0.06142 0,0.08036 0.036737,0.03788 0.1093887,-0.02396 0.1558561,0 0.065714,0.03389 0.090142,0.126829 0.155856,0.160708 0.023234,0.01198 0.051952,0 0.077927,0 0.025975,0.02679 0.045071,0.06342 0.077927,0.08036 0.023234,0.01198 0.05956,-0.01894 0.077927,0 0.036737,0.03788 -0.036737,0.122828 0,0.160706 0.018367,0.01894 0.054695,-0.01198 0.077927,0 0.020691,0.0107 0.2234388,0.219728 0.233784,0.241063 0.011617,0.02396 -0.018367,0.06142 0,0.08036 0.018367,0.01895 0.05956,-0.01894 0.077927,0 0.018368,0.01895 -0.018367,0.06142 0,0.08036 0.018368,0.01894 0.059561,-0.01895 0.077927,0 0.018367,0.01894 -0.011617,0.0564 0,0.08036 0.032856,0.06776 0.1229985,0.09294 0.155856,0.160709 0.011617,0.02396 -0.011617,0.0564 0,0.08036 0.046755,0.09642 0.1870272,0.144637 0.2337839,0.24106 0.011617,0.02396 -0.018367,0.06142 0,0.08035 0.018367,0.01894 0.05956,-0.01895 0.077927,0 0.018367,0.01894 -0.018367,0.06142 0,0.08036 0.018367,0.01894 0.05956,-0.01895 0.077927,0 0.018367,0.01894 -0.011617,0.0564 0,0.08036 0.1621588,0.334414 -0.00538,-0.0859 0.155856,0.08036 0.018367,0.01894 -0.018367,0.06142 0,0.08036 0.018367,0.01895 0.05956,-0.01894 0.077927,0 0.018367,0.01895 -0.018367,0.06142 0,0.08036 0.036737,0.03788 0.1191205,-0.03788 0.155856,0 0.018367,0.01895 -0.018367,0.06142 0,0.08035 0.018367,0.01894 0.054695,-0.01198 0.077927,0 0.032856,0.01695 0.045071,0.06342 0.077927,0.08035 0.041232,0.02126 0.1146235,-0.02126 0.1558559,0 0.032856,0.01695 0.045071,0.06342 0.077927,0.08036 0.030898,0.01593 0.2178532,-0.01644 0.2337838,0 0.018371,0.01894 -0.018371,0.06142 0,0.08036 0.021321,0.02198 0.2694377,-0.02179 0.3117133,0 0.1925908,0.09928 -0.026905,0.08036 0.1558548,0.08036 0.05523,0 0.44742,0.01038 0.467569,0 0.03287,-0.01695 0.04506,-0.06342 0.07794,-0.08036 0.04898,-0.02526 0.262733,0.02526 0.311713,0 0.03285,-0.01695 0.04307,-0.06837 0.07794,-0.08036 0.04928,-0.01695 0.103905,0 0.155856,0 0.02598,0 0.0547,0.01198 0.07794,0 0.03285,-0.01695 0.04507,-0.06342 0.07794,-0.08036 0.0309,-0.01593 0.217852,0.01644 0.233784,0 0.01837,-0.01894 -0.01838,-0.06142 0,-0.08035 0.01837,-0.01894 0.05196,0 0.07794,0 0.05421,0 0.361461,-0.01453 0.389642,0 0.03286,0.01695 0.04507,0.06342 0.07794,0.08035 0.04647,0.02396 0.10939,-0.02395 0.155857,0 0.03287,0.01695 0.04507,0.06342 0.07794,0.08036 0.04127,0.02128 0.114583,-0.02128 0.155855,0 0.03286,0.01695 0.05195,0.05358 0.07794,0.08036 0.02598,0.02679 0.0615,0.04649 0.07794,0.08036 0.01163,0.02396 -0.01162,0.0564 0,0.08036 0.162159,0.334413 -0.0054,-0.08591 0.155857,0.08036 0.01838,0.01895 -0.01838,0.06142 0,0.08036 0.01594,0.01643 0.202885,-0.01593 0.233783,0 0.03286,0.01695 0.04507,0.06342 0.07793,0.08035 0.0282,0.01453 0.335439,0 0.389641,0 0.337688,0 0.675375,0 1.013065,0 0.02598,0 0.0547,0.01198 0.07794,0 0.02029,-0.01048 0.09494,-0.14317 0.155856,-0.08035 0.01838,0.01894 -0.01837,0.06142 0,0.08035 0.02414,0.02488 0.365511,-0.02488 0.389641,0 0.01836,0.01894 -0.01838,0.06142 0,0.08036 0.02581,0.0266 0.130059,-0.0266 0.155856,0 0.02555,0.02635 -0.02555,0.134356 0,0.160707 0.01838,0.01895 0.05956,-0.01894 0.07793,0 0.01838,0.01895 -0.01837,0.06142 0,0.08036 0.01838,0.01895 0.05956,-0.01894 0.07794,0 0.01838,0.01895 -0.01837,0.06142 0,0.08036 0.03674,0.03788 0.10939,-0.02396 0.155856,0 0.03287,0.01695 0.04507,0.06342 0.07794,0.08035 0.02323,0.01198 0.05195,0 0.07794,0 0.02598,0 0.05196,0 0.07794,0 0.155857,0 0.311712,0 0.467568,0 0.05381,0 0.28802,0.01222 0.311713,0 0.19259,-0.09928 -0.02691,-0.08035 0.155856,-0.08035 0.05195,0 0.106569,0.01695 0.155854,0 0.05511,-0.01895 0.09951,-0.06583 0.155857,-0.08036 0.0756,-0.0195 0.159856,0.02541 0.233784,0 0.05511,-0.01894 0.0995,-0.06583 0.155857,-0.08036 0.100806,-0.02598 0.210909,0.02598 0.311712,0 0.05635,-0.01453 0.09952,-0.06583 0.155854,-0.08036 0.05039,-0.013 0.103905,0 0.155858,0 0.02598,0 0.05469,0.01198 0.07794,0 0.03287,-0.01695 0.04506,-0.06342 0.07794,-0.08036 0.04647,-0.02395 0.119119,0.03788 0.155854,0 0,-0.214276 -0.02598,0.02679 0.07794,-0.08036 0.01837,-0.01895 -0.01838,-0.06142 0,-0.08036 0.01837,-0.01895 0.05956,0.01894 0.07794,0 0.01838,-0.01895 -0.01836,-0.06142 0,-0.08036 0.03674,-0.03788 0.109389,0.02396 0.155855,0 0.03287,-0.01695 0.04507,-0.06342 0.07794,-0.08035 0.04647,-0.02396 0.109389,0.02396 0.155855,0 0.03287,-0.01695 0.04507,-0.06342 0.07794,-0.08036 0.06235,-0.03215 0.171442,0.03215 0.233786,0 0.03287,-0.01695 0.04506,-0.06342 0.07794,-0.08036 0.02324,-0.01198 0.0547,0.01198 0.07794,0 0.03287,-0.01695 0.04506,-0.06342 0.07794,-0.08035 0.02323,-0.01198 0.05956,0.01894 0.07794,0 0.01837,-0.01895 -0.01837,-0.06142 0,-0.08036 0.304132,-0.313598 0.04185,0.01861 0.233784,-0.08036 0.06571,-0.03389 0.09014,-0.126826 0.155856,-0.160707 0.02324,-0.01198 0.0547,0.01198 0.07794,0 0.03287,-0.01695 0.04506,-0.06342 0.07794,-0.08035 0.02323,-0.01198 0.05328,0.0085 0.07794,0 0.05511,-0.01894 0.100756,-0.06142 0.155858,-0.08036 0.04928,-0.01695 0.109387,0.02395 0.155856,0 0.03287,-0.01695 0.04506,-0.06342 0.07794,-0.08036 0.06234,-0.03215 0.171442,0.03215 0.233784,0 0.03287,-0.01695 0.04506,-0.06342 0.07794,-0.08035 0.04598,-0.02371 0.180183,0.01843 0.233785,0 0.05511,-0.01895 0.100756,-0.06142 0.155858,-0.08036 0.0828,-0.02847 0.228903,0.02847 0.311712,0 0.03484,-0.01198 0.04507,-0.06342 0.07794,-0.08036 0.02324,-0.01198 0.05196,0 0.07794,0 0.05196,0 0.106572,0.01695 0.155857,0 0.03484,-0.01198 0.04507,-0.06342 0.07793,-0.08036 0.04944,-0.02548 0.339015,0.0261 0.389639,0 0.03287,-0.01695 0.04307,-0.06838 0.07794,-0.08035 0.04189,-0.0144 0.245733,0 0.311711,0 0.207809,0 0.415616,0 0.623425,0 0.0351,0 0.210067,0.01223 0.233784,0 0.06571,-0.03389 0.09014,-0.126827 0.155856,-0.160707 0.02324,-0.01198 0.0547,0.01198 0.07793,0 0.06908,-0.03562 0.162844,-0.192296 0.233784,-0.241061 0.04834,-0.03323 0.107526,-0.04714 0.155855,-0.08036 0.11467,-0.07884 0.197045,-0.242591 0.311714,-0.321416 0.179178,-0.12317 0.210459,-0.03753 0.38964,-0.160707 0.03056,-0.02101 0.04736,-0.05935 0.07794,-0.08036 0.04834,-0.03323 0.107528,-0.04714 0.155857,-0.08036 0.03057,-0.02101 0.04507,-0.06342 0.07794,-0.08035 0.02324,-0.01198 0.0547,0.01198 0.07794,0 0.06571,-0.03389 0.08616,-0.13675 0.155855,-0.160708 0.04928,-0.01695 0.106571,0.01695 0.155856,0 0.06936,-0.02385 0.164422,-0.217221 0.233784,-0.24106 0.51691,0 -0.110207,0.03788 0.233784,-0.08036 0.04928,-0.01695 0.105455,0.013 0.155856,0 0.05635,-0.01453 0.100756,-0.06142 0.155857,-0.08036 0.02465,-0.0085 0.05195,0 0.07794,0 0.07794,0 0.15737,0.01576 0.233784,0 0.05695,-0.01175 0.0995,-0.06583 0.155856,-0.08036 0.05039,-0.013 0.103904,0 0.155856,0 0.05195,0 0.103903,0 0.155855,0 0.181832,0 0.363665,0 0.545496,0 0.129881,0 0.259761,0 0.389642,0 0.02598,0 0.05196,0 0.07794,0 0.02598,0 0.0547,-0.01198 0.07794,0 0.03287,0.01695 0.04506,0.06342 0.07794,0.08036 0.0066,0.0035 0.305068,0.0035 0.311712,0 0.03286,-0.01695 0.04507,-0.06342 0.07794,-0.08036 0.02323,-0.01198 0.05196,0 0.07794,0 0.02598,0 0.05196,0 0.07793,0 0.03674,0 0.386109,0.0037 0.389638,0 0.01838,-0.01895 -0.01837,-0.06142 0,-0.08035 0.02132,-0.02199 0.269438,0.0218 0.311714,0 0.03287,-0.01695 0.04506,-0.06342 0.07794,-0.08035 0.06234,-0.03215 0.171442,0.03215 0.233785,0 0.03287,-0.01695 0.04307,-0.06838 0.07794,-0.08036 0.354751,0 0.0045,0.03788 0.233785,-0.08036 0.04647,-0.02395 0.109388,0.02396 0.155857,0 0.06571,-0.03389 0.09013,-0.126828 0.155854,-0.160707 0.02324,-0.01198 0.05956,0.01894 0.07794,0 0.01837,-0.01895 -0.01838,-0.06142 0,-0.08035 0.01837,-0.01894 0.0547,0.01198 0.07793,0 0.06572,-0.03389 0.09015,-0.126826 0.155856,-0.160707 0.02324,-0.01198 0.0547,0.01198 0.07793,0 0.03287,-0.01695 0.04506,-0.06342 0.07794,-0.08036 0.02323,-0.01198 0.05956,0.01895 0.07794,0 0.01838,-0.01894 -0.01837,-0.06142 0,-0.08036 0.01838,-0.01895 0.05956,-0.01895 0.07794,0 0.06092,0.06282 -0.06779,0.139786 -0.07794,0.160706 -0.02324,0.04792 0.03674,0.122828 0,0.160707 -0.01837,0.01894 -0.05956,-0.01894 -0.07794,0 -0.01838,0.01894 0,0.05358 0,0.08036 0,0.02679 0,0.05358 0,0.08035 0,0.321416 0,0.642832 0,0.964245 0,0.187493 0,0.374985 0,0.562477 0,0.02679 -0.01838,0.06142 0,0.08035 0.01837,0.01895 0.05956,-0.01894 0.07794,0 0.03897,0.04019 -0.03896,0.200885 0,0.241062 0.01838,0.01895 0.05956,-0.01894 0.07794,0 0.0078,0.0081 0.0078,0.233026 0,0.241062 -0.01837,0.01894 -0.05956,-0.01895 -0.07794,0 -0.0024,0.0025 0,0.221572 0,0.24106 0,0.02679 0,0.05358 0,0.08035 0,0.02679 -0.01837,0.06142 0,0.08036 0.01838,0.01895 0.05956,-0.01894 0.07794,0 0.01838,0.01895 0.01838,0.06142 0,0.08036 -0.01837,0.01894 -0.05956,-0.01895 -0.07794,0 -0.01837,0.01894 0.01838,0.06142 0,0.08036 -0.01837,0.01894 -0.0547,-0.01198 -0.07794,0 -0.0374,0.01929 -0.118445,0.141421 -0.155856,0.160708 -0.02324,0.01198 -0.05956,-0.01894 -0.07794,0 -0.01838,0.01894 0.01838,0.06142 0,0.08036 -0.01838,0.01895 -0.0547,-0.01198 -0.07794,0 -0.03286,0.01695 -0.04506,0.06342 -0.07793,0.08036 -0.02324,0.01198 -0.0547,-0.01198 -0.07794,0 -0.03287,0.01695 -0.04507,0.06342 -0.07794,0.08036 -0.04167,0.02149 -0.114184,-0.02149 -0.155856,0 -0.03287,0.01695 -0.04506,0.06342 -0.07794,0.08035 -0.02324,0.01198 -0.05328,-0.0085 -0.07794,0 -0.05511,0.01895 -0.100756,0.06142 -0.155856,0.08036 -0.02465,0.0085 -0.05328,-0.0085 -0.07794,0 -0.564464,0.194013 0.122862,-0.02317 -0.233784,0.160708 -0.02323,0.01198 -0.05196,0 -0.07794,0 -0.05196,0.02679 -0.107527,0.04714 -0.155856,0.08035 -0.03057,0.02102 -0.04506,0.06342 -0.07793,0.08036 -0.04647,0.02396 -0.119119,-0.03788 -0.155856,0 -0.01836,0.01895 0.01837,0.06142 0,0.08035 -0.02594,0.02675 -0.129921,-0.02675 -0.155856,0 -0.01837,0.01894 0.01838,0.06142 0,0.08036 -0.03673,0.03788 -0.11912,-0.03788 -0.155856,0 -0.01838,0.01894 0.01836,0.06142 0,0.08036 -0.03673,0.03788 -0.10939,-0.02395 -0.155856,0 -0.03287,0.01695 -0.04506,0.06342 -0.07794,0.08036 -0.02323,0.01198 -0.05195,0 -0.07794,0 -0.05196,0 -0.10657,-0.01695 -0.155857,0 -0.03484,0.01198 -0.04506,0.06342 -0.07794,0.08036 -0.02324,0.01198 -0.05328,-0.0085 -0.07794,0 -0.05511,0.01895 -0.100755,0.06142 -0.155856,0.08036 -0.04928,0.01695 -0.10939,-0.02395 -0.155857,0 -0.06571,0.03389 -0.09014,0.126828 -0.155856,0.160707 -0.02324,0.01198 -0.0547,-0.01198 -0.07794,0 -0.03287,0.01695 -0.04506,0.06342 -0.07794,0.08035 -0.02324,0.01198 -0.05469,-0.01198 -0.07794,0 -0.03287,0.01695 -0.04507,0.06342 -0.07794,0.08036 -0.02324,0.01198 -0.0547,-0.01198 -0.07794,0 -0.03287,0.01695 -0.04307,0.06838 -0.07794,0.08036 -0.04928,0.01695 -0.106569,-0.01695 -0.155857,0 -0.03484,0.01198 -0.04507,0.06342 -0.07794,0.08036 -0.04647,0.02395 -0.109389,-0.02396 -0.155856,0 -0.03287,0.01695 -0.04507,0.06342 -0.07794,0.08036 -0.04168,0.02149 -0.114185,-0.02149 -0.155856,0 -0.03287,0.01695 -0.04307,0.06838 -0.07794,0.08036 -0.35475,0 -0.0045,-0.03788 -0.233783,0.08036 -0.02324,0.01198 -0.05196,0 -0.07794,0 -0.05196,0 -0.10657,-0.01695 -0.155856,0 -0.03484,0.01198 -0.04507,0.06342 -0.07794,0.08035 -0.02323,0.01198 -0.05328,-0.0085 -0.07794,0 -0.05511,0.01894 -0.100745,0.06142 -0.155855,0.08036 -0.04668,0.01605 -0.109173,-0.01605 -0.155857,0 -0.05511,0.01894 -0.100755,0.06142 -0.155854,0.08035 -0.02465,0.0085 -0.0547,-0.01198 -0.07794,0 -0.03287,0.01695 -0.04506,0.06342 -0.07794,0.08036 -0.02324,0.01198 -0.05196,0 -0.07794,0 -0.05195,0 -0.10657,-0.01695 -0.155856,0 -0.03485,0.01198 -0.04506,0.06342 -0.07794,0.08036 -0.02323,0.01198 -0.05328,-0.0085 -0.07794,0 -0.05196,0.02679 -0.103903,0.05358 -0.155855,0.08036 -0.02598,0 -0.05328,-0.0085 -0.07794,0 -0.08087,0.0278 -0.230849,0.132914 -0.311713,0.160707 -0.231977,0.07973 0.159895,-0.190266 -0.233784,0.08035 -0.03056,0.02102 -0.04506,0.06342 -0.07794,0.08036 -0.02324,0.01198 -0.0547,-0.01198 -0.07794,0 -0.03287,0.01695 -0.04507,0.06342 -0.07794,0.08036 -0.04647,0.02396 -0.119119,-0.03788 -0.155856,0 -0.01837,0.01894 0.01838,0.06142 0,0.08035 -0.01594,0.01644 -0.202885,-0.01593 -0.233784,0 -0.03287,0.01695 -0.04507,0.06342 -0.07794,0.08036 -0.02324,0.01198 -0.0547,-0.01198 -0.07794,0 -0.03287,0.01695 -0.04507,0.06342 -0.07794,0.08036 -0.02323,0.01198 -0.05195,0 -0.07793,0 -0.05196,0 -0.10657,-0.01695 -0.155856,0 -0.03484,0.01198 -0.04506,0.06342 -0.07794,0.08036 -0.02324,0.01198 -0.05196,0 -0.07794,0 -0.02598,0.02679 -0.04507,0.06342 -0.07794,0.08036 -0.02324,0.01198 -0.05195,0 -0.07794,0 -0.05196,0 -0.106571,-0.01695 -0.155857,0 -0.03484,0.01198 -0.04507,0.06342 -0.07794,0.08035 -0.02324,0.01198 -0.0547,-0.01198 -0.07794,0 -0.03287,0.01695 -0.04506,0.06342 -0.07794,0.08036 -0.02324,0.01198 -0.05469,-0.01198 -0.07794,0 -0.177374,0.182898 0.01614,0.02124 -0.155855,0.08036 -0.564465,0.194011 0.122862,-0.02317 -0.233784,0.160707 -0.04647,0.02395 -0.10939,-0.02396 -0.155856,0 -0.03287,0.01695 -0.04507,0.06342 -0.07794,0.08035 -0.02323,0.01198 -0.05196,0 -0.07794,0 -0.02598,0.02679 -0.04507,0.06342 -0.07794,0.08036 -0.04127,0.02128 -0.114583,-0.02128 -0.155856,0 -0.03287,0.01695 -0.04507,0.06342 -0.07794,0.08036 -0.04124,0.02126 -0.114625,-0.02126 -0.155856,0 -0.03287,0.01695 -0.04506,0.06342 -0.07794,0.08036 -0.04127,0.02128 -0.114583,-0.02128 -0.155856,0 -0.03287,0.01695 -0.04506,0.06342 -0.07794,0.08036 -0.04127,0.02128 -0.114582,-0.02128 -0.155856,0 -0.03287,0.01695 -0.04506,0.06342 -0.07793,0.08035 -0.02323,0.01198 -0.05328,-0.0085 -0.07794,0 -0.05511,0.01894 -0.100756,0.06142 -0.155858,0.08036 -0.02465,0.0085 -0.05469,-0.01198 -0.07794,0 -0.03287,0.01695 -0.04506,0.06342 -0.07794,0.08035 -0.02323,0.01198 -0.0547,-0.01198 -0.07794,0 -0.09351,0.04822 -0.14027,0.19285 -0.233785,0.241062 -0.02324,0.01198 -0.05956,-0.01895 -0.07794,0 -0.01838,0.01894 0.01837,0.06142 0,0.08036 -0.01838,0.01894 -0.0547,-0.01198 -0.07794,0 -0.03287,0.01695 -0.04507,0.06342 -0.07794,0.08035 -0.02324,0.01198 -0.05196,0 -0.07794,0 -0.05196,0 -0.106569,-0.01695 -0.155856,0 -0.03485,0.01198 -0.04507,0.06342 -0.07794,0.08036 -0.04647,0.02395 -0.106569,-0.01695 -0.155854,0 -0.05511,0.01894 -0.100755,0.06142 -0.155858,0.08035 -0.04928,0.01695 -0.109389,-0.02396 -0.155856,0 -0.03287,0.01695 -0.04307,0.06838 -0.07794,0.08036 -0.05639,0.01939 -0.286024,-0.02649 -0.311713,0 -0.01837,0.01895 0.01838,0.06142 0,0.08035 -0.01594,0.01644 -0.202885,-0.01593 -0.233783,0 -0.03287,0.01695 -0.04506,0.06342 -0.07794,0.08036 -0.02324,0.01198 -0.05196,0 -0.07794,0 -0.05571,0 -0.427677,-0.01372 -0.467569,0 -0.03485,0.01198 -0.04506,0.06342 -0.07794,0.08036 -0.05134,0.02647 -0.395504,-0.02478 -0.467568,0 -0.288888,0.09928 0.09499,0.08035 -0.155856,0.08035 -0.05195,0 -0.103904,0 -0.155856,0 -0.02598,0 -0.0547,-0.01198 -0.07794,0 -0.03287,0.01695 -0.04506,0.06342 -0.07794,0.08036 -0.06235,0.03215 -0.171441,-0.03215 -0.233784,0 -0.03287,0.01695 -0.04507,0.06342 -0.07794,0.08036 -0.0309,0.01593 -0.217854,-0.01643 -0.233784,0 -0.01838,0.01894 0.01838,0.06142 0,0.08036 -0.03674,0.03788 -0.10939,-0.02396 -0.155855,0 -0.03287,0.01695 -0.04507,0.06342 -0.07794,0.08035 -0.04647,0.02396 -0.109388,-0.02396 -0.155855,0 -0.03287,0.01695 -0.04506,0.06342 -0.07794,0.08035 -0.02324,0.01198 -0.0547,-0.01198 -0.07794,0 -0.03287,0.01695 -0.04507,0.06342 -0.07794,0.08036 -0.0205,0.01059 -0.270961,0 -0.311712,0 -0.02598,0 -0.05195,0 -0.07794,0 -0.02598,0 -0.0547,0.01198 -0.07794,0 -0.03287,-0.01695 -0.04507,-0.06342 -0.07794,-0.08036 -0.02323,-0.01198 -0.0547,0.01198 -0.07794,0 -0.03287,-0.01695 -0.04507,-0.06342 -0.07794,-0.08035 -0.04898,-0.02526 -0.262732,0.02526 -0.311711,0 -0.03287,-0.01695 -0.04507,-0.06342 -0.07794,-0.08035 -0.06235,-0.03215 -0.171442,0.03215 -0.233785,0 -0.09352,-0.04821 -0.140271,-0.192849 -0.233784,-0.241061 -0.02324,-0.01198 -0.0547,0.01198 -0.07794,0 -0.03287,-0.01695 -0.04507,-0.06342 -0.07794,-0.08036 -0.04128,-0.02128 -0.114582,0.02128 -0.155856,0 -0.03287,-0.01695 -0.04507,-0.06342 -0.07794,-0.08036 -0.04228,-0.02179 -0.290389,0.02198 -0.311712,0 -0.01837,-0.01894 0.01162,-0.0564 0,-0.08036 -0.01644,-0.03389 -0.0615,-0.04649 -0.07793,-0.08036 -0.01162,-0.02396 0.01837,-0.06142 0,-0.08036 -0.01838,-0.01894 -0.05956,0.01895 -0.07794,0 -0.01837,-0.01894 0.02324,-0.06838 0,-0.08036 -0.04898,-0.02526 -0.262731,0.02526 -0.311711,0 -0.03286,-0.01695 -0.04507,-0.06342 -0.07794,-0.08035 -0.02323,-0.01198 -0.05196,0 -0.07794,0 -0.02598,0 -0.05195,0 -0.07794,0 -0.01891,0 -0.231279,0.0025 -0.233784,0 -0.01838,-0.01894 0.01838,-0.06142 0,-0.08036 -0.01838,-0.01895 -0.05956,0.01894 -0.07794,0 -0.01836,-0.01895 0.01838,-0.06142 0,-0.08036 -0.01836,-0.01895 -0.05956,0.01894 -0.07794,0 -0.01838,-0.01895 0.01838,-0.06142 0,-0.08036 -0.01838,-0.01894 -0.0547,0.01198 -0.07794,0 -0.03287,-0.01695 -0.04507,-0.06342 -0.07794,-0.08036 -0.03469,-0.01788 -0.276069,0.01225 -0.311711,0 -0.288889,-0.09929 0.09499,-0.08036 -0.155858,-0.08036 -0.0351,0 -0.210066,0.01223 -0.233783,0 -0.03287,-0.01695 -0.04507,-0.06342 -0.07794,-0.08036 -0.04647,-0.02396 -0.109388,0.02396 -0.155855,0 -0.03287,-0.01695 -0.04507,-0.06342 -0.07794,-0.08035 -0.02324,-0.01198 -0.0547,0.01198 -0.07794,0 -0.03287,-0.01695 -0.04507,-0.06342 -0.07794,-0.08036 -0.02324,-0.01198 -0.0547,0.01198 -0.07794,0 -0.03286,-0.01695 -0.04507,-0.06342 -0.07794,-0.08036 -0.04123,-0.02126 -0.114624,0.02126 -0.155857,0 -0.03286,-0.01695 -0.04507,-0.06342 -0.07794,-0.08036 -0.0309,-0.01593 -0.217853,0.01644 -0.233785,0 -0.01838,-0.01895 0.01838,-0.06142 0,-0.08036 -0.03896,-0.04019 -0.194819,0.04019 -0.233784,0 -0.1612351,-0.166254 0.246391,0.0065 -0.077939,-0.160706 -0.023243,-0.01198 -0.054696,0.01198 -0.077939,0 -0.032846,-0.01695 -0.045073,-0.06342 -0.077929,-0.08036 -0.023233,-0.01198 -0.054696,0.01198 -0.077929,0 -0.040333,-0.0208 -0.1155236,-0.139915 -0.1558556,-0.160709 -0.023234,-0.01198 -0.054695,0.01198 -0.077927,0 -0.032856,-0.01695 -0.045071,-0.06342 -0.077927,-0.08036 -0.023234,-0.01198 -0.051952,0 -0.077927,0 -0.025975,-0.02679 -0.045071,-0.06342 -0.077927,-0.08036 -0.062342,-0.03215 -0.1714416,0.03215 -0.2337839,0 -0.1925917,-0.09928 0.026898,-0.08036 -0.1558561,-0.08036 -0.182755,0 0.036737,0.01895 -0.1558561,-0.08035 -0.023234,-0.01198 -0.054695,0.01198 -0.077927,0 -0.065715,-0.03389 -0.090141,-0.126826 -0.155856,-0.160706 -0.023234,-0.01198 -0.054695,0.01198 -0.077927,0 -0.032856,-0.01695 -0.045071,-0.06342 -0.077927,-0.08036 -0.023234,-0.01198 -0.054695,0.01198 -0.077927,0 -0.032857,-0.01695 -0.045071,-0.06342 -0.077927,-0.08036 -0.049431,-0.02548 -0.3390162,0.02611 -0.3896399,0 -0.032857,-0.01695 -0.045071,-0.06342 -0.077927,-0.08035 -0.062342,-0.03215 -0.1714416,0.03215 -0.2337839,0 -0.023343,-0.01203 -0.1325141,-0.148673 -0.155856,-0.160707 -0.023234,-0.01198 -0.054695,0.01198 -0.077927,0 -0.2584547,-0.266499 0.073471,0.03788 -0.1558561,-0.08036 -0.032856,-0.01695 -0.045071,-0.06342 -0.077927,-0.08036 -0.046466,-0.02396 -0.1093888,0.02395 -0.1558561,0 -0.032857,-0.01695 -0.045071,-0.06342 -0.077927,-0.08035 -0.023234,-0.01198 -0.051952,0 -0.077927,0 -0.032781,0 -0.4443863,0.01195 -0.467568,0 -0.032856,-0.01695 -0.045071,-0.06342 -0.077927,-0.08036 -0.023234,-0.01198 -0.05956,0.01895 -0.077927,0 -0.018367,-0.01894 0.018367,-0.06142 0,-0.08036 -0.036737,-0.03788 -0.1093887,0.02395 -0.155856,0 -0.2584547,-0.2665 0.073472,0.03788 -0.155856,-0.08035 -0.032856,-0.01695 -0.043077,-0.06838 -0.077927,-0.08036 -0.049285,-0.01695 -0.1039041,0 -0.1558561,0 -0.025976,0 -0.054695,0.01198 -0.077927,0 -0.032856,-0.01695 -0.043077,-0.06838 -0.077927,-0.08036 -0.049285,-0.01695 -0.1039041,0 -0.1558562,0 -0.025975,0 -0.054695,0.01198 -0.077927,0 -0.032856,-0.01695 -0.045071,-0.06342 -0.077927,-0.08036 -0.062342,-0.03215 -0.1714416,0.03215 -0.233784,0 -0.032856,-0.01695 -0.045071,-0.06342 -0.077927,-0.08035 -0.046467,-0.02396 -0.1191203,0.03788 -0.1558558,0 -0.018367,-0.01895 0.018367,-0.06142 0,-0.08036 -0.036737,-0.03788 -0.109389,0.02396 -0.1558562,0 -0.032856,-0.01695 -0.045071,-0.06342 -0.077927,-0.08036 -0.046466,-0.02396 -0.1065699,0.01695 -0.1558561,0 -0.055104,-0.01894 -0.1007534,-0.06142 -0.1558559,-0.08035 -0.049285,-0.01695 -0.1093887,0.02395 -0.155856,0 -0.032856,-0.01695 -0.045071,-0.06342 -0.077927,-0.08036 -0.046468,-0.02395 -0.1191204,0.03788 -0.155856,0 -0.018367,-0.01894 0.018367,-0.06142 0,-0.08036 -0.036737,-0.03788 -0.1093889,0.02395 -0.1558561,0 -0.065714,-0.03389 -0.086155,-0.13675 -0.155856,-0.160707 -0.049285,-0.01695 -0.1039039,0 -0.1558559,0 -0.025975,0 -0.054695,0.01198 -0.077927,0 -0.032856,-0.01695 -0.045071,-0.06342 -0.077927,-0.08036 -0.046468,-0.02396 -0.1093888,0.02395 -0.1558561,0 -0.032857,-0.01695 -0.045071,-0.06342 -0.077927,-0.08035 -0.062342,-0.03215 -0.1714416,0.03215 -0.233784,0 -0.032856,-0.01695 -0.045071,-0.06342 -0.077927,-0.08036 -0.046468,-0.02396 -0.1093887,0.02396 -0.155856,0 -0.032856,-0.01695 -0.045071,-0.06342 -0.077927,-0.08036 -0.023234,-0.01198 -0.054695,0.01198 -0.077927,0 -0.032856,-0.01695 -0.045071,-0.06342 -0.077927,-0.08036 -0.046466,-0.02395 -0.1093887,0.02396 -0.1558559,0 -0.065715,-0.03389 -0.090141,-0.126826 -0.1558561,-0.160706 -0.023234,-0.01198 -0.054695,0.01198 -0.077927,0 -0.032856,-0.01695 -0.045071,-0.06342 -0.077927,-0.08036 -0.023234,-0.01198 -0.054695,0.01198 -0.077927,0 -0.032857,-0.01695 -0.045071,-0.06342 -0.077927,-0.08036 -0.023234,-0.01198 -0.05956,0.01894 -0.077927,0 -0.018367,-0.01895 0.018368,-0.06142 0,-0.08036 -0.018367,-0.01894 -0.05956,0.01895 -0.077927,0 -0.018367,-0.01894 0.018367,-0.06142 0,-0.08035 -0.018367,-0.01894 -0.054695,0.01198 -0.077927,0 -0.032857,-0.01695 -0.045071,-0.06342 -0.077927,-0.08036 -0.023234,-0.01198 -0.05956,0.01895 -0.077927,0 -0.018368,-0.01895 0.018367,-0.06142 0,-0.08036 -0.1612359,-0.166254 0.00631,0.254059 -0.15585613,-0.08036 -0.0232343,-0.04792 0.0232343,-0.112795 0,-0.160709 -0.0164291,-0.03389 -0.061498,-0.04649 -0.077927,-0.08036 -0.0232343,-0.04792 0.0232343,-0.112794 0,-0.160708 -0.0164291,-0.03389 -0.061498,-0.04649 -0.077927,-0.08036 -0.0116166,-0.02396 0.0116166,-0.0564 0,-0.08034 -0.0164291,-0.03389 -0.061498,-0.04648 -0.077927,-0.08036 -0.0116166,-0.02396 0,-0.05358 0,-0.08036 0,-0.160709 0,-0.321416 0,-0.482124 0,-0.02679 -0.0183669,-0.06142 0,-0.08035 0.0183679,-0.01894 0.0595601,0.01894 0.077927,0 0.027354,-0.02822 -0.0269136,-0.346265 0,-0.401768 0.25845471,-0.2665 -0.0367368,0.07576 0.077927,-0.160708 0.0164291,-0.03389 0.061498,-0.04649 0.077927,-0.08035 0.0118567,-0.02445 0,-0.204874 0,-0.24106 0,-0.02679 0.0183669,-0.06142 0,-0.08036 -0.0183669,-0.01894 -0.0595602,0.01895 -0.077927,0 -0.0183669,-0.01894 -0.0183669,-0.06142 0,-0.08036 0.0183669,-0.01894 0.0595612,0.01894 0.077927,0 0.02558,-0.02638 -0.025581,-0.13433 0,-0.160707 0.0183669,-0.01895 0.0519524,0 0.077927,0 0.077927,-0.133922 0.155856,-0.267846 0.5454959,-0.08036 z"
       id="path3780" />
    <path
       style="fill:none;stroke:#888a85;stroke-width:1.05343902;stroke-linecap:butt;stroke-linejoin:miter;stroke-miterlimit:4;stroke-opacity:1;stroke-dasharray:none;stroke-dashoffset:0"
       d="m 16.060284,0.9687872 -15.09901814,6.3010264 0,18.0322064 L 16.025333,31.073692 31.05445,25.30202 31.036968,7.2698136 16.060279,0.9687872 z"
       id="rect2370"
       sodipodi:nodetypes="ccccccc" />
    <path
       sodipodi:type="arc"
       style="fill:#ffffff;fill-opacity:1;stroke:#000000;stroke-width:0.2;stroke-miterlimit:4;stroke-opacity:1;stroke-dasharray:none"
       id="path3991"
       sodipodi:cx="-4.920188"
       sodipodi:cy="11.530517"
       sodipodi:rx="1.0892019"
       sodipodi:ry="1.0892019"
       d="m -3.830986,11.530517 a 1.0892019,1.0892019 0 1 1 -2.1784039,0 1.0892019,1.0892019 0 1 1 2.1784039,0 z"
       transform="matrix(0.51317923,0,0,0.52915331,14.472466,0.01360072)" />
    <path
       transform="matrix(0.51317923,0,0,0.52915331,20.472922,0.2546619)"
       d="m -3.830986,11.530517 a 1.0892019,1.0892019 0 1 1 -2.1784039,0 1.0892019,1.0892019 0 1 1 2.1784039,0 z"
       sodipodi:ry="1.0892019"
       sodipodi:rx="1.0892019"
       sodipodi:cy="11.530517"
       sodipodi:cx="-4.920188"
       id="path3993"
       style="fill:#ffffff;fill-opacity:1;stroke:#000000;stroke-width:0.2;stroke-miterlimit:4;stroke-opacity:1;stroke-dasharray:none"
       sodipodi:type="arc" />
    <path
       sodipodi:type="arc"
       style="fill:#ffffff;fill-opacity:1;stroke:#000000;stroke-width:0.2;stroke-miterlimit:4;stroke-opacity:1;stroke-dasharray:none"
       id="path3995"
       sodipodi:cx="-4.920188"
       sodipodi:cy="11.530517"
       sodipodi:rx="1.0892019"
       sodipodi:ry="1.0892019"
       d="m -3.830986,11.530517 a 1.0892019,1.0892019 0 1 1 -2.1784039,0 1.0892019,1.0892019 0 1 1 2.1784039,0 z"
       transform="matrix(0.51317923,0,0,0.52915331,24.291394,1.6206751)" />
    <path
       transform="matrix(0.51317923,0,0,0.52915331,24.681034,4.1116406)"
       d="m -3.830986,11.530517 a 1.0892019,1.0892019 0 1 1 -2.1784039,0 1.0892019,1.0892019 0 1 1 2.1784039,0 z"
       sodipodi:ry="1.0892019"
       sodipodi:rx="1.0892019"
       sodipodi:cy="11.530517"
       sodipodi:cx="-4.920188"
       id="path3997"
       style="fill:#ffffff;fill-opacity:1;stroke:#000000;stroke-width:0.2;stroke-miterlimit:4;stroke-opacity:1;stroke-dasharray:none"
       sodipodi:type="arc" />
    <path
       sodipodi:type="arc"
       style="fill:#ffffff;fill-opacity:1;stroke:#000000;stroke-width:0.2;stroke-miterlimit:4;stroke-opacity:1;stroke-dasharray:none"
       id="path3999"
       sodipodi:cx="-4.920188"
       sodipodi:cy="11.530517"
       sodipodi:rx="1.0892019"
       sodipodi:ry="1.0892019"
       d="m -3.830986,11.530517 a 1.0892019,1.0892019 0 1 1 -2.1784039,0 1.0892019,1.0892019 0 1 1 2.1784039,0 z"
       transform="matrix(0.51317923,0,0,0.52915331,30.759418,4.6741166)" />
    <path
       transform="matrix(0.51317923,0,0,0.52915331,30.447707,8.5310953)"
       d="m -3.830986,11.530517 a 1.0892019,1.0892019 0 1 1 -2.1784039,0 1.0892019,1.0892019 0 1 1 2.1784039,0 z"
       sodipodi:ry="1.0892019"
       sodipodi:rx="1.0892019"
       sodipodi:cy="11.530517"
       sodipodi:cx="-4.920188"
       id="path4001"
       style="fill:#ffffff;fill-opacity:1;stroke:#000000;stroke-width:0.2;stroke-miterlimit:4;stroke-opacity:1;stroke-dasharray:none"
       sodipodi:type="arc" />
    <path
       sodipodi:type="arc"
       style="fill:#ffffff;fill-opacity:1;stroke:#000000;stroke-width:0.2;stroke-miterlimit:4;stroke-opacity:1;stroke-dasharray:none"
       id="path4003"
       sodipodi:cx="-4.920188"
       sodipodi:cy="11.530517"
       sodipodi:rx="1.0892019"
       sodipodi:ry="1.0892019"
       d="m -3.830986,11.530517 a 1.0892019,1.0892019 0 1 1 -2.1784039,0 1.0892019,1.0892019 0 1 1 2.1784039,0 z"
       transform="matrix(0.51317923,0,0,0.52915331,25.226531,9.0132178)" />
    <path
       transform="matrix(0.51317923,0,0,0.52915331,19.77157,12.789842)"
       d="m -3.830986,11.530517 a 1.0892019,1.0892019 0 1 1 -2.1784039,0 1.0892019,1.0892019 0 1 1 2.1784039,0 z"
       sodipodi:ry="1.0892019"
       sodipodi:rx="1.0892019"
       sodipodi:cy="11.530517"
       sodipodi:cx="-4.920188"
       id="path4005"
       style="fill:#ffffff;fill-opacity:1;stroke:#000000;stroke-width:0.2;stroke-miterlimit:4;stroke-opacity:1;stroke-dasharray:none"
       sodipodi:type="arc" />
    <path
       sodipodi:type="arc"
       style="fill:#ffffff;fill-opacity:1;stroke:#000000;stroke-width:0.2;stroke-miterlimit:4;stroke-opacity:1;stroke-dasharray:none"
       id="path4007"
       sodipodi:cx="-4.920188"
       sodipodi:cy="11.530517"
       sodipodi:rx="1.0892019"
       sodipodi:ry="1.0892019"
       d="m -3.830986,11.530517 a 1.0892019,1.0892019 0 1 1 -2.1784039,0 1.0892019,1.0892019 0 1 1 2.1784039,0 z"
       transform="matrix(0.51317923,0,0,0.52915331,17.044089,8.0489727)" />
    <path
       transform="matrix(0.51317923,0,0,0.52915331,13.069761,3.7098718)"
       d="m -3.830986,11.530517 a 1.0892019,1.0892019 0 1 1 -2.1784039,0 1.0892019,1.0892019 0 1 1 2.1784039,0 z"
       sodipodi:ry="1.0892019"
       sodipodi:rx="1.0892019"
       sodipodi:cy="11.530517"
       sodipodi:cx="-4.920188"
       id="path4009"
       style="fill:#ffffff;fill-opacity:1;stroke:#000000;stroke-width:0.2;stroke-miterlimit:4;stroke-opacity:1;stroke-dasharray:none"
       sodipodi:type="arc" />
    <path
       transform="matrix(0.51317923,0,0,0.52915331,7.5368735,10.298877)"
       d="m -3.830986,11.530517 a 1.0892019,1.0892019 0 1 1 -2.1784039,0 1.0892019,1.0892019 0 1 1 2.1784039,0 z"
       sodipodi:ry="1.0892019"
       sodipodi:rx="1.0892019"
       sodipodi:cy="11.530517"
       sodipodi:cx="-4.920188"
       id="path4013"
       style="fill:#ffffff;fill-opacity:1;stroke:#000000;stroke-width:0.2;stroke-miterlimit:4;stroke-opacity:1;stroke-dasharray:none"
       sodipodi:type="arc" />
    <path
       sodipodi:type="arc"
       style="fill:#ffffff;fill-opacity:1;stroke:#000000;stroke-width:0.2;stroke-miterlimit:4;stroke-opacity:1;stroke-dasharray:none"
       id="path4015"
       sodipodi:cx="-4.920188"
       sodipodi:cy="11.530517"
       sodipodi:rx="1.0892019"
       sodipodi:ry="1.0892019"
       d="m -3.830986,11.530517 a 1.0892019,1.0892019 0 1 1 -2.1784039,0 1.0892019,1.0892019 0 1 1 2.1784039,0 z"
       transform="matrix(0.51317923,0,0,0.52915331,13.069761,10.620291)" />
    <path
       transform="matrix(0.51317923,0,0,0.52915331,14.472467,16.24505)"
       d="m -3.830986,11.530517 a 1.0892019,1.0892019 0 1 1 -2.1784039,0 1.0892019,1.0892019 0 1 1 2.1784039,0 z"
       sodipodi:ry="1.0892019"
       sodipodi:rx="1.0892019"
       sodipodi:cy="11.530517"
       sodipodi:cx="-4.920188"
       id="path4017"
       style="fill:#ffffff;fill-opacity:1;stroke:#000000;stroke-width:0.2;stroke-miterlimit:4;stroke-opacity:1;stroke-dasharray:none"
       sodipodi:type="arc" />
    <path
       sodipodi:type="arc"
       style="fill:#ffffff;fill-opacity:1;stroke:#000000;stroke-width:0.2;stroke-miterlimit:4;stroke-opacity:1;stroke-dasharray:none"
       id="path4019"
       sodipodi:cx="-4.920188"
       sodipodi:cy="11.530517"
       sodipodi:rx="1.0892019"
       sodipodi:ry="1.0892019"
       d="m -3.830986,11.530517 a 1.0892019,1.0892019 0 1 1 -2.1784039,0 1.0892019,1.0892019 0 1 1 2.1784039,0 z"
       transform="matrix(0.51317923,0,0,0.52915331,10.108499,7.8882643)" />
    <path
       transform="matrix(0.51317923,0,0,0.52915331,25.148603,15.039744)"
       d="m -3.830986,11.530517 a 1.0892019,1.0892019 0 1 1 -2.1784039,0 1.0892019,1.0892019 0 1 1 2.1784039,0 z"
       sodipodi:ry="1.0892019"
       sodipodi:rx="1.0892019"
       sodipodi:cy="11.530517"
       sodipodi:cx="-4.920188"
       id="path4021"
       style="fill:#ffffff;fill-opacity:1;stroke:#000000;stroke-width:0.2;stroke-miterlimit:4;stroke-opacity:1;stroke-dasharray:none"
       sodipodi:type="arc" />
    <path
       sodipodi:type="arc"
       style="fill:#ffffff;fill-opacity:1;stroke:#000000;stroke-width:0.2;stroke-miterlimit:4;stroke-opacity:1;stroke-dasharray:none"
       id="path4023"
       sodipodi:cx="-4.920188"
       sodipodi:cy="11.530517"
       sodipodi:rx="1.0892019"
       sodipodi:ry="1.0892019"
       d="m -3.830986,11.530517 a 1.0892019,1.0892019 0 1 1 -2.1784039,0 1.0892019,1.0892019 0 1 1 2.1784039,0 z"
       transform="matrix(0.51317923,0,0,0.52915331,27.720227,7.0847266)" />
    <path
       transform="matrix(0.51317923,0,0,0.52915331,8.6278657,3.9509314)"
       d="m -3.830986,11.530517 a 1.0892019,1.0892019 0 1 1 -2.1784039,0 1.0892019,1.0892019 0 1 1 2.1784039,0 z"
       sodipodi:ry="1.0892019"
       sodipodi:rx="1.0892019"
       sodipodi:cy="11.530517"
       sodipodi:cx="-4.920188"
       id="path4025"
       style="fill:#ffffff;fill-opacity:1;stroke:#000000;stroke-width:0.2;stroke-miterlimit:4;stroke-opacity:1;stroke-dasharray:none"
       sodipodi:type="arc" />
    <path
       sodipodi:type="arc"
       style="fill:#ffffff;fill-opacity:1;stroke:#000000;stroke-width:0.2;stroke-miterlimit:4;stroke-opacity:1;stroke-dasharray:none"
       id="path4027"
       sodipodi:cx="-4.920188"
       sodipodi:cy="11.530517"
       sodipodi:rx="1.0892019"
       sodipodi:ry="1.0892019"
       d="m -3.830986,11.530517 a 1.0892019,1.0892019 0 1 1 -2.1784039,0 1.0892019,1.0892019 0 1 1 2.1784039,0 z"
       transform="matrix(0.51317923,0,0,0.52915331,17.745442,1.2992587)" />
    <path
       transform="matrix(0.51317923,0,0,0.52915331,10.965705,15.361161)"
       d="m -3.830986,11.530517 a 1.0892019,1.0892019 0 1 1 -2.1784039,0 1.0892019,1.0892019 0 1 1 2.1784039,0 z"
       sodipodi:ry="1.0892019"
       sodipodi:rx="1.0892019"
       sodipodi:cy="11.530517"
       sodipodi:cx="-4.920188"
       id="path4029"
       style="fill:#ffffff;fill-opacity:1;stroke:#000000;stroke-width:0.2;stroke-miterlimit:4;stroke-opacity:1;stroke-dasharray:none"
       sodipodi:type="arc" />
  </g>
</svg>
