<?xml version="1.0" encoding="UTF-8" standalone="no"?>
<!-- Created with Inkscape (http://www.inkscape.org/) -->
<svg
   xmlns:dc="http://purl.org/dc/elements/1.1/"
   xmlns:cc="http://creativecommons.org/ns#"
   xmlns:rdf="http://www.w3.org/1999/02/22-rdf-syntax-ns#"
   xmlns:svg="http://www.w3.org/2000/svg"
   xmlns="http://www.w3.org/2000/svg"
   xmlns:sodipodi="http://sodipodi.sourceforge.net/DTD/sodipodi-0.dtd"
   xmlns:inkscape="http://www.inkscape.org/namespaces/inkscape"
   width="32"
   height="32"
   id="svg2"
   sodipodi:version="0.32"
   inkscape:version="0.45+devel"
   sodipodi:docbase="/home/andrew/Desktop"
   sodipodi:docname="plugin-snow.svg"
   version="1.0"
   inkscape:export-filename="/home/andrew/Desktop/logo_lights_mod.png"
   inkscape:export-xdpi="90"
   inkscape:export-ydpi="90"
   inkscape:output_extension="org.inkscape.output.svg.inkscape">
  <defs
     id="defs4" />
  <sodipodi:namedview
     id="base"
     pagecolor="#ffffff"
     bordercolor="#666666"
     borderopacity="1.0"
     gridtolerance="10000"
     guidetolerance="10"
     objecttolerance="10"
     inkscape:pageopacity="0.0"
     inkscape:pageshadow="2"
     inkscape:zoom="22.627417"
     inkscape:cx="20.086091"
     inkscape:cy="7.3105382"
     inkscape:document-units="px"
     inkscape:current-layer="layer1"
     inkscape:window-width="1280"
     inkscape:window-height="710"
     inkscape:window-x="0"
     inkscape:window-y="49"
     width="48px"
     height="48px"
     showguides="true"
     inkscape:guide-bbox="true"
     showgrid="false" />
  <metadata
     id="metadata7">
    <rdf:RDF>
      <cc:Work
         rdf:about="">
        <dc:format>image/svg+xml</dc:format>
        <dc:type
           rdf:resource="http://purl.org/dc/dcmitype/StillImage" />
      </cc:Work>
    </rdf:RDF>
  </metadata>
  <g
     inkscape:label="Layer 1"
     inkscape:groupmode="layer"
     id="layer1"
     transform="translate(-9.618716,-150.6052)">
    <path
       style="fill:#eeeeec;fill-opacity:1;stroke:#3465a4;stroke-width:1;stroke-opacity:1"
       d="M 25.031886,181.92738 C 25.511681,180.88665 24.463389,179.61973 23.885846,181.13094 C 22.637419,182.22703 21.964584,179.81534 23.549873,179.70708 C 24.593637,179.2832 25.91746,176.83081 24.496522,176.6959 C 23.172316,177.42901 21.909353,179.95466 20.484157,179.48459 C 20.666167,177.649 23.123226,177.1052 24.119555,175.66962 C 25.314431,175.19932 25.648838,171.79541 23.965598,173.2371 C 23.512783,174.07783 21.358221,175.70116 21.297026,174.0918 C 22.285394,172.608 24.420227,172.06757 25.001528,170.31375 C 25.189046,169.30774 25.339771,166.90086 23.768028,168.0979 C 21.732572,168.61663 21.207362,170.7259 20.891432,172.50595 C 21.135494,173.91958 18.749072,174.581 19.277593,172.82218 C 19.735665,172.00641 20.80032,169.05058 18.89455,170.32976 C 17.318634,171.60787 17.236528,173.80894 16.684401,175.61196 C 16.968405,176.62564 15.09305,177.91355 15.36639,176.31836 C 15.478062,174.98976 16.67051,173.31138 16.138988,172.21594 C 14.066227,172.20246 14.175198,174.90835 13.286314,176.10042 C 11.540834,176.29161 13.602781,173.10359 11.803355,174.35758 C 10.498762,175.25989 10.447123,173.08537 11.7444,173.11054 C 13.078013,172.19635 9.125185,172.88812 10.361684,171.26381 C 11.878891,171.3263 13.668855,172.63363 15.14616,171.49237 C 16.141574,170.06712 13.244851,170.44015 12.372524,169.97986 C 11.276832,170.16824 9.3612244,168.76227 11.485104,168.6705 C 13.420602,169.30975 15.479268,169.69851 17.480154,170.18889 C 18.731436,169.96124 20.100942,168.31548 17.917704,168.39657 C 17.056848,168.44755 14.676059,167.85796 16.005336,166.90267 C 18.181909,167.14047 20.422187,168.57584 22.589047,167.51835 C 23.774559,167.28905 24.715806,165.92399 22.982874,165.62655 C 21.31608,164.42629 19.279271,165.20057 17.553927,165.78854 C 16.693938,166.52736 14.534976,165.84223 16.059448,164.86069 C 16.893845,164.42768 19.547316,164.78054 19.027806,163.49883 C 17.289839,162.11363 15.122532,163.41989 13.253501,163.69899 C 12.42133,163.98539 10.61524,164.85708 10.507371,163.36163 C 12.176502,162.76777 14.146258,162.98151 15.629296,161.92822 C 14.23768,160.35229 12.141741,161.59136 10.504036,161.7653 C 8.9502257,160.47113 13.423686,160.59338 11.245302,159.51096 C 9.7885145,159.09595 11.934207,157.5629 12.390284,158.90437 C 13.166382,158.53906 11.918297,155.85037 13.535709,157.02017 C 14.043114,158.49313 14.283171,160.52219 16.071768,160.98911 C 17.031618,159.89401 15.138952,157.90454 15.385342,156.3861 C 15.9255,154.85097 17.07051,157.57942 16.953638,158.37492 C 17.362937,159.98979 17.584731,162.24256 19.493996,162.79996 C 21.32845,162.42648 17.672224,159.29437 20.13985,158.9047 C 21.480987,160.62152 20.790605,163.48274 22.9638,164.62234 C 23.660644,165.33685 25.623938,165.73695 25.041827,164.13445 C 25.655928,162.12193 23.611048,160.8726 22.283929,159.79342 C 21.155009,159.48149 20.625644,157.5602 22.305378,158.24742 C 23.168621,158.62023 24.513712,161.16887 25.098117,159.8081 C 25.461414,157.93951 23.665207,156.92577 22.503717,155.84886 C 21.86888,155.02526 20.178798,154.21009 20.233903,153.36606 C 21.730433,152.85624 22.601103,154.98232 23.74853,155.66528 C 25.209725,157.27951 25.548578,154.64698 24.406332,153.9308 C 23.623729,153.46167 21.295913,151.44062 23.495943,151.69976 C 24.343087,151.91114 25.217966,153.29331 24.915393,151.77186 C 25.25747,150.60842 26.435556,151.10512 26.109412,152.209 C 26.816371,153.11509 28.16181,150.18788 28.611254,152.1049 C 27.772852,153.32297 24.959185,154.62263 26.387271,156.28642 C 27.802406,155.65734 28.513633,153.99805 29.997353,153.39929 C 31.837144,153.308 29.039324,155.35979 28.511992,155.87294 C 27.458706,157.01241 25.555812,157.88812 26.038088,159.75509 C 27.036842,161.54248 28.161533,157.16052 29.743653,158.28401 C 29.569785,160.28494 27.004127,160.56088 26.14896,162.15625 C 26.042363,163.17983 25.506174,166.11055 27.379461,164.8612 C 29.591259,164.28261 30.02424,162.16559 30.303141,160.2534 C 30.18877,159.06511 32.182563,158.51839 31.784532,159.97439 C 31.254557,160.85078 30.430089,163.4854 32.419148,162.37943 C 34.140464,161.29013 34.006048,159.00376 34.599418,157.2772 C 34.500856,156.4361 35.924373,154.97423 35.945719,156.49804 C 35.718058,157.86672 34.418118,159.6301 34.896414,160.75616 C 36.801835,160.86032 37.324242,158.64816 37.436988,157.23126 C 38.371034,156.22839 39.401019,157.64852 38.332605,158.38732 C 38.443946,159.90259 40.253927,157.33381 40.286369,159.07589 C 40.231023,159.88129 38.393691,160.07526 39.94911,160.43808 C 41.14915,160.22839 41.716034,161.75111 40.216623,161.67629 C 38.731828,161.36718 36.245713,160.3894 35.511747,162.20442 C 37.075659,162.89245 39.067829,162.60625 40.56315,163.56826 C 40.187945,165.08354 37.760809,163.36051 36.564911,163.32641 C 35.241923,162.72424 31.961644,162.44596 32.04634,164.24802 C 33.085738,164.7503 35.846387,164.18535 35.299224,166.04208 C 33.157468,165.89489 31.037556,164.32803 28.891336,165.31961 C 27.962046,165.44849 26.444321,166.84406 28.156599,167.15029 C 29.761501,168.58238 32.09295,167.78463 33.802779,167.02843 C 35.159513,166.52024 36.076755,168.23178 34.23212,168.21453 C 33.337781,168.16082 31.080002,168.93213 32.821752,169.72111 C 34.28704,170.62539 35.928036,169.49662 37.447459,169.32937 C 38.42724,169.38103 40.835499,167.81284 40.619155,169.38268 C 39.240268,170.32251 37.295206,169.9447 35.759058,170.6615 C 34.986983,171.49678 37.643539,172.15097 38.330166,171.65522 C 39.084738,170.97224 42.194117,171.2465 40.635261,172.39266 C 39.926204,172.36273 38.367943,172.83491 39.847063,173.27944 C 41.231093,173.95383 38.979263,175.03657 38.617927,173.86979 C 38.180704,174.51301 39.376874,176.77703 37.717752,175.94728 C 37.122693,174.47679 36.896532,171.99533 34.770963,172.07709 C 34.584991,173.84561 36.077733,175.34993 35.967779,177.07306 C 33.99429,177.11047 34.657528,174.35383 33.980793,173.08896 C 33.921898,171.81467 32.027144,169.10816 30.979125,170.51425 C 31.136256,171.59875 32.92938,173.7735 30.950191,174.01895 C 29.711375,172.34496 30.399238,169.62826 28.393795,168.45306 C 27.763867,167.72603 25.789655,167.08499 26.294654,168.74196 C 25.715471,170.71502 27.60694,172.07967 28.96556,173.13391 C 30.130398,173.52977 30.061862,175.62281 28.691687,174.66688 C 28.009896,173.67095 25.779638,171.7557 26.265731,174.23617 C 26.843385,175.83769 28.498459,176.66921 29.573182,177.91192 C 30.253899,178.41874 31.711112,179.87899 29.975439,179.61511 C 28.620012,178.81119 27.81634,176.86743 26.1691,176.77511 C 25.343285,178.14462 27.045829,179.32209 27.997678,180.09041 C 29.629522,181.03088 27.43748,182.00722 26.915351,180.68436 C 25.195867,179.21545 26.925911,182.94244 25.031886,181.92738 z"
       id="path30942" />
  </g>
</svg>
