# Blender3D v246 OBJ File: dice.blend
# www.blender3d.org
mtllib dice.mtl
o Cube
v 1.000000 -1.000000 -1.000000
v 1.000000 -1.000000 1.000000
v -1.000000 -1.000000 1.000000
v -1.000000 -1.000000 -1.000000
v 1.000000 1.000000 -1.000000
v 0.999999 1.000000 1.000001
v -1.000000 1.000000 1.000000
v -1.000000 1.000000 -1.000000
vt 0.335910 0.539707
vt 0.004542 0.539707
vt 0.004542 0.028848
vt 0.335910 0.028848
vt 0.343605 0.991165
vt 0.030956 0.991165
vt 0.030956 0.506559
vt 0.343605 0.506559
vt 0.652316 0.054420
vt 0.652316 0.530518
vt 0.343496 0.530519
vt 0.343496 0.054420
vt 0.995127 0.003787
vt 0.995127 0.532000
vt 0.652503 0.532000
vt 0.652503 0.003787
vt 0.652835 0.971125
vt 0.652835 0.542240
vt 0.931030 0.542240
vt 0.931030 0.971125
vt 0.376678 0.938115
vt 0.376678 0.591634
vt 0.601422 0.591634
vt 0.601422 0.938115
vn -0.000000 -1.000000 0.000000
vn 0.000000 1.000000 -0.000000
vn 1.000000 0.000000 0.000000
vn -0.000000 -0.000000 1.000000
vn -1.000000 -0.000000 -0.000000
vn 0.000000 0.000000 -1.000000
usemtl Material.001_dice_texture.jpg
s off
f 1/1/1 2/2/1 3/3/1 4/4/1
f 5/5/2 8/6/2 7/7/2 6/8/2
f 1/9/3 5/10/3 6/11/3 2/12/3
f 2/13/4 6/14/4 7/15/4 3/16/4
f 3/17/5 7/18/5 8/19/5 4/20/5
f 5/21/6 1/22/6 4/23/6 8/24/6
