# Blender3D v245 OBJ File: <memory>
# www.blender3d.org
o Cube
v -0.144365 -1.040940 3.807190
v -3.778949 -1.040940 0.484853
v 0.144366 -1.040940 -3.807190
v 3.778949 -1.040940 -0.484851
v -0.144367 3.562668 3.807190
v -3.778949 3.562668 0.484850
v 0.144367 3.562668 -3.807190
v 3.778949 3.562668 -0.484853
vn 0.000000 -1.000000 0.000000
vn -0.000000 1.000000 -0.000000
vn -0.674691 0.000000 0.738100
vn -0.738100 -0.000000 -0.674691
vn 0.674691 -0.000000 -0.738100
vn 0.738101 0.000000 0.674691
usemtl Material
s off
f 1//1 2//1 3//1 4//1
f 5//2 8//2 7//2 6//2
f 1//3 5//3 6//3 2//3
f 2//4 6//4 7//4 3//4
f 3//5 7//5 8//5 4//5
f 5//6 1//6 4//6 8//6
