  0
SECTION
  2
ENTITIES
  0
3DFACE
  8
3/white:eye border right
 10
62.012573
 20
-1.051023
 30
-7.145550
 11
58.971191
 21
-1.402473
 31
-3.885723
 12
55.929810
 22
-2.760961
 32
-6.869764
 13
58.971191
 23
-2.409511
 33
-10.129591
  0
3DFACE
  8
4/white:eye border left
 10
62.012573
 20
1.051023
 30
-7.145550
 11
58.971191
 21
1.402474
 31
-3.885723
 12
55.929810
 22
2.760961
 32
-6.869764
 13
58.971191
 23
2.409511
 33
-10.129591
  0
3DFACE
  8
6/black:eye right
 10
60.981319
 20
-1.443569
 30
-7.082238
 11
58.998581
 21
-1.672688
 31
-4.957091
 12
57.015842
 22
-2.558315
 32
-6.902448
 13
58.998581
 23
-2.329197
 33
-9.027595
  0
3DFACE
  8
7/black:eye left
 10
60.981319
 20
1.443569
 30
-7.082238
 11
58.998581
 21
1.672688
 31
-4.957091
 12
57.015842
 22
2.558315
 32
-6.902448
 13
58.998581
 23
2.329197
 33
-9.027595
  0
3DFACE
  8
8/black:body_2
 10
45.957748
 20
-6.049877
 30
-15.000000
 11
47.957748
 21
0.000000
 31
15.129678
 12
40.776413
 22
0.000000
 32
17.535185
 13
37.832413
 23
-7.735210
 33
-11.000000
  0
3DFACE
  8
8/black:body_2
 10
47.957748
 20
0.000000
 30
15.129678
 11
45.957748
 21
6.049877
 31
-15.000000
 12
37.832413
 22
7.735210
 32
-11.000000
 13
40.776413
 23
0.000000
 33
17.535185
  0
3DFACE
  8
8/black:body_2
 10
45.957748
 20
6.049877
 30
-15.000000
 11
48.957748
 21
0.000000
 31
-22.129677
 12
41.035080
 22
0.000000
 32
-23.507181
 13
37.832413
 23
7.735210
 33
-11.000000
  0
3DFACE
  8
8/black:body_2
 10
48.957748
 20
0.000000
 30
-22.129677
 11
45.957748
 21
-6.049877
 31
-15.000000
 12
37.832413
 22
-7.735210
 32
-11.000000
 13
41.035080
 23
0.000000
 33
-23.507181
  0
3DFACE
  8
9/black:body_4
 10
29.000610
 20
-8.049877
 30
-8.000000
 11
27.000610
 21
0.000000
 31
22.149626
 12
16.773529
 22
0.000000
 32
20.024500
 13
18.760895
 23
-7.848106
 33
-8.000000
  0
3DFACE
  8
9/black:body_4
 10
27.000610
 20
0.000000
 30
22.149626
 11
29.000610
 21
8.049877
 31
-8.000000
 12
18.760895
 22
7.848106
 32
-8.000000
 13
16.773529
 23
0.000000
 33
20.024500
  0
3DFACE
  8
9/black:body_4
 10
29.000610
 20
8.049877
 30
-8.000000
 11
21.000610
 21
0.000000
 31
-26.149626
 12
16.142151
 22
0.000000
 32
-25.663052
 13
18.760895
 23
7.848106
 33
-8.000000
  0
3DFACE
  8
9/black:body_4
 10
21.000610
 20
0.000000
 30
-26.149626
 11
29.000610
 21
-8.049877
 31
-8.000000
 12
18.760895
 22
-7.848106
 32
-8.000000
 13
16.142151
 23
0.000000
 33
-25.663052
  0
3DFACE
  8
10/black:body_6
 10
8.966888
 20
-7.049877
 30
-8.000000
 11
5.964417
 21
0.000000
 31
17.213560
 12
-1.582565
 22
0.000000
 32
15.354302
 13
-1.861298
 23
-6.049877
 33
-8.000000
  0
3DFACE
  8
10/black:body_6
 10
5.964417
 20
0.000000
 30
17.213560
 11
8.966888
 21
7.049877
 31
-8.000000
 12
-1.861298
 22
6.049877
 32
-8.000000
 13
-1.582565
 23
0.000000
 33
15.354302
  0
3DFACE
  8
10/black:body_6
 10
8.966888
 20
7.049877
 30
-8.000000
 11
3.186478
 21
0.000000
 31
-24.972067
 12
-4.588943
 22
0.000000
 32
-24.350054
 13
-1.861298
 23
6.049877
 33
-8.000000
  0
3DFACE
  8
10/black:body_6
 10
3.186478
 20
0.000000
 30
-24.972067
 11
8.966888
 21
-7.049877
 31
-8.000000
 12
-1.861298
 22
-6.049877
 32
-8.000000
 13
-4.588943
 23
0.000000
 33
-24.350054
  0
3DFACE
  8
11/black:body_8
 10
-10.499443
 20
-5.049877
 30
-8.000000
 11
-10.354401
 21
0.000000
 31
12.605308
 12
-17.000687
 22
0.000000
 32
9.149628
 13
-17.000687
 23
-3.549877
 33
-8.000000
  0
3DFACE
  8
11/black:body_8
 10
-10.354401
 20
0.000000
 30
12.605308
 11
-10.499443
 21
5.049877
 31
-8.000000
 12
-17.000687
 22
3.549877
 32
-8.000000
 13
-17.000687
 23
0.000000
 33
9.149628
  0
3DFACE
  8
11/black:body_8
 10
-10.499443
 20
5.049877
 30
-8.000000
 11
-11.256622
 21
0.000000
 31
-20.549803
 12
-15.000687
 22
0.000000
 32
-18.149630
 13
-17.000687
 23
3.549877
 33
-8.000000
  0
3DFACE
  8
11/black:body_8
 10
-11.256622
 20
0.000000
 30
-20.549803
 11
-10.499443
 21
-5.049877
 31
-8.000000
 12
-17.000687
 22
-3.549877
 32
-8.000000
 13
-15.000687
 23
0.000000
 33
-18.149630
  0
3DFACE
  8
12/black:body_10
 10
-21.571259
 20
-3.049877
 30
-7.500000
 11
-25.071259
 21
0.000000
 31
0.149630
 12
-35.181931
 22
0.000000
 32
1.149628
 13
-29.181931
 23
-2.049877
 33
-7.000000
  0
3DFACE
  8
12/black:body_10
 10
-25.071259
 20
0.000000
 30
0.149630
 11
-21.571259
 21
3.049877
 31
-7.500000
 12
-29.181931
 22
2.049877
 32
-7.000000
 13
-35.181931
 23
0.000000
 33
1.149628
  0
3DFACE
  8
12/black:body_10
 10
-21.571259
 20
3.049877
 30
-7.500000
 11
-27.071259
 21
0.000000
 31
-13.149630
 12
-35.181931
 22
0.000000
 32
-13.149629
 13
-29.181931
 23
2.049877
 33
-7.000000
  0
3DFACE
  8
12/black:body_10
 10
-27.071259
 20
0.000000
 30
-13.149630
 11
-21.571259
 21
-3.049877
 31
-7.500000
 12
-29.181931
 22
-2.049877
 32
-7.000000
 13
-35.181931
 23
0.000000
 33
-13.149629
  0
3DFACE
  8
12/black:body_10
 10
-29.181931
 20
-2.049877
 30
-7.000000
 11
-35.181931
 21
0.000000
 31
1.149628
 12
-67.001099
 22
0.000000
 32
8.149629
 13
-34.001099
 23
-1.049877
 33
-6.500000
  0
3DFACE
  8
12/black:body_10
 10
-35.181931
 20
0.000000
 30
1.149628
 11
-29.181931
 21
2.049877
 31
-7.000000
 12
-34.001099
 22
1.049877
 32
-6.500000
 13
-67.001099
 23
0.000000
 33
8.149629
  0
3DFACE
  8
12/black:body_10
 10
-29.181931
 20
2.049877
 30
-7.000000
 11
-35.181931
 21
0.000000
 31
-13.149629
 12
-67.001099
 22
0.000000
 32
-20.149628
 13
-34.001099
 23
1.049877
 33
-6.500000
  0
3DFACE
  8
12/black:body_10
 10
-35.181931
 20
0.000000
 30
-13.149629
 11
-29.181931
 21
-2.049877
 31
-7.000000
 12
-34.001099
 22
-1.049877
 32
-6.500000
 13
-67.001099
 23
0.000000
 33
-20.149628
  0
3DFACE
  8
14/aqua:body_1
 10
69.000000
 20
0.000000
 30
-12.000000
 11
59.335999
 21
0.000000
 31
4.459737
 12
52.998947
 22
-4.365566
 32
-14.662936
 13
52.998947
 23
-4.365566
 33
-14.662936
  0
3DFACE
  8
14/aqua:body_1
 10
69.000000
 20
0.000000
 30
-12.000000
 11
52.998947
 21
4.365566
 31
-14.662936
 12
59.335999
 22
0.000000
 32
4.459737
 13
59.335999
 23
0.000000
 33
4.459737
  0
3DFACE
  8
14/aqua:body_1
 10
69.000000
 20
0.000000
 30
-12.000000
 11
59.335999
 21
0.000000
 31
-18.459738
 12
52.998947
 22
4.365566
 32
-14.662936
 13
52.998947
 23
4.365566
 33
-14.662936
  0
3DFACE
  8
14/aqua:body_1
 10
69.000000
 20
0.000000
 30
-12.000000
 11
52.998947
 21
-4.365566
 31
-14.662936
 12
59.335999
 22
0.000000
 32
-18.459738
 13
59.335999
 23
0.000000
 33
-18.459738
  0
3DFACE
  8
14/aqua:body_1
 10
52.998947
 20
-4.365566
 30
-14.662936
 11
59.335999
 21
0.000000
 31
4.459737
 12
47.957748
 22
0.000000
 32
15.129678
 13
45.957748
 23
-6.049877
 33
-15.000000
  0
3DFACE
  8
14/aqua:body_1
 10
59.335999
 20
0.000000
 30
4.459737
 11
52.998947
 21
4.365566
 31
-14.662936
 12
45.957748
 22
6.049877
 32
-15.000000
 13
47.957748
 23
0.000000
 33
15.129678
  0
3DFACE
  8
14/aqua:body_1
 10
52.998947
 20
4.365566
 30
-14.662936
 11
59.335999
 21
0.000000
 31
-18.459738
 12
48.957748
 22
0.000000
 32
-22.129677
 13
45.957748
 23
6.049877
 33
-15.000000
  0
3DFACE
  8
14/aqua:body_1
 10
59.335999
 20
0.000000
 30
-18.459738
 11
52.998947
 21
-4.365566
 31
-14.662936
 12
45.957748
 22
-6.049877
 32
-15.000000
 13
48.957748
 23
0.000000
 33
-22.129677
  0
3DFACE
  8
15/aqua:body_3
 10
37.832413
 20
-7.735210
 30
-11.000000
 11
40.776413
 21
0.000000
 31
17.535185
 12
27.000610
 22
0.000000
 32
22.149626
 13
29.000610
 23
-8.049877
 33
-8.000000
  0
3DFACE
  8
15/aqua:body_3
 10
40.776413
 20
0.000000
 30
17.535185
 11
37.832413
 21
7.735210
 31
-11.000000
 12
29.000610
 22
8.049877
 32
-8.000000
 13
27.000610
 23
0.000000
 33
22.149626
  0
3DFACE
  8
15/aqua:body_3
 10
37.832413
 20
7.735210
 30
-11.000000
 11
41.035080
 21
0.000000
 31
-23.507181
 12
21.000610
 22
0.000000
 32
-26.149626
 13
29.000610
 23
8.049877
 33
-8.000000
  0
3DFACE
  8
15/aqua:body_3
 10
41.035080
 20
0.000000
 30
-23.507181
 11
37.832413
 21
-7.735210
 31
-11.000000
 12
29.000610
 22
-8.049877
 32
-8.000000
 13
21.000610
 23
0.000000
 33
-26.149626
  0
3DFACE
  8
16/aqua:body_5
 10
18.760895
 20
-7.848106
 30
-8.000000
 11
16.773529
 21
0.000000
 31
20.024500
 12
5.964417
 22
0.000000
 32
17.213560
 13
8.966888
 23
-7.049877
 33
-8.000000
  0
3DFACE
  8
16/aqua:body_5
 10
16.773529
 20
0.000000
 30
20.024500
 11
18.760895
 21
7.848106
 31
-8.000000
 12
8.966888
 22
7.049877
 32
-8.000000
 13
5.964417
 23
0.000000
 33
17.213560
  0
3DFACE
  8
16/aqua:body_5
 10
18.760895
 20
7.848106
 30
-8.000000
 11
16.142151
 21
0.000000
 31
-25.663052
 12
3.186478
 22
0.000000
 32
-24.972067
 13
8.966888
 23
7.049877
 33
-8.000000
  0
3DFACE
  8
16/aqua:body_5
 10
16.142151
 20
0.000000
 30
-25.663052
 11
18.760895
 21
-7.848106
 31
-8.000000
 12
8.966888
 22
-7.049877
 32
-8.000000
 13
3.186478
 23
0.000000
 33
-24.972067
  0
3DFACE
  8
17/aqua:body_7
 10
-1.861298
 20
-6.049877
 30
-8.000000
 11
-1.582565
 21
0.000000
 31
15.354302
 12
-10.354401
 22
0.000000
 32
12.605308
 13
-10.499443
 23
-5.049877
 33
-8.000000
  0
3DFACE
  8
17/aqua:body_7
 10
-1.582565
 20
0.000000
 30
15.354302
 11
-1.861298
 21
6.049877
 31
-8.000000
 12
-10.499443
 22
5.049877
 32
-8.000000
 13
-10.354401
 23
0.000000
 33
12.605308
  0
3DFACE
  8
17/aqua:body_7
 10
-1.861298
 20
6.049877
 30
-8.000000
 11
-4.588943
 21
0.000000
 31
-24.350054
 12
-11.256622
 22
0.000000
 32
-20.549803
 13
-10.499443
 23
5.049877
 33
-8.000000
  0
3DFACE
  8
17/aqua:body_7
 10
-4.588943
 20
0.000000
 30
-24.350054
 11
-1.861298
 21
-6.049877
 31
-8.000000
 12
-10.499443
 22
-5.049877
 32
-8.000000
 13
-11.256622
 23
0.000000
 33
-20.549803
  0
3DFACE
  8
18/aqua:body_9
 10
-17.000687
 20
-3.549877
 30
-8.000000
 11
-17.000687
 21
0.000000
 31
9.149628
 12
-25.071259
 22
0.000000
 32
0.149630
 13
-21.571259
 23
-3.049877
 33
-7.500000
  0
3DFACE
  8
18/aqua:body_9
 10
-17.000687
 20
0.000000
 30
9.149628
 11
-17.000687
 21
3.549877
 31
-8.000000
 12
-21.571259
 22
3.049877
 32
-7.500000
 13
-25.071259
 23
0.000000
 33
0.149630
  0
3DFACE
  8
18/aqua:body_9
 10
-17.000687
 20
3.549877
 30
-8.000000
 11
-15.000687
 21
0.000000
 31
-18.149630
 12
-27.071259
 22
0.000000
 32
-13.149630
 13
-21.571259
 23
3.049877
 33
-7.500000
  0
3DFACE
  8
18/aqua:body_9
 10
-15.000687
 20
0.000000
 30
-18.149630
 11
-17.000687
 21
-3.549877
 31
-8.000000
 12
-21.571259
 22
-3.049877
 32
-7.500000
 13
-27.071259
 23
0.000000
 33
-13.149630
  0
3DFACE
  8
19/aqua:body_11
 10
-34.001099
 20
-1.049877
 30
-6.500000
 11
-67.001099
 21
0.000000
 31
8.149629
 12
-52.394249
 22
0.000000
 32
-1.288396
 13
-40.959114
 23
-0.001190
 33
-6.024623
  0
3DFACE
  8
19/aqua:body_11
 10
-67.001099
 20
0.000000
 30
8.149629
 11
-34.001099
 21
1.049877
 31
-6.500000
 12
-40.959114
 22
-0.001190
 32
-6.024623
 13
-52.394249
 23
0.000000
 33
-1.288396
  0
3DFACE
  8
19/aqua:body_11
 10
-34.001099
 20
1.049877
 30
-6.500000
 11
-67.001099
 21
0.000000
 31
-20.149628
 12
-52.394249
 22
0.000000
 32
-9.711604
 13
-40.959114
 23
-0.001190
 33
-6.024623
  0
3DFACE
  8
19/aqua:body_11
 10
-67.001099
 20
0.000000
 30
-20.149628
 11
-34.001099
 21
-1.049877
 31
-6.500000
 12
-40.959114
 22
-0.001190
 32
-6.024623
 13
-52.394249
 23
0.000000
 33
-9.711604
  0
3DFACE
  8
20/aqua:upper fin
 10
-33.497131
 20
0.000000
 30
14.924884
 11
-34.245316
 21
0.000000
 31
17.934746
 12
-22.307602
 22
0.000000
 32
13.385719
 13
-25.664001
 23
0.000000
 33
8.459733
  0
3DFACE
  8
20/aqua:upper fin
 10
-25.071259
 20
0.000000
 30
0.149630
 11
-25.664001
 21
0.000000
 31
8.459733
 12
-22.307602
 22
0.000000
 32
13.385719
 13
-17.000687
 23
0.000000
 33
9.149628
  0
3DFACE
  8
20/aqua:upper fin
 10
-17.000687
 20
0.000000
 30
9.149628
 11
-22.307602
 21
0.000000
 31
13.385719
 12
-9.042252
 22
0.000000
 32
15.129676
 13
-10.354401
 23
0.000000
 33
12.605308
  0
3DFACE
  8
20/aqua:upper fin
 10
-10.354401
 20
0.000000
 30
12.605308
 11
-9.042252
 21
0.000000
 31
15.129676
 12
13.776413
 22
0.000000
 32
21.535183
 13
-1.582565
 23
0.000000
 33
15.354302
  0
3DFACE
  8
20/aqua:upper fin
 10
16.773529
 20
0.000000
 30
20.024502
 11
-1.582565
 21
0.000000
 31
15.354302
 12
13.776413
 22
0.000000
 32
21.535183
 13
13.776413
 23
0.000000
 33
21.535183
  0
3DFACE
  8
20/aqua:upper fin
 10
13.776413
 20
0.000000
 30
21.535183
 11
27.000610
 21
0.000000
 31
22.149626
 12
16.773529
 22
0.000000
 32
20.024502
 13
16.773529
 23
0.000000
 33
20.024502
  0
3DFACE
  8
20/aqua:upper fin
 10
5.964417
 20
0.000000
 30
17.213560
 11
-1.582565
 21
0.000000
 31
15.354302
 12
16.773529
 22
0.000000
 32
20.024502
 13
16.773529
 23
0.000000
 33
20.024502
  0
3DFACE
  8
21/aqua:lower fin
 10
-19.524841
 20
0.000000
 30
-16.275593
 11
-15.000687
 21
0.000000
 31
-18.149630
 12
-11.256622
 22
0.000000
 32
-20.549803
 13
-36.813522
 23
0.000000
 33
-22.972069
  0
3DFACE
  8
21/aqua:lower fin
 10
-36.813522
 20
0.000000
 30
-22.972069
 11
-11.256622
 21
0.000000
 31
-20.549803
 12
-4.588943
 22
0.000000
 32
-24.350054
 13
-4.588943
 23
0.000000
 33
-24.350054
  0
3DFACE
  8
22/aqua:right fin
 10
32.000610
 20
-11.049877
 30
-13.000000
 11
37.832413
 21
-7.735210
 31
-11.000000
 12
45.957748
 22
-6.049877
 32
-15.000000
 13
37.498947
 23
-10.615566
 33
-23.162937
  0
3DFACE
  8
23/aqua:left fin
 10
32.000610
 20
11.049877
 30
-13.000000
 11
37.832413
 21
7.735210
 31
-11.000000
 12
45.957748
 22
6.049877
 32
-15.000000
 13
37.498947
 23
10.615566
 33
-23.162937
  0
ENDSEC
  0
EOF
