  0
SECTION
  2
ENTITIES
  0
3DFACE
  8
2/white:white eye right
 10
207.445267
 20
-28.462383
 30
-14.500000
 11
192.609329
 21
-30.404787
 31
0.281178
 12
178.554733
 22
-35.537617
 32
-14.500000
 13
193.390671
 23
-33.595215
 33
-29.281178
  0
3DFACE
  8
3/white:white eye left
 10
193.390671
 20
33.595215
 30
-29.281178
 11
178.554733
 21
35.537617
 31
-14.500000
 12
192.609329
 22
30.404787
 32
0.281178
 13
207.445267
 23
28.462383
 33
-14.500000
  0
3DFACE
  8
4/black:black eye right
 10
202.712967
 20
-29.871313
 30
-14.500000
 11
192.737320
 21
-31.177382
 31
-4.561163
 12
183.287033
 22
-34.628689
 32
-14.500000
 13
193.262680
 23
-33.322617
 33
-24.438837
  0
3DFACE
  8
5/black:black eye left
 10
193.262680
 20
33.322617
 30
-24.438837
 11
183.287033
 21
34.628689
 31
-14.500000
 12
192.737320
 22
31.177382
 32
-4.561163
 13
202.712967
 23
29.871313
 33
-14.500000
  0
3DFACE
  8
6/yellow:side fin
 10
95.005264
 20
34.340660
 30
-153.735779
 11
95.005264
 21
34.340660
 31
-153.735779
 12
9.133724
 22
29.340660
 32
-163.128189
 13
-5.002823
 23
54.340660
 33
-201.439026
  0
3DFACE
  8
6/yellow:side fin
 10
100.005264
 20
50.000000
 30
-44.999958
 11
45.507706
 21
80.000000
 31
-40.000004
 12
17.145218
 22
100.363434
 32
4.273144
 13
72.484665
 23
74.458755
 33
-23.917496
  0
3DFACE
  8
6/yellow:side fin
 10
71.779175
 20
49.418198
 30
-80.449997
 11
71.779175
 21
49.418198
 31
-80.449997
 12
45.507706
 22
80.000000
 32
-40.000004
 13
100.005264
 23
50.000000
 33
-44.999958
  0
3DFACE
  8
6/yellow:side fin
 10
95.005264
 20
-34.340660
 30
-153.735779
 11
95.005264
 21
-34.340660
 31
-153.735779
 12
9.133724
 22
-29.340660
 32
-163.128189
 13
-5.002823
 23
-54.340660
 33
-201.439026
  0
3DFACE
  8
6/yellow:side fin
 10
100.005264
 20
-50.000000
 30
-44.999958
 11
45.507706
 21
-80.000000
 31
-40.000004
 12
17.145218
 22
-100.363434
 32
4.273144
 13
72.484665
 23
-74.458755
 33
-23.917496
  0
3DFACE
  8
6/yellow:side fin
 10
71.779175
 20
-49.418198
 30
-80.449997
 11
71.779175
 21
-49.418198
 31
-80.449997
 12
45.507706
 22
-80.000000
 32
-40.000004
 13
100.005264
 23
-50.000000
 33
-44.999958
  0
3DFACE
  8
7/yellow:upper fin
 10
47.526634
 20
-1.138993
 30
205.983490
 11
-30.831285
 21
-0.939901
 31
205.356293
 12
49.133724
 22
-6.244490
 32
197.721573
 13
90.005264
 23
-7.567214
 33
201.888489
  0
3DFACE
  8
7/yellow:upper fin
 10
-30.831285
 20
-0.939901
 30
205.356293
 11
-92.000229
 21
-1.280944
 31
199.595795
 12
-46.851372
 22
-8.510300
 32
187.668915
 13
49.133724
 23
-6.244490
 33
197.721573
  0
3DFACE
  8
7/yellow:upper fin
 10
-92.000229
 20
-1.280944
 30
199.595795
 11
-164.387405
 21
-1.138993
 31
178.172974
 12
-104.492294
 22
-7.567214
 32
158.216110
 13
-46.851372
 23
-8.510300
 33
187.668915
  0
3DFACE
  8
7/yellow:upper fin
 10
-164.387405
 20
-1.138993
 30
178.172974
 11
-217.959061
 21
-1.138993
 31
116.742271
 12
-150.002823
 22
-7.567214
 32
60.492004
 13
-104.492294
 23
-7.567214
 33
158.216110
  0
3DFACE
  8
7/yellow:upper fin
 10
90.005264
 20
7.567214
 30
201.888489
 11
49.133724
 21
6.244490
 31
197.721573
 12
-30.831285
 22
0.939901
 32
205.356293
 13
47.526634
 23
1.138993
 33
205.983490
  0
3DFACE
  8
7/yellow:upper fin
 10
49.133724
 20
6.244490
 30
197.721573
 11
-46.851372
 21
8.510300
 31
187.668915
 12
-92.000229
 22
1.280944
 32
199.595795
 13
-30.831285
 23
0.939901
 33
205.356293
  0
3DFACE
  8
7/yellow:upper fin
 10
-46.851372
 20
8.510300
 30
187.668915
 11
-104.492294
 21
7.567214
 31
158.216110
 12
-164.387405
 22
1.138993
 32
178.172974
 13
-92.000229
 23
1.280944
 33
199.595795
  0
3DFACE
  8
7/yellow:upper fin
 10
-104.492294
 20
7.567214
 30
158.216110
 11
-150.002823
 21
7.567214
 31
60.492004
 12
-217.959061
 22
1.138993
 32
116.742271
 13
-164.387405
 23
1.138993
 33
178.172974
  0
3DFACE
  8
7/yellow:upper fin
 10
-150.002823
 20
-7.567214
 30
60.492004
 11
-217.959061
 21
-1.138993
 31
116.742271
 12
-217.959061
 22
1.138993
 32
116.742271
 13
-150.002823
 23
7.567214
 33
60.492004
  0
3DFACE
  8
7/yellow:upper fin
 10
90.005264
 20
7.567214
 30
201.888489
 11
47.526634
 21
1.138993
 31
205.983490
 12
47.526634
 22
-1.138993
 32
205.983490
 13
90.005264
 23
-7.567214
 33
201.888489
  0
3DFACE
  8
8/yellow:lower fin
 10
-155.002823
 20
9.340660
 30
-6.439026
 11
-220.740433
 21
1.153251
 31
-66.535072
 12
-220.740433
 22
-1.153251
 32
-66.535072
 13
-155.002823
 23
-9.340660
 33
-6.439026
  0
3DFACE
  8
8/yellow:lower fin
 10
-66.529892
 20
-24.340660
 30
-162.080566
 11
-152.842316
 21
-3.005236
 31
-151.491531
 12
-152.842316
 22
3.005236
 32
-151.491531
 13
-66.529892
 23
24.340660
 33
-162.080566
  0
3DFACE
  8
8/yellow:lower fin
 10
-198.146698
 20
1.153251
 30
-111.473709
 11
-220.740433
 21
1.153251
 31
-66.535072
 12
-155.002823
 22
9.340660
 32
-6.439026
 13
-149.492294
 23
9.340660
 33
-86.439041
  0
3DFACE
  8
8/yellow:lower fin
 10
-152.842316
 20
3.005236
 30
-151.491531
 11
-198.146698
 21
1.153251
 31
-111.473709
 12
-149.492294
 22
9.340660
 32
-86.439041
 13
-66.529892
 23
24.340660
 33
-162.080566
  0
3DFACE
  8
8/yellow:lower fin
 10
-149.492294
 20
-9.340660
 30
-86.439041
 11
-155.002823
 21
-9.340660
 31
-6.439026
 12
-220.740433
 22
-1.153251
 32
-66.535072
 13
-198.146698
 23
-1.153251
 33
-111.473709
  0
3DFACE
  8
8/yellow:lower fin
 10
-66.529892
 20
-24.340660
 30
-162.080566
 11
-149.492294
 21
-9.340660
 31
-86.439041
 12
-198.146698
 22
-1.153251
 32
-111.473709
 13
-152.842316
 23
-3.005236
 33
-151.491531
  0
3DFACE
  8
9/black:upper fin border
 10
-217.959061
 20
-1.138993
 30
116.742271
 11
-217.959061
 21
-1.138993
 31
116.742271
 12
-230.000000
 22
0.000000
 32
126.709061
 13
-217.959061
 23
1.138993
 33
116.742271
  0
3DFACE
  8
9/black:upper fin border
 10
47.526634
 20
1.138993
 30
205.983490
 11
47.526634
 21
1.138993
 31
205.983490
 12
40.000000
 22
0.000000
 32
206.709061
 13
47.526634
 23
-1.138993
 33
205.983490
  0
3DFACE
  8
9/black:upper fin border
 10
-164.387405
 20
1.138993
 30
178.172974
 11
-217.959061
 21
1.138993
 31
116.742271
 12
-230.000000
 22
0.000000
 32
126.709061
 13
-175.000000
 23
0.000000
 33
181.709061
  0
3DFACE
  8
9/black:upper fin border
 10
-92.000229
 20
1.280944
 30
199.595795
 11
-164.387405
 21
1.138993
 31
178.172974
 12
-175.000000
 22
0.000000
 32
181.709061
 13
-100.000000
 23
0.000000
 33
201.709061
  0
3DFACE
  8
9/black:upper fin border
 10
-30.831285
 20
0.939901
 30
205.356293
 11
-92.000229
 21
1.280944
 31
199.595795
 12
-100.000000
 22
0.000000
 32
201.709061
 13
-45.000000
 23
0.000000
 33
206.709061
  0
3DFACE
  8
9/black:upper fin border
 10
47.526634
 20
1.138993
 30
205.983490
 11
-30.831285
 21
0.939901
 31
205.356293
 12
-45.000000
 22
0.000000
 32
206.709061
 13
40.000000
 23
0.000000
 33
206.709061
  0
3DFACE
  8
9/black:upper fin border
 10
-175.000000
 20
0.000000
 30
181.709061
 11
-230.000000
 21
0.000000
 31
126.709061
 12
-217.959061
 22
-1.138993
 32
116.742271
 13
-164.387405
 23
-1.138993
 33
178.172974
  0
3DFACE
  8
9/black:upper fin border
 10
-100.000000
 20
0.000000
 30
201.709061
 11
-175.000000
 21
0.000000
 31
181.709061
 12
-164.387405
 22
-1.138993
 32
178.172974
 13
-92.000229
 23
-1.280944
 33
199.595795
  0
3DFACE
  8
9/black:upper fin border
 10
-45.000000
 20
0.000000
 30
206.709061
 11
-100.000000
 21
0.000000
 31
201.709061
 12
-92.000229
 22
-1.280944
 32
199.595795
 13
-30.831285
 23
-0.939901
 33
205.356293
  0
3DFACE
  8
9/black:upper fin border
 10
40.000000
 20
0.000000
 30
206.709061
 11
-45.000000
 21
0.000000
 31
206.709061
 12
-30.831285
 22
-0.939901
 32
205.356293
 13
47.526634
 23
-1.138993
 33
205.983490
  0
3DFACE
  8
10/black:lower fin border
 10
-220.740433
 20
1.153251
 30
-66.535072
 11
-230.000000
 21
0.000000
 31
-75.000000
 12
-220.740433
 22
-1.153251
 32
-66.535072
 13
-220.740433
 23
-1.153251
 33
-66.535072
  0
3DFACE
  8
10/black:lower fin border
 10
-152.842316
 20
-3.005236
 30
-151.491531
 11
-165.000000
 21
0.000000
 31
-150.000000
 12
-152.842316
 22
3.005236
 32
-151.491531
 13
-152.842316
 23
3.005236
 33
-151.491531
  0
3DFACE
  8
10/black:lower fin border
 10
-205.000000
 20
0.000000
 30
-115.000000
 11
-230.000000
 21
0.000000
 31
-75.000000
 12
-220.740433
 22
1.153251
 32
-66.535072
 13
-198.146698
 23
1.153251
 33
-111.473709
  0
3DFACE
  8
10/black:lower fin border
 10
-165.000000
 20
0.000000
 30
-150.000000
 11
-205.000000
 21
0.000000
 31
-115.000000
 12
-198.146698
 22
1.153251
 32
-111.473709
 13
-152.842316
 23
3.005236
 33
-151.491531
  0
3DFACE
  8
10/black:lower fin border
 10
-198.146698
 20
-1.153251
 30
-111.473709
 11
-220.740433
 21
-1.153251
 31
-66.535072
 12
-230.000000
 22
0.000000
 32
-75.000000
 13
-205.000000
 23
0.000000
 33
-115.000000
  0
3DFACE
  8
10/black:lower fin border
 10
-152.842316
 20
-3.005236
 30
-151.491531
 11
-198.146698
 21
-1.153251
 31
-111.473709
 12
-205.000000
 22
0.000000
 32
-115.000000
 13
-165.000000
 23
0.000000
 33
-150.000000
  0
3DFACE
  8
11/black:body_10_border
 10
-231.480698
 20
-2.340660
 30
-67.468033
 11
-242.567139
 21
0.003848
 31
-56.652550
 12
-231.480698
 22
2.340660
 32
-67.468033
 13
-231.480698
 23
2.340660
 33
-67.468033
  0
3DFACE
  8
11/black:body_10_border
 10
-231.480698
 20
2.340660
 30
-67.468033
 11
-242.567139
 21
0.003848
 31
-56.652550
 12
-255.002609
 22
0.002234
 32
30.000000
 13
-242.980713
 23
2.500000
 33
29.999996
  0
3DFACE
  8
11/black:body_10_border
 10
-242.980713
 20
2.500000
 30
29.999996
 11
-255.002609
 21
0.002234
 31
30.000000
 12
-241.994385
 22
-0.001357
 32
109.280655
 13
-230.860031
 23
2.567214
 33
118.336914
  0
3DFACE
  8
11/black:body_10_border
 10
-230.860031
 20
2.567214
 30
118.336914
 11
-241.994385
 21
-0.001357
 31
109.280655
 12
-230.860031
 22
-2.567214
 32
118.336914
 13
-230.860031
 23
-2.567214
 33
118.336914
  0
3DFACE
  8
11/black:body_10_border
 10
-230.860031
 20
-2.567214
 30
118.336914
 11
-241.994385
 21
-0.001357
 31
109.280655
 12
-255.002609
 22
0.002234
 32
30.000000
 13
-242.980713
 23
-2.500000
 33
29.999996
  0
3DFACE
  8
11/black:body_10_border
 10
-242.980713
 20
-2.500000
 30
29.999996
 11
-255.002609
 21
0.002234
 31
30.000000
 12
-242.567139
 22
0.003848
 32
-56.652550
 13
-231.480698
 23
-2.340660
 33
-67.468033
  0
3DFACE
  8
12/yellow:body_1
 10
239.238739
 20
11.009094
 30
-78.054848
 11
239.238739
 21
-11.009094
 31
-78.054848
 12
215.562286
 22
-19.340660
 32
-93.094444
 13
215.562286
 23
19.340660
 33
-93.094444
  0
3DFACE
  8
12/yellow:body_1
 10
246.529449
 20
19.581398
 30
-47.709301
 11
239.238739
 21
11.009094
 31
-78.054848
 12
215.562286
 22
19.340660
 32
-93.094444
 13
230.562286
 23
25.000000
 33
-44.999996
  0
3DFACE
  8
12/yellow:body_1
 10
231.948029
 20
7.156138
 30
9.622134
 11
246.529449
 21
19.581398
 31
-47.709301
 12
230.562286
 22
25.000000
 32
-44.999996
 13
215.562286
 23
7.567214
 33
65.967941
  0
3DFACE
  8
12/yellow:body_1
 10
231.948029
 20
-7.156138
 30
9.622134
 11
231.948029
 21
7.156138
 31
9.622134
 12
215.562286
 22
7.567214
 32
65.967941
 13
215.562286
 23
-7.567214
 33
65.967941
  0
3DFACE
  8
12/yellow:body_1
 10
246.529449
 20
-19.581398
 30
-47.709301
 11
231.948029
 21
-7.156138
 31
9.622134
 12
215.562286
 22
-7.567214
 32
65.967941
 13
230.562286
 23
-25.000000
 33
-44.999996
  0
3DFACE
  8
12/yellow:body_1
 10
239.238739
 20
-11.009094
 30
-78.054848
 11
246.529449
 21
-19.581398
 31
-47.709301
 12
230.562286
 22
-25.000000
 32
-44.999996
 13
215.562286
 23
-19.340660
 33
-93.094444
  0
3DFACE
  8
12/yellow:body_1
 10
260.029572
 20
8.192278
 30
-65.338974
 11
260.029572
 21
-8.192278
 31
-65.338974
 12
239.238739
 22
-11.009094
 32
-78.054848
 13
239.238739
 23
11.009094
 33
-78.054848
  0
3DFACE
  8
12/yellow:body_1
 10
260.029572
 20
15.000004
 30
-49.999996
 11
260.029572
 21
8.192278
 31
-65.338974
 12
239.238739
 22
11.009094
 32
-78.054848
 13
246.529449
 23
19.581398
 33
-47.709301
  0
3DFACE
  8
12/yellow:body_1
 10
260.029572
 20
6.808577
 30
-25.335470
 11
260.029572
 21
15.000004
 31
-49.999996
 12
246.529449
 22
19.581398
 32
-47.709301
 13
231.948029
 23
7.156138
 33
9.622134
  0
3DFACE
  8
12/yellow:body_1
 10
260.029572
 20
-6.808577
 30
-25.335470
 11
260.029572
 21
6.808577
 31
-25.335470
 12
231.948029
 22
7.156138
 32
9.622134
 13
231.948029
 23
-7.156138
 33
9.622134
  0
3DFACE
  8
12/yellow:body_1
 10
260.029572
 20
-15.000004
 30
-49.999996
 11
260.029572
 21
-6.808577
 31
-25.335470
 12
231.948029
 22
-7.156138
 32
9.622134
 13
246.529449
 23
-19.581398
 33
-47.709301
  0
3DFACE
  8
12/yellow:body_1
 10
260.029572
 20
-8.192278
 30
-65.338974
 11
260.029572
 21
-15.000004
 31
-49.999996
 12
246.529449
 22
-19.581398
 32
-47.709301
 13
239.238739
 23
-11.009094
 33
-78.054848
  0
3DFACE
  8
12/yellow:body_1
 10
295.021576
 20
7.618087
 30
-60.626068
 11
295.021576
 21
-7.618087
 31
-60.626068
 12
260.029572
 22
-8.192278
 32
-65.338974
 13
260.029572
 23
8.192278
 33
-65.338974
  0
3DFACE
  8
12/yellow:body_1
 10
295.021576
 20
9.999996
 30
-49.999996
 11
295.021576
 21
7.618087
 31
-60.626068
 12
260.029572
 22
8.192278
 32
-65.338974
 13
260.029572
 23
15.000004
 33
-49.999996
  0
3DFACE
  8
12/yellow:body_1
 10
295.021576
 20
6.429257
 30
-34.956154
 11
295.021576
 21
9.999996
 31
-49.999996
 12
260.029572
 22
15.000004
 32
-49.999996
 13
260.029572
 23
6.808577
 33
-25.335470
  0
3DFACE
  8
12/yellow:body_1
 10
295.021576
 20
-6.429257
 30
-34.956154
 11
295.021576
 21
6.429257
 31
-34.956154
 12
260.029572
 22
6.808577
 32
-25.335470
 13
260.029572
 23
-6.808577
 33
-25.335470
  0
3DFACE
  8
12/yellow:body_1
 10
295.021576
 20
-9.999996
 30
-49.999996
 11
295.021576
 21
-6.429257
 31
-34.956154
 12
260.029572
 22
-6.808577
 32
-25.335470
 13
260.029572
 23
-15.000004
 33
-49.999996
  0
3DFACE
  8
12/yellow:body_1
 10
295.021576
 20
-7.618087
 30
-60.626068
 11
295.021576
 21
-9.999996
 31
-49.999996
 12
260.029572
 22
-15.000004
 32
-49.999996
 13
260.029572
 23
-8.192278
 33
-65.338974
  0
3DFACE
  8
12/yellow:body_1
 10
299.999969
 20
0.000000
 30
-49.999989
 11
295.021576
 21
-7.618087
 31
-60.626068
 12
295.021576
 22
7.618087
 32
-60.626068
 13
295.021576
 23
7.618087
 33
-60.626068
  0
3DFACE
  8
12/yellow:body_1
 10
299.999969
 20
0.000000
 30
-49.999989
 11
295.021576
 21
7.618087
 31
-60.626068
 12
295.021576
 22
9.999996
 32
-49.999996
 13
295.021576
 23
9.999996
 33
-49.999996
  0
3DFACE
  8
12/yellow:body_1
 10
299.999969
 20
0.000000
 30
-49.999989
 11
295.021576
 21
9.999996
 31
-49.999996
 12
295.021576
 22
6.429257
 32
-34.956154
 13
295.021576
 23
6.429257
 33
-34.956154
  0
3DFACE
  8
12/yellow:body_1
 10
299.999969
 20
0.000000
 30
-49.999989
 11
295.021576
 21
6.429257
 31
-34.956154
 12
295.021576
 22
-6.429257
 32
-34.956154
 13
295.021576
 23
-6.429257
 33
-34.956154
  0
3DFACE
  8
12/yellow:body_1
 10
299.999969
 20
0.000000
 30
-49.999989
 11
295.021576
 21
-6.429257
 31
-34.956154
 12
295.021576
 22
-9.999996
 32
-49.999996
 13
295.021576
 23
-9.999996
 33
-49.999996
  0
3DFACE
  8
12/yellow:body_1
 10
299.999969
 20
0.000000
 30
-49.999989
 11
295.021576
 21
-9.999996
 31
-49.999996
 12
295.021576
 22
-7.618087
 32
-60.626068
 13
295.021576
 23
-7.618087
 33
-60.626068
  0
3DFACE
  8
13/black:body_2
 10
215.562286
 20
-19.340660
 30
-93.094444
 11
230.562286
 21
-25.000000
 31
-44.999996
 12
164.454086
 22
-40.558319
 32
-28.052094
 13
196.401993
 23
-24.340660
 33
-106.098251
  0
3DFACE
  8
13/black:body_2
 10
230.562286
 20
-25.000000
 30
-44.999996
 11
215.562286
 21
-7.567214
 31
65.967941
 12
215.570724
 22
-7.567214
 32
109.995392
 13
164.454086
 23
-40.558319
 33
-28.052094
  0
3DFACE
  8
13/black:body_2
 10
215.562286
 20
-7.567214
 30
65.967941
 11
215.562286
 21
7.567214
 31
65.967941
 12
215.570724
 22
7.567214
 32
109.995392
 13
215.570724
 23
-7.567214
 33
109.995392
  0
3DFACE
  8
13/black:body_2
 10
215.562286
 20
7.567214
 30
65.967941
 11
230.562286
 21
25.000000
 31
-44.999996
 12
164.454086
 22
40.558319
 32
-28.052094
 13
215.570724
 23
7.567214
 33
109.995392
  0
3DFACE
  8
13/black:body_2
 10
230.562286
 20
25.000000
 30
-44.999996
 11
215.562286
 21
19.340660
 31
-93.094444
 12
196.401993
 22
24.340660
 32
-106.098251
 13
164.454086
 23
40.558319
 33
-28.052094
  0
3DFACE
  8
13/black:body_2
 10
215.562286
 20
19.340660
 30
-93.094444
 11
215.562286
 21
-19.340660
 31
-93.094444
 12
196.401993
 22
-24.340660
 32
-106.098251
 13
196.401993
 23
24.340660
 33
-106.098251
  0
3DFACE
  8
14/white:body_3_up
 10
164.454086
 20
40.558319
 30
-28.052094
 11
99.610580
 21
50.000000
 31
-44.999996
 12
169.610580
 22
7.567214
 32
168.405762
 13
215.570724
 23
7.567214
 33
109.995392
  0
3DFACE
  8
14/white:body_3_up
 10
215.570724
 20
7.567214
 30
109.995392
 11
169.610580
 21
7.567214
 31
168.405762
 12
169.610580
 22
-7.567214
 32
168.405762
 13
215.570724
 23
-7.567214
 33
109.995392
  0
3DFACE
  8
14/white:body_3_up
 10
215.570724
 20
-7.567214
 30
109.995392
 11
169.610580
 21
-7.567214
 31
168.405762
 12
99.610580
 22
-50.000000
 32
-44.999996
 13
164.454086
 23
-40.558319
 33
-28.052094
  0
3DFACE
  8
15/yellow:body_3_low
 10
196.401993
 20
-24.340660
 30
-106.098251
 11
149.610580
 21
-29.340660
 31
-141.893829
 12
149.610580
 22
29.340660
 32
-141.893829
 13
196.401993
 23
24.340660
 33
-106.098251
  0
3DFACE
  8
15/yellow:body_3_low
 10
196.401993
 20
24.340660
 30
-106.098251
 11
149.610580
 21
29.340660
 31
-141.893829
 12
99.610580
 22
50.000000
 32
-44.999996
 13
164.454086
 23
40.558319
 33
-28.052094
  0
3DFACE
  8
15/yellow:body_3_low
 10
164.454086
 20
-40.558319
 30
-28.052094
 11
99.610580
 21
-50.000000
 31
-44.999996
 12
149.610580
 22
-29.340660
 32
-141.893829
 13
196.401993
 23
-24.340660
 33
-106.098251
  0
3DFACE
  8
16/black:body_4_up
 10
99.610580
 20
50.000000
 30
-44.999996
 11
72.005264
 21
50.000000
 31
-79.999954
 12
90.005264
 22
7.567214
 32
201.888489
 13
169.610580
 23
7.567214
 33
168.405762
  0
3DFACE
  8
16/black:body_4_up
 10
169.610580
 20
7.567214
 30
168.405762
 11
90.005264
 21
7.567214
 31
201.888489
 12
90.005264
 22
-7.567214
 32
201.888489
 13
169.610580
 23
-7.567214
 33
168.405762
  0
3DFACE
  8
16/black:body_4_up
 10
169.610580
 20
-7.567214
 30
168.405762
 11
90.005264
 21
-7.567214
 31
201.888489
 12
72.005264
 22
-50.000000
 32
-79.999954
 13
99.610580
 23
-50.000000
 33
-44.999996
  0
3DFACE
  8
17/yellow:body_4_low
 10
149.610580
 20
-29.340660
 30
-141.893829
 11
95.005264
 21
-34.340660
 31
-153.735779
 12
95.005264
 22
34.340660
 32
-153.735779
 13
149.610580
 23
29.340660
 33
-141.893829
  0
3DFACE
  8
17/yellow:body_4_low
 10
149.610580
 20
29.340660
 30
-141.893829
 11
95.005264
 21
34.340660
 31
-153.735779
 12
72.005264
 22
50.000000
 32
-79.999954
 13
99.610580
 23
50.000000
 33
-44.999996
  0
3DFACE
  8
17/yellow:body_4_low
 10
99.610580
 20
-50.000000
 30
-44.999996
 11
72.005264
 21
-50.000000
 31
-79.999954
 12
95.005264
 22
-34.340660
 32
-153.735779
 13
149.610580
 23
-29.340660
 33
-141.893829
  0
3DFACE
  8
18/black:body_5_up
 10
72.005264
 20
50.000000
 30
-79.999954
 11
1.779175
 21
44.418198
 31
-20.449997
 12
49.133724
 22
6.244490
 32
197.721573
 13
90.005264
 23
7.567214
 33
201.888489
  0
3DFACE
  8
18/black:body_5_up
 10
90.005264
 20
-7.567214
 30
201.888489
 11
49.133724
 21
-6.244490
 31
197.721573
 12
1.779175
 22
-44.418198
 32
-20.449997
 13
72.005264
 23
-50.000000
 33
-79.999954
  0
3DFACE
  8
19/yellow:body_5_low
 10
95.005264
 20
-34.340660
 30
-153.735779
 11
9.133724
 21
-29.340660
 31
-163.128189
 12
9.133724
 22
29.340660
 32
-163.128189
 13
95.005264
 23
34.340660
 33
-153.735779
  0
3DFACE
  8
19/yellow:body_5_low
 10
95.005264
 20
34.340660
 30
-153.735779
 11
9.133724
 21
29.340660
 31
-163.128189
 12
1.779175
 22
44.418198
 32
-20.449997
 13
72.005264
 23
50.000000
 33
-79.999954
  0
3DFACE
  8
19/yellow:body_5_low
 10
72.005264
 20
-50.000000
 30
-79.999954
 11
1.779175
 21
-44.418198
 31
-20.449997
 12
9.133724
 22
-29.340660
 32
-163.128189
 13
95.005264
 23
-34.340660
 33
-153.735779
  0
3DFACE
  8
20/black:body_6_up
 10
1.779175
 20
44.418198
 30
-20.449997
 11
-57.737789
 21
35.475883
 31
12.041710
 12
-46.851372
 22
8.510300
 32
187.668915
 13
49.133724
 23
6.244490
 33
197.721573
  0
3DFACE
  8
20/black:body_6_up
 10
49.133724
 20
-6.244490
 30
197.721573
 11
-46.851372
 21
-8.510300
 31
187.668915
 12
-57.737789
 22
-35.475883
 32
12.041710
 13
1.779175
 23
-44.418198
 33
-20.449997
  0
3DFACE
  8
21/yellow:body_6_low
 10
9.133724
 20
-29.340660
 30
-163.128189
 11
-66.529892
 21
-24.340660
 31
-162.080566
 12
-66.529892
 22
24.340660
 32
-162.080566
 13
9.133724
 23
29.340660
 33
-163.128189
  0
3DFACE
  8
21/yellow:body_6_low
 10
9.133724
 20
29.340660
 30
-163.128189
 11
-66.529892
 21
24.340660
 31
-162.080566
 12
-57.737789
 22
35.475883
 32
12.041710
 13
1.779175
 23
44.418198
 33
-20.449997
  0
3DFACE
  8
21/yellow:body_6_low
 10
1.779175
 20
-44.418198
 30
-20.449997
 11
-57.737789
 21
-35.475883
 31
12.041710
 12
-66.529892
 22
-24.340660
 32
-162.080566
 13
9.133724
 23
-29.340660
 33
-163.128189
  0
3DFACE
  8
22/black:body_7_up
 10
-57.737789
 20
35.475883
 30
12.041710
 11
-104.492294
 21
27.500000
 31
24.999996
 12
-104.492294
 22
7.567214
 32
158.216110
 13
-46.851372
 23
8.510300
 33
187.668915
  0
3DFACE
  8
22/black:body_7_up
 10
-46.851372
 20
-8.510300
 30
187.668915
 11
-104.492294
 21
-7.567214
 31
158.216110
 12
-104.492294
 22
-27.500000
 32
24.999996
 13
-57.737789
 23
-35.475883
 33
12.041710
  0
3DFACE
  8
23/yellow:body_7_low
 10
-66.529892
 20
24.340660
 30
-162.080566
 11
-149.492294
 21
9.340660
 31
-86.439041
 12
-104.492294
 22
27.500000
 32
24.999996
 13
-57.737789
 23
35.475883
 33
12.041710
  0
3DFACE
  8
23/yellow:body_7_low
 10
-57.737789
 20
-35.475883
 30
12.041710
 11
-104.492294
 21
-27.500000
 31
24.999996
 12
-149.492294
 22
-9.340660
 32
-86.439041
 13
-66.529892
 23
-24.340660
 33
-162.080566
  0
3DFACE
  8
24/black:body_8_up
 10
-104.492294
 20
27.500000
 30
24.999996
 11
-135.002823
 21
17.500000
 31
24.999996
 12
-150.002823
 22
7.567214
 32
60.492004
 13
-104.492294
 23
7.567214
 33
158.216110
  0
3DFACE
  8
24/black:body_8_up
 10
-104.492294
 20
-7.567214
 30
158.216110
 11
-150.002823
 21
-7.567214
 31
60.492004
 12
-135.002823
 22
-17.500000
 32
24.999996
 13
-104.492294
 23
-27.500000
 33
24.999996
  0
3DFACE
  8
25/yellow:body_8_low
 10
-149.492294
 20
9.340660
 30
-86.439041
 11
-155.002823
 21
9.340660
 31
-6.439026
 12
-135.002823
 22
17.500000
 32
24.999996
 13
-104.492294
 23
27.500000
 33
24.999996
  0
3DFACE
  8
25/yellow:body_8_low
 10
-104.492294
 20
-27.500000
 30
24.999996
 11
-135.002823
 21
-17.500000
 31
24.999996
 12
-155.002823
 22
-9.340660
 32
-6.439026
 13
-149.492294
 23
-9.340660
 33
-86.439041
  0
3DFACE
  8
26/yellow:body_9_up
 10
-167.197998
 20
10.000000
 30
27.455040
 11
-242.980713
 21
2.500000
 31
29.999996
 12
-230.860031
 22
2.567214
 32
118.336914
 13
-174.974152
 23
7.567214
 33
71.709061
  0
3DFACE
  8
26/yellow:body_9_up
 10
-135.002823
 20
17.500000
 30
24.999996
 11
-167.197998
 21
10.000000
 31
27.455040
 12
-174.974152
 22
7.567214
 32
71.709061
 13
-150.002823
 23
7.567214
 33
60.492004
  0
3DFACE
  8
26/yellow:body_9_up
 10
-174.974152
 20
7.567214
 30
71.709061
 11
-230.860031
 21
2.567214
 31
118.336914
 12
-230.860031
 22
-2.567214
 32
118.336914
 13
-174.974152
 23
-7.567214
 33
71.709061
  0
3DFACE
  8
26/yellow:body_9_up
 10
-150.002823
 20
7.567214
 30
60.492004
 11
-174.974152
 21
7.567214
 31
71.709061
 12
-174.974152
 22
-7.567214
 32
71.709061
 13
-150.002823
 23
-7.567214
 33
60.492004
  0
3DFACE
  8
26/yellow:body_9_up
 10
-174.974152
 20
-7.567214
 30
71.709061
 11
-230.860031
 21
-2.567214
 31
118.336914
 12
-242.980713
 22
-2.500000
 32
29.999996
 13
-167.197998
 23
-10.000000
 33
27.455040
  0
3DFACE
  8
26/yellow:body_9_up
 10
-150.002823
 20
-7.567214
 30
60.492004
 11
-174.974152
 21
-7.567214
 31
71.709061
 12
-167.197998
 22
-10.000000
 32
27.455040
 13
-135.002823
 23
-17.500000
 33
24.999996
  0
3DFACE
  8
27/yellow:body_9_low
 10
-174.697998
 20
-4.340660
 30
-9.489235
 11
-231.480698
 21
-2.340660
 31
-67.468033
 12
-231.480698
 22
2.340660
 32
-67.468033
 13
-174.697998
 23
4.340660
 33
-9.489235
  0
3DFACE
  8
27/yellow:body_9_low
 10
-155.002823
 20
-9.340660
 30
-6.439026
 11
-174.697998
 21
-4.340660
 31
-9.489235
 12
-174.697998
 22
4.340660
 32
-9.489235
 13
-155.002823
 23
9.340660
 33
-6.439026
  0
3DFACE
  8
27/yellow:body_9_low
 10
-174.697998
 20
4.340660
 30
-9.489235
 11
-231.480698
 21
2.340660
 31
-67.468033
 12
-242.980713
 22
2.500000
 32
29.999996
 13
-167.197998
 23
10.000000
 33
27.455040
  0
3DFACE
  8
27/yellow:body_9_low
 10
-155.002823
 20
9.340660
 30
-6.439026
 11
-174.697998
 21
4.340660
 31
-9.489235
 12
-167.197998
 22
10.000000
 32
27.455040
 13
-135.002823
 23
17.500000
 33
24.999996
  0
3DFACE
  8
27/yellow:body_9_low
 10
-167.197998
 20
-10.000000
 30
27.455040
 11
-242.980713
 21
-2.500000
 31
29.999996
 12
-231.480698
 22
-2.340660
 32
-67.468033
 13
-174.697998
 23
-4.340660
 33
-9.489235
  0
3DFACE
  8
27/yellow:body_9_low
 10
-135.002823
 20
-17.500000
 30
24.999996
 11
-167.197998
 21
-10.000000
 31
27.455040
 12
-174.697998
 22
-4.340660
 32
-9.489235
 13
-155.002823
 23
-9.340660
 33
-6.439026
  0
ENDSEC
  0
EOF
